<svg width="1920" height="480" viewBox="0 0 1920 480" fill="none" xmlns="http://www.w3.org/2000/svg">
<path opacity="0.64" fill-rule="evenodd" clip-rule="evenodd" d="M1920 478.2C1920 478.2 1911.72 478.576 1905.91 479.164C1901.64 479.596 1898.52 478.636 1895.05 477.564C1893.81 477.179 1892.51 476.78 1891.1 476.425C1887.2 475.448 1885.1 473.845 1882.63 471.957C1881.71 471.258 1880.74 470.521 1879.61 469.762C1875.43 466.952 1875.14 464.498 1876.01 463.088C1876.49 462.316 1878.06 461.501 1879.85 460.575C1881.33 459.811 1882.96 458.971 1884.24 458.017C1887.05 455.907 1888.58 455.126 1895.79 456.313C1903 457.499 1911.32 452.164 1911.32 452.164C1911.32 452.164 1902.18 453.179 1896.37 450.461C1899.78 450.877 1901.39 449.881 1903.35 448.662C1904.49 447.951 1905.76 447.163 1907.58 446.535C1912.53 444.831 1915.12 438.157 1915.12 438.157C1915.12 438.157 1900.57 439.415 1894.23 437.711C1887.89 436.007 1884.29 434.456 1872.73 425.54C1895.1 429.323 1904.64 418.288 1904.64 418.288C1904.64 418.288 1897.96 421.544 1886.09 418.288C1891.7 416.584 1897.96 411.838 1897.96 411.838C1897.96 411.838 1886.82 411.615 1879.81 410.063C1872.81 408.511 1859.59 401.543 1857.72 399.241C1856.14 397.275 1853.56 390.996 1850.81 384.271C1850.53 383.587 1850.24 382.899 1849.96 382.21C1849.77 381.741 1849.57 381.271 1849.38 380.802C1866.47 394.646 1879.02 385.244 1879.02 385.244C1879.02 385.244 1870.6 385.092 1866.59 381.613C1870.33 382.323 1871.74 379.343 1872.93 376.844C1873.6 375.449 1874.19 374.204 1875.07 373.834C1877.54 372.799 1877.75 371.095 1875.54 369.239C1873.82 367.788 1872.46 368.786 1871.32 369.634C1871 369.871 1870.69 370.096 1870.4 370.253L1870.25 370.332C1869.01 371.011 1868.3 371.394 1865.73 366.196C1863.37 361.44 1858.78 358.221 1855.5 355.919C1855.05 355.61 1854.64 355.317 1854.25 355.039C1852.27 353.614 1850.9 350.686 1849.46 347.627C1848.54 345.659 1847.59 343.636 1846.44 341.925C1843.93 338.193 1842.06 338.135 1841.23 338.109C1841.12 338.111 1841.01 338.102 1840.9 338.081C1840.37 337.939 1840.09 337.067 1840.7 335.333C1846.16 336.819 1850.31 332.288 1853.73 328.556C1854.06 328.188 1854.4 327.828 1854.71 327.482C1858.31 323.628 1858.19 315.037 1858.19 315.037C1858.19 315.037 1854.05 321.701 1850.72 321.701C1850.28 310.672 1846.26 304.589 1843.55 300.472C1843.28 300.071 1843.03 299.688 1842.79 299.322C1842.46 298.8 1842.16 298.311 1841.9 297.846C1840.5 295.267 1840.68 288.911 1840.87 282.691C1840.98 278.905 1841.08 275.169 1840.83 272.368C1840.52 268.816 1839.43 266.182 1838.38 263.65C1837.24 260.903 1836.16 258.277 1836.16 254.73C1836.16 253.599 1836.18 252.477 1836.21 251.389V251.385C1836.33 245.919 1836.43 241.343 1833.23 241.098C1830.42 240.884 1830.43 252.615 1830.43 263.813C1830.44 267.989 1830.44 272.091 1830.29 275.471C1826.56 278.198 1826.86 291.693 1827.08 301.202C1827.16 304.64 1827.22 307.557 1827.09 309.256C1826.56 315.656 1818.14 324.967 1818.14 324.967L1826.56 321.113C1825.75 327.036 1828.95 335.038 1828.95 335.038C1828.95 335.038 1824.38 338.892 1823.61 343.629C1820.41 342.148 1797.85 336.813 1786.76 335.515C1775.68 334.217 1772.08 327.401 1772.08 327.401C1772.08 327.401 1800.65 334.065 1811.87 327.989C1811.87 327.989 1794.91 323.689 1795.17 323.243C1795.44 322.796 1800.25 320.281 1804.12 319.987C1805.41 319.889 1806.74 320.054 1808.04 320.214C1810.61 320.533 1813.02 320.83 1814.54 318.973C1816.81 316.184 1824.28 306.974 1820.41 303.759C1818.38 302.071 1816.13 303.218 1813.78 304.409C1811.67 305.487 1809.48 306.601 1807.33 305.686C1805.93 305.094 1804.93 304.558 1803.82 303.967C1801.32 302.634 1798.28 301.019 1789.05 297.835C1806.28 299.164 1810.98 287.754 1807.88 284.945C1806.2 283.423 1804.1 284.028 1801.73 284.715C1799.72 285.295 1797.52 285.934 1795.19 285.391C1793.34 284.958 1791.53 284.998 1789.43 285.045C1785.75 285.125 1781.18 285.226 1773.97 282.865C1762.63 279.153 1754.08 265.826 1754.08 265.826C1754.08 265.826 1770.63 269.234 1774.1 269.234C1775.53 269.234 1776.33 268.857 1777.44 268.331C1779.03 267.579 1781.25 266.524 1786.9 265.826C1796.48 264.639 1811.73 247.539 1811.73 247.539C1811.73 247.539 1805.33 251.768 1791.01 251.433C1799.23 245.064 1804.08 237.225 1806.69 233.01C1807.13 232.298 1807.51 231.69 1807.83 231.209C1809.55 228.291 1811.03 225.201 1812.24 221.98C1812.24 221.98 1792.81 236.098 1787.3 237.538C1783.76 238.464 1775.3 237.361 1768.35 236.455L1768.34 236.454C1764.48 235.952 1761.09 235.51 1759.27 235.51C1754.16 235.51 1748.96 234.069 1741.75 227.619C1755.07 226.605 1757.97 223.623 1757.97 221.533C1757.97 219.444 1755.07 216.635 1755.07 216.635C1762.3 214.602 1769.24 211.461 1775.69 207.303C1785.49 200.751 1788.4 186.633 1788.4 186.633C1788.4 186.633 1784.8 192.637 1781.59 194.859C1778.39 197.08 1768.48 199.747 1764.67 200.082C1760.86 200.417 1758.36 200.193 1754.37 196.522C1751.3 193.711 1747.24 192.826 1744.55 192.243C1743.73 192.064 1743.04 191.914 1742.55 191.745C1740.44 191.025 1737.43 186.298 1740.55 184.645C1741.72 184.022 1742.5 184.406 1743.62 184.954C1745.47 185.859 1748.24 187.212 1755.17 185.203C1763.96 182.652 1767.8 174.544 1771.79 166.096C1772.84 163.862 1773.92 161.605 1775.09 159.42C1774.91 159.593 1774.66 159.826 1774.38 160.106C1772.48 161.98 1768.5 165.894 1765.27 166.865C1761.57 167.981 1750.16 168.64 1750.16 168.64C1748.48 166.423 1746.2 164.866 1743.65 164.198C1748.06 162.869 1753.55 156.418 1758.16 148.984C1752.76 153.426 1742.95 157.656 1733.25 155.982C1733.09 152.363 1731.66 151.551 1730.7 151.005C1730.42 150.847 1730.19 150.711 1730.03 150.535C1729.32 149.755 1729.84 144.653 1732.43 137.868C1733.96 133.865 1732.99 130.643 1732.1 127.693C1731.48 125.641 1730.91 123.72 1731.23 121.761C1732.03 116.984 1731.13 109.093 1730.32 104.306C1729.9 101.837 1728.32 100.38 1726.79 98.983C1725.37 97.67 1724 96.411 1723.72 94.417C1723.52 93.057 1723.54 91.588 1723.55 90.22C1723.59 87.448 1723.63 85.087 1721.81 84.863C1719.11 84.528 1718.15 95.31 1719.3 99.306C1720.46 103.302 1720.61 114.641 1718.8 121.315C1716.99 127.989 1717.41 132.979 1719.21 137.208C1720.59 140.467 1720.26 144.31 1720.03 146.918C1719.97 147.695 1719.91 148.362 1719.91 148.872C1719.91 151.093 1717.81 153.761 1715.51 154.958C1715.26 155.084 1714.96 155.231 1714.61 155.401L1714.6 155.405C1711.58 156.852 1705.18 159.926 1705.99 165.293C1706.72 170.134 1708.75 170.848 1715.8 173.334C1717.5 173.932 1719.48 174.632 1721.81 175.517C1720.9 178.285 1716.33 180.294 1708.3 182.616C1703.14 184.296 1698.44 187.346 1694.59 191.501C1694.59 191.501 1688.08 189.168 1687.68 194.169C1687.28 199.169 1691.79 200.062 1699 200.062C1702.78 200.009 1706.55 200.233 1710.3 200.731C1710.3 200.731 1708.91 203.622 1704.51 206.725C1701.4 209.013 1697.88 210.497 1694.19 211.066C1690.98 211.726 1688.38 219.18 1693.88 221.402C1696.76 222.562 1699.18 221.992 1701.92 221.342C1704.43 220.748 1707.22 220.088 1710.91 220.62C1716.41 221.415 1717.98 219.02 1718.76 217.835C1719.07 217.357 1719.26 217.076 1719.52 217.284C1720.42 218.004 1721.01 224.18 1717.82 228.734C1714.62 233.288 1704.53 240.439 1701.7 240.763C1698.86 241.088 1689.28 249.212 1679.66 259.02C1686.98 260.418 1691.2 258.656 1694.49 257.284C1696.95 256.257 1698.88 255.449 1701.19 256.353C1706.6 258.462 1716.73 253.908 1716.73 253.908C1716.73 253.908 1698.51 264.355 1699.11 268.909C1699.72 273.463 1717.84 271.465 1717.84 271.465C1717.84 271.465 1707.42 282.135 1700.1 287.47C1692.8 292.805 1684.09 293.028 1684.09 293.028C1684.09 293.028 1693.9 285.36 1695.7 283.798C1697.5 282.236 1697.7 277.713 1694.7 276.465C1693.24 275.854 1689.58 275.628 1685.49 275.374C1681.21 275.108 1676.45 274.813 1673.18 274.021C1666.77 272.469 1658.86 266.921 1658.86 266.921C1658.86 266.921 1664.34 263.361 1664.67 261.698C1665 260.034 1664.77 252.143 1661.93 250.541C1660.37 249.665 1659.11 250.114 1657.62 250.646C1656.38 251.087 1654.98 251.585 1653.12 251.433C1649.01 251.099 1639.2 246.21 1628.79 236.22C1633.1 238.775 1654.37 241.555 1661.33 239.445C1663.44 238.803 1665.4 238.377 1667.33 237.956L1667.34 237.954C1671.76 236.992 1676.04 236.059 1681.75 232.659C1676.65 234.546 1666.13 234.769 1659.02 229.881C1670.34 224.434 1670.34 218.105 1669.08 215.884C1668.1 214.172 1666.25 214.37 1664.08 214.601C1663.43 214.67 1662.76 214.743 1662.06 214.768C1661.42 214.792 1660.81 214.863 1660.2 214.934C1657.96 215.195 1655.6 215.47 1650.65 213.551C1646.29 211.906 1641.84 210.551 1637.34 209.494C1637.34 209.494 1652.35 205.61 1657.26 201.826C1662.16 198.043 1666.87 193.601 1665.07 187.718C1665.07 187.718 1673.48 185.933 1677.99 181.825C1672.58 182.495 1648.35 182.941 1637.14 181.825C1634.81 181.593 1632.74 181.419 1630.89 181.264C1623.85 180.673 1620.09 180.357 1617.81 178.164C1615.45 176.096 1612.9 174.308 1610.2 172.829C1610.2 172.829 1609.41 167.271 1611.11 166.49C1611.89 166.134 1613.75 166.586 1616.32 167.214L1616.33 167.215C1619.42 167.968 1623.55 168.975 1628.14 169.157C1636.55 169.492 1646.96 166.114 1646.96 166.114C1646.96 166.114 1638.85 165.445 1634.65 163.782C1630.44 162.118 1626.33 157.006 1626.33 157.006C1629.17 158.275 1632.12 159.206 1635.14 159.785C1638.57 160.323 1641.67 158.287 1645.94 155.467L1645.95 155.462C1646.92 154.823 1647.95 154.144 1649.07 153.446C1655.08 149.663 1655.87 144.318 1653.16 139.003C1656.07 136.559 1659.07 127.999 1659.07 127.999C1659.07 127.999 1652.06 136.224 1646.76 137.441C1641.46 138.659 1637.45 139.47 1633.36 137.999C1630.52 136.976 1628.04 137.107 1625.44 137.243C1624.3 137.303 1623.14 137.364 1621.92 137.33C1617.91 137.218 1613.11 134.226 1606.71 125.778C1609.45 128.82 1616.42 127.664 1620.12 125.554C1623.83 123.445 1631.84 116.335 1633.04 113.383C1634.25 110.432 1631.84 107.714 1630.06 107.044C1628.96 106.631 1628.29 107.115 1627.09 107.988C1626.35 108.529 1625.4 109.218 1624.02 109.935C1620.42 111.811 1617.92 112.156 1617.52 111.051C1617.11 109.945 1619.13 108.606 1622.22 107.714C1625.32 106.821 1627.93 102.937 1629.53 97.714C1631.14 92.49 1628.62 86.82 1627.63 85.38C1626.64 83.94 1624.22 83.047 1622.15 86.394C1620.07 89.741 1616.05 93.291 1613.34 93.95C1611.25 94.46 1608.93 93.722 1604.56 92.335C1603.09 91.8639 1601.61 91.4049 1600.13 90.958C1604.33 90.066 1609.34 83.402 1609.34 83.402C1609.34 83.402 1598.13 84.731 1597.46 84.416C1596.8 84.102 1595.06 79.751 1596.17 78.422C1596.69 77.792 1597.97 75.064 1599.38 72.071C1600.95 68.747 1602.66 65.097 1603.66 63.635C1605.56 60.855 1605.57 56.971 1604.97 56.301C1604.66 55.959 1603.15 58.379 1601.67 60.753C1600.25 63.021 1598.86 65.246 1598.58 64.973C1597.99 64.415 1597.57 56.971 1597.47 51.788C1597.37 46.605 1596.27 42.233 1595.07 37.68C1593.98 33.591 1593.72 27.255 1593.46 21.02V21.012C1593.43 20.304 1593.39 19.597 1593.37 18.896C1593.06 12.009 1590.76 0 1590.76 0C1590.76 0 1588.76 20.894 1587.45 26.675C1586.4 31.351 1586.45 36.897 1586.51 42.904V42.909C1586.52 44.327 1586.54 45.77 1586.54 47.234C1586.54 51.65 1585.68 55.954 1584.85 60.084C1584.24 63.126 1583.64 66.072 1583.43 68.898C1582.93 75.562 1585.49 84.234 1585.49 84.234C1585.49 84.234 1576.43 88.686 1571.92 89.072C1567.41 89.457 1558.21 87.124 1558.21 87.124C1558.21 87.124 1563.46 92.957 1569.32 94.011C1563.84 97.054 1555.61 94.904 1555.61 94.904C1555.61 94.904 1556.32 99.346 1564.62 103.687C1569.73 106.356 1572.57 106.414 1574.3 106.449C1575.38 106.471 1576.02 106.485 1576.51 107.126C1576.87 107.599 1578.31 108.97 1580.17 110.749L1580.18 110.755C1584.89 115.232 1592.28 122.274 1591.93 124.023C1591.42 126.467 1584.32 133.019 1580.4 134.023C1576.5 135.028 1564.88 136.052 1551.78 131.245C1558.08 141.58 1572.1 142.472 1572.1 142.472C1572.1 142.472 1558.18 144.135 1553.08 141.803C1550.2 140.417 1547.07 139.772 1543.94 139.916C1543.94 139.916 1547.85 148.913 1552.85 150.14C1556.92 150.935 1560.9 152.298 1564.66 154.197C1570.38 156.864 1580.68 154.643 1580.68 154.643C1580.68 154.643 1564.56 169.309 1551.95 171.885C1555.05 177.444 1560.56 178.225 1571.07 177.221C1581.57 176.216 1594.01 170.557 1594.01 170.557C1591.32 175.683 1587.75 180.165 1583.49 183.742C1576.9 189.3 1574.1 188.914 1571.18 188.512L1570.88 188.471L1570.48 188.418C1567.28 188.022 1564.36 188.083 1560.76 191.298C1557.24 194.582 1552.91 196.633 1548.34 197.191C1543.35 197.861 1540.03 197.637 1537.13 195.082C1534.23 192.526 1529.02 192.526 1529.02 192.526L1529.12 190.974C1529.12 190.974 1530.82 191.988 1537.73 190.639C1544.64 189.29 1546.14 181.744 1546.14 181.744C1544.72 183.164 1542.94 184.057 1541.04 184.3C1540.98 181.596 1539.46 179.901 1537.56 177.784C1536.17 176.249 1534.59 174.492 1533.23 171.967C1531.59 168.927 1531.5 167.34 1531.42 165.722C1531.34 164.144 1531.26 162.537 1529.72 159.522C1527.34 154.846 1527.37 152.442 1527.43 148.33C1527.44 147.072 1527.47 145.654 1527.41 143.963C1527.3 139.544 1526.61 137.495 1525.96 135.553C1525.55 134.32 1525.15 133.131 1524.92 131.407C1524.33 126.964 1524.92 114.296 1524.92 114.296C1524.92 114.296 1519.21 127.958 1519.21 133.516C1519.21 134.574 1519.22 135.841 1519.24 137.23C1519.31 143.136 1519.4 151.243 1518.5 154.816C1517.4 159.228 1511.89 168.001 1511.89 168.001C1511.41 164.101 1511.24 160.16 1511.4 156.226C1506.5 164.674 1510.4 175.344 1510.4 175.344C1510.4 175.344 1507.65 172.231 1505.59 165.445C1504.29 181.227 1515.5 187.231 1515.5 187.231C1513.47 189.175 1511.25 190.876 1508.9 192.303C1507.76 192.905 1506.82 193.876 1506.2 195.087C1505.57 196.294 1505.29 197.688 1505.4 199.078C1505.4 199.078 1503.5 196.633 1499.91 192.414C1501.97 202.678 1505.02 207.08 1515.54 210.306C1514.28 210.306 1512.81 211.302 1511.18 212.406C1509.17 213.773 1506.9 215.306 1504.51 215.306C1501.16 215.306 1495.89 212.756 1493 211.359C1492.17 210.959 1491.53 210.653 1491.2 210.529C1489.7 209.971 1486.39 209.748 1488.39 215.194C1490.4 220.641 1496.62 225.529 1496.62 225.529C1496.62 225.529 1491.47 223.308 1489.21 223.085C1493.59 230.133 1501.98 234.732 1507.01 237.481C1509.21 238.689 1510.76 239.539 1511.04 240.084C1511.95 241.869 1512.04 250.419 1510.03 254.76C1508.03 259.101 1488.81 272.205 1484.7 272.094C1480.6 271.982 1468.58 263.199 1468.58 263.199C1468.58 263.199 1475.69 262.976 1485.71 261.759C1495.73 260.542 1500.22 254.121 1500.22 254.121C1500.22 254.121 1494.55 254.862 1492.48 254.273C1499.79 249.385 1502.89 243.897 1501.29 243.238C1500.59 242.951 1497.72 243.097 1494.13 243.28H1494.12C1489.47 243.516 1483.64 243.813 1479.8 243.309C1472.99 242.417 1464.18 235.195 1464.18 235.195C1464.18 235.195 1476.97 227.416 1477.53 223.491C1481.18 223.197 1483.87 217.486 1483.4 215.853C1482.94 214.22 1480.2 212.892 1478.27 214.677C1476.64 216.163 1474.99 215.941 1472.86 215.655C1472.43 215.597 1471.99 215.538 1471.51 215.488C1468.71 215.194 1464.98 211.705 1465.31 210.742C1465.49 210.226 1466.55 210.306 1467.81 210.401C1468.92 210.484 1470.19 210.579 1471.19 210.306C1472.14 210.044 1472.63 209.312 1473.12 208.58C1473.73 207.663 1474.34 206.746 1475.86 206.746C1478.59 206.746 1479.99 206.228 1482.74 203.784C1484.57 204.453 1487.07 204.971 1488.01 202.597C1488.26 201.805 1488.35 200.962 1488.27 200.129C1488.18 199.295 1487.93 198.492 1487.54 197.779C1487.54 197.779 1491.55 193.479 1491.08 189.665C1494.28 188.032 1496.29 186.552 1498.39 181.551C1495.92 184.219 1490.78 186.734 1485.97 186.734C1483.28 186.734 1481.13 187.131 1479.24 187.479C1477.76 187.75 1476.45 187.992 1475.16 187.992C1474.31 187.992 1472.95 188.109 1471.43 188.239L1471.42 188.24C1467.7 188.559 1463.11 188.953 1463.35 187.85C1463.68 186.298 1466.89 183.621 1471.42 182.363C1475.97 181.105 1479.53 178.367 1480.2 176.145C1480.87 173.924 1478.94 170.547 1477.1 171.551C1475.66 172.427 1474 172.781 1472.36 172.565C1471.75 172.493 1471.13 172.021 1470.43 171.494C1469.37 170.69 1468.15 169.76 1466.55 169.938C1463.93 170.232 1462.08 169.238 1462.28 168.275C1462.39 167.774 1462.63 167.643 1463.41 167.22C1464.13 166.831 1465.32 166.193 1467.28 164.786C1471.38 161.855 1472.09 155.931 1472.09 155.931C1472.09 155.931 1469.99 158.305 1468.38 158.457C1467.8 157.138 1465.21 157.151 1463.74 157.158L1463.45 157.159C1462.05 157.159 1459.31 155.79 1459.17 154.643C1459.08 153.889 1460.08 153.341 1461.23 152.705C1461.84 152.375 1462.49 152.02 1463.04 151.601C1464.68 150.373 1467.35 148.081 1466.82 145.931C1466.44 144.378 1464.8 143.751 1463.55 143.275C1463.07 143.091 1462.65 142.929 1462.38 142.746C1461.41 142.087 1458.94 140.261 1458.94 138.557C1458.94 137.812 1459.08 136.981 1459.25 135.978C1459.47 134.689 1459.73 133.114 1459.81 131.072C1459.95 127.441 1459.94 123.739 1458.68 120.483C1457.42 117.227 1458.01 108.475 1458.01 108.475C1456.78 111.761 1456.16 115.29 1456.18 118.85C1456.32 124.479 1455.31 137.888 1453.59 139.298C1453.37 139.475 1453.13 139.663 1452.87 139.861C1451.1 141.238 1448.61 143.171 1448.31 146.397C1447.97 150.089 1452.87 152.402 1452.87 152.402C1452.87 152.402 1447.08 153.213 1445.46 156.702C1443.85 160.191 1448.61 166.774 1448.61 166.774C1448.61 166.774 1446.27 166.774 1443.33 166.551C1440.41 166.327 1436.13 163.954 1436.13 163.954C1436.13 163.954 1435.59 166.398 1440.53 169.147C1437.46 169.218 1436.8 172.667 1436.8 172.667C1433.85 170.487 1431.18 167.869 1428.87 164.887C1432.48 180.101 1450.41 184.848 1450.41 184.848C1449.41 185.846 1448.22 186.581 1446.93 186.998C1445.38 187.454 1443.28 187.429 1440.41 187.394H1440.38C1439.56 187.384 1438.68 187.373 1437.72 187.373C1433.45 187.373 1430.65 191.146 1430.72 193.368C1430.78 195.589 1432.72 199.666 1437.93 198.774C1437.71 200.309 1440 201.516 1443.3 203.257C1444.15 203.7 1445.06 204.179 1446 204.707C1440.93 203.966 1432.38 205.721 1429.44 206.634C1426.51 207.547 1420.43 206.117 1420.43 206.117L1422.64 216.635C1422.64 216.635 1426.44 216.929 1427.52 219.221C1428.59 221.513 1432.72 221.452 1432.72 221.452C1430.39 223.319 1427.53 224.187 1424.67 223.896C1426.83 227.511 1434.67 226.554 1439.88 225.918C1442.66 225.579 1444.7 225.331 1444.7 225.925C1444.7 227.629 1435.79 233.704 1431.68 235.256C1429.13 236.027 1426.44 236.162 1423.83 235.652C1424.36 232.873 1424.39 230.378 1423.37 229.921C1421.24 228.907 1416.63 230.662 1413.09 232.365C1409.56 234.069 1403.22 232.517 1403.22 232.517C1403.22 232.517 1408.56 231.037 1409.61 228.298C1406.96 227.766 1404.43 225.234 1402.41 223.214C1401.05 221.844 1399.92 220.709 1399.13 220.59C1398.21 220.449 1396.97 221.019 1395.7 221.612C1394.29 222.258 1392.84 222.931 1391.66 222.74C1389.94 222.464 1389.6 221.245 1389.16 219.675C1389.02 219.171 1388.86 218.631 1388.66 218.075C1388.22 216.943 1388.4 216.024 1388.59 214.984C1388.8 213.916 1389.03 212.72 1388.66 211.036C1388.2 209.004 1386.68 207.215 1385.36 205.65C1384.52 204.651 1383.75 203.743 1383.38 202.922C1382.44 200.812 1382.18 194.554 1382.18 190.558C1382.18 189.718 1382.24 188.439 1382.31 186.944C1382.57 181.323 1382.97 172.641 1380.91 172.697C1379.05 172.748 1379.13 175.157 1379.27 178.638C1379.31 180.022 1379.37 181.574 1379.31 183.215C1379.19 186.952 1378.63 188.647 1378.06 190.403C1377.75 191.359 1377.43 192.332 1377.18 193.662C1376.83 195.47 1377.1 195.955 1377.4 196.483C1377.73 197.058 1378.09 197.683 1377.7 200.112C1377.03 204.932 1375.16 209.447 1372.3 213.145C1370.64 213.198 1369.29 214.743 1368.02 216.206C1367.34 216.975 1366.69 217.721 1366.03 218.217C1364.09 219.657 1363.22 221.848 1364.69 222.446C1366.16 223.045 1367.3 224.667 1366.63 225.337C1365.96 226.006 1365.9 227.852 1367.9 228.146C1369.9 228.44 1371.3 232.741 1370.57 234.292C1370.11 235.261 1366.76 235.139 1363.47 235.019C1361.49 234.947 1359.53 234.875 1358.22 235.043C1356.66 235.245 1355.38 235.827 1354.26 236.336C1352.92 236.951 1351.8 237.46 1350.67 237.072C1350.06 236.86 1349.39 236.492 1348.72 236.123C1347.15 235.257 1345.58 234.395 1344.74 235.591C1343.85 236.847 1344.41 238.182 1344.93 239.406C1345.12 239.841 1345.3 240.263 1345.4 240.662C1345.55 241.206 1345.84 241.721 1346.14 242.276C1346.71 243.273 1347.34 244.401 1347.34 246.068C1342.27 245.349 1337.34 247.329 1334.26 248.566C1332.99 249.073 1332.05 249.456 1331.52 249.476C1331.07 249.494 1330.6 249.485 1330.13 249.475C1328.69 249.448 1327.28 249.421 1326.78 250.145C1326.11 251.109 1325.18 251.92 1322.91 250.886C1320.65 249.851 1316.83 250.51 1316.83 250.51C1316.83 250.51 1319.77 246.139 1323.04 240.662C1325.36 236.786 1324.83 234.459 1324.47 232.855C1324.31 232.193 1324.2 231.653 1324.31 231.179C1324.44 230.671 1325.19 229.942 1326.17 228.986C1328.32 226.889 1331.61 223.696 1331.92 219.322C1329.79 219.616 1324.61 224.657 1324.61 224.657C1324.61 224.657 1326.02 220.509 1327.01 217.841C1328.01 215.174 1327.48 210.062 1326.95 209.393C1326.9 209.331 1326.85 209.274 1326.79 209.223C1326.69 209.132 1326.56 209.041 1326.45 208.948C1325.76 208.43 1324.97 207.822 1326.41 206.502C1328.27 204.798 1328.89 200.062 1328.89 200.062C1328.89 200.062 1313.41 215.722 1312.5 215.427C1311.59 215.133 1310.77 211.431 1310.77 211.431C1312.39 211.313 1313.99 211.062 1315.57 210.681C1317.4 210.164 1319.11 205.356 1319.11 203.723C1319.11 202.692 1317.86 202.607 1316.82 202.536C1316.21 202.495 1315.67 202.459 1315.5 202.242C1315.2 201.878 1315.56 201.622 1316.13 201.211C1316.48 200.958 1316.91 200.646 1317.33 200.214C1318.42 199.078 1317.53 194.584 1314.46 193.479C1311.39 192.373 1306.18 190.071 1305.38 187.921C1304.57 185.771 1305.38 181.693 1305.38 181.693C1308.89 182.324 1312.28 183.574 1315.43 185.396C1320.17 188.286 1329.32 192.495 1341.6 185.994C1335.86 187.546 1326.25 185.7 1322.58 181.176C1325.98 181.846 1331.18 177.991 1332.45 171.176C1333.72 164.36 1331.06 164.512 1329.18 165.476C1327.31 166.439 1323.44 166.429 1321.87 164.583C1321.13 163.708 1319.81 163.146 1318.56 162.609C1317.17 162.013 1315.85 161.449 1315.47 160.526C1314.95 159.263 1313.29 157.715 1311.89 156.418C1311.35 155.913 1310.85 155.447 1310.47 155.049C1309.11 153.629 1307.66 152.087 1308.64 147.493C1310.71 148.805 1313.04 149.551 1315.42 149.667C1317.8 149.783 1320.18 149.268 1322.34 148.162C1322.34 148.162 1320.75 146.377 1316.2 144.673C1318.41 144.673 1328.69 135.413 1327.21 130.97C1325.75 126.528 1316.07 127.492 1313.67 128.526C1311.28 129.561 1306.9 128.749 1304.99 127.745C1303.65 127.032 1303.75 126.381 1303.89 125.507C1303.95 125.151 1304.02 124.757 1303.99 124.307C1303.94 123.586 1303.59 123.391 1303.2 123.165C1302.74 122.905 1302.2 122.606 1301.98 121.416C1301.59 119.195 1302.58 117.075 1304.29 118.374C1305.99 119.672 1308.7 120.149 1311.4 117.593C1314.11 115.037 1315.7 109.925 1313.4 108.373C1310.43 106.145 1308.1 103.019 1306.69 99.366C1304.99 95.147 1300.49 94.813 1300.49 94.813C1300.49 94.813 1300.69 80.704 1300.49 73.919L1300.47 73.259L1300.43 72.102C1300.22 64.357 1299.79 48.917 1298.59 48.917C1297.64 48.917 1297.75 56.205 1297.84 62.042C1297.88 64.2 1297.91 66.159 1297.89 67.478C1297.78 72.368 1295.88 79.588 1294.51 83.26C1293.14 86.932 1293.52 94.539 1293.52 94.539C1292.47 93.4659 1291.23 92.6567 1289.87 92.1666C1288.51 91.6766 1287.08 91.517 1285.66 91.699C1289.32 93.261 1291.22 100.097 1290.77 100.827C1290.7 100.942 1290.61 101.05 1290.52 101.152C1290.41 101.286 1290.25 101.449 1290.09 101.636C1288.75 103.129 1285.99 106.192 1285.87 109.164C1281.36 106.821 1273.85 109.164 1273.85 109.164C1273.85 109.164 1282.01 110.381 1284.72 114.438C1277.56 113.83 1274.75 118.12 1274.75 118.12C1274.75 118.12 1278.96 117.532 1283.5 117.238C1288.04 116.944 1292.98 117.826 1294.51 120.128C1291.85 125.757 1286.44 128.344 1283.29 128.344C1281.63 128.344 1280.16 129.145 1278.82 129.882C1277.64 130.528 1276.54 131.125 1275.48 131.092C1274.5 131.062 1273.52 131.305 1272.21 131.628L1272.2 131.629C1270.49 132.053 1268.22 132.614 1264.67 132.867C1267.24 134.023 1269.98 134.675 1272.75 134.794C1273.98 134.83 1274.74 135.451 1275.64 136.177C1276.54 136.912 1277.58 137.753 1279.36 138.202C1279.67 138.279 1279.95 138.346 1280.22 138.405C1280.55 138.48 1280.86 138.544 1281.13 138.602C1283.21 139.036 1284.1 139.22 1286.83 141.904C1288.98 144.015 1291.46 144.758 1293.01 145.222C1293.91 145.491 1294.48 145.667 1294.51 145.961C1294.57 146.762 1293.24 148.548 1290.5 149.217C1290.05 149.33 1289.51 149.471 1288.9 149.626L1288.88 149.632C1285.92 150.397 1281.58 151.519 1278.76 151.519C1276.82 151.519 1275.43 152.116 1274.03 152.713C1272.97 153.166 1271.91 153.619 1270.61 153.811C1269.38 153.995 1267.79 153.74 1266.26 153.493C1264.08 153.141 1262.02 152.809 1261.28 153.811C1260.02 155.515 1260.4 158.254 1264.74 160.698C1269.07 163.143 1277.22 167.078 1277.22 167.078C1277.22 167.078 1272.29 170.04 1270.22 171.744C1268.14 173.447 1265.54 174.411 1260.47 174.847C1255.4 175.283 1248.05 174.928 1248.05 174.928C1248.05 174.928 1251.92 178.701 1254.66 179.077C1257.08 179.41 1257.84 180.317 1258.95 181.658C1259.1 181.829 1259.24 182.006 1259.4 182.19C1260.8 183.823 1272.56 183.965 1279.77 183.965C1286.98 183.965 1289.3 181.146 1289.3 181.146C1289.3 181.146 1288.57 185.203 1286.17 185.669C1284.8 185.935 1284.12 186.426 1282.98 187.264C1281.71 188.204 1280.39 189.056 1279.03 189.817C1274.56 192.333 1273.01 192.414 1266.24 192.333C1261.58 192.277 1258.63 191.82 1254.3 191.148C1252.32 190.841 1250.06 190.49 1247.21 190.112C1254.53 197.82 1268.84 196.786 1268.84 196.786C1265.11 199.076 1261 200.472 1256.76 200.883C1262.72 203.807 1267.97 202.653 1271.08 201.966C1272.22 201.714 1273.08 201.526 1273.58 201.624C1274.55 201.812 1275.69 202.54 1276.96 203.363L1276.97 203.365C1278.15 204.13 1279.47 204.977 1280.89 205.549C1282.36 206.135 1283.31 206.991 1284.31 207.899C1285.35 208.829 1286.44 209.814 1288.21 210.62C1290.17 211.514 1291.97 211.686 1293.12 211.795H1293.13C1294.03 211.881 1294.54 211.929 1294.42 212.253C1294.25 212.739 1293.21 212.875 1291.81 213.058C1291.09 213.153 1290.26 213.262 1289.42 213.44C1288.47 213.637 1287.62 214.188 1286.67 214.817C1285.1 215.838 1283.23 217.061 1280.14 217.294C1277.66 217.48 1274.69 216.827 1272.09 216.255V216.254C1269.43 215.672 1267.16 215.174 1266.18 215.732C1264.25 216.837 1265.58 223.44 1267.52 227.294C1269.45 231.149 1278.4 234.252 1283.67 235.216C1288.95 236.179 1292.14 238.917 1292.28 241.301C1292.42 243.684 1282.6 249.973 1278.4 251.079C1276.01 251.708 1273.97 251.48 1271.89 251.246C1270.31 251.07 1268.71 250.891 1266.91 251.079C1262.74 251.515 1259.38 256.566 1261.78 261.525C1264.18 266.485 1273.34 271.881 1273.34 271.881C1273.34 271.881 1268.67 274.031 1265.26 273.433C1261.85 272.834 1255.64 273.808 1259.58 279.366C1262.13 282.956 1270.9 284.894 1276.8 285.827L1276.21 286.324C1276.21 286.324 1268.79 292.916 1263.46 296.03C1258.13 299.144 1245.14 303.384 1245.14 303.384C1245.14 303.384 1250.79 295.27 1250.04 292.602C1249.3 289.934 1246.89 288.768 1242.43 289.955C1253.52 284.032 1252.11 276.181 1251.24 275.583C1250.38 274.984 1248.77 275.065 1246.68 276.84C1244.57 278.616 1236.79 280.249 1233.72 279.66C1230.65 279.072 1224.78 275.938 1224.78 275.938C1224.78 275.938 1229.18 276.749 1230.92 275.938C1231.42 275.703 1231.85 275.434 1232.28 275.162C1233.35 274.495 1234.44 273.81 1236.72 273.565C1239.93 273.22 1243.39 268.747 1240.86 262.002C1251.07 260.826 1259.61 249.638 1258.23 248.898C1257.62 248.579 1256.33 249.566 1254.67 250.823C1252.49 252.481 1249.69 254.608 1247.07 254.821C1249.41 247.782 1250.73 238.593 1247.48 237.782C1245.55 237.302 1243.94 239.458 1242.51 241.379C1241.52 242.709 1240.61 243.926 1239.74 244.08C1238.71 244.262 1237.6 244.944 1236.46 245.649C1235.25 246.402 1233.98 247.182 1232.72 247.407C1231.29 247.664 1230.48 247.594 1228.1 247.387C1226.42 247.243 1223.98 247.032 1220.01 246.819C1225.72 245.926 1229.99 239.039 1230.79 233.775C1231.59 228.511 1230.85 226.077 1229.26 225.56C1228.37 225.271 1227.51 225.74 1226.66 226.211C1225.97 226.584 1225.29 226.959 1224.59 226.959C1222.73 226.785 1220.93 226.155 1219.31 225.114C1217.49 224.099 1212.1 225.114 1212.1 225.114C1212.1 225.114 1217.97 220.296 1219.5 217.405C1220.65 215.25 1223.14 212.727 1227.21 208.602C1228.59 207.195 1230.16 205.602 1231.92 203.774C1229.86 203.409 1223.44 207.111 1223.44 207.111C1223.44 207.111 1222.57 203.703 1220.18 202.587C1218.5 201.805 1214.82 203.209 1212.6 204.054C1211.65 204.415 1210.97 204.673 1210.83 204.615C1210.37 204.423 1209.96 203.601 1210.37 201.796C1212.1 201.796 1215.04 193.499 1215.44 189.797C1215.84 186.095 1216.11 176.906 1214.77 174.827C1213.43 172.748 1212.36 170.831 1212.94 168.011C1213.52 165.191 1212.03 162.382 1208.13 157.646C1208.13 157.646 1207.27 176.46 1207.01 178.093C1206.88 178.859 1206.66 179.297 1206.19 180.2C1205.66 181.223 1204.82 182.842 1203.47 186.207C1202.07 189.682 1201.97 195.849 1201.89 200.229C1201.83 203.838 1201.79 206.234 1201.07 204.91C1200.14 203.42 1198.87 202.225 1197.4 201.446C1195.92 200.667 1194.29 200.329 1192.66 200.467C1189.59 200.842 1189.45 205.021 1190.65 206.948L1190.9 207.347V207.35C1192.32 209.597 1195.74 215.051 1198.36 219.951C1201.16 225.174 1199.8 228.288 1199.8 228.288C1199.8 228.288 1197.59 228.734 1192.48 232.061C1187.38 235.388 1190.28 243.847 1190.28 243.847C1190.28 243.847 1184.95 240.804 1181 241.321C1186.75 247.924 1199.49 250.368 1199.49 250.368C1199.49 250.368 1188.21 254.517 1181.53 253.695C1175.1 252.903 1160.69 252.95 1159.35 252.955H1159.25C1158.9 252.955 1173.6 262.915 1173.6 262.915C1173.6 262.915 1167.2 261.059 1163.26 263.209C1167.34 267.733 1178.55 267.875 1178.55 267.875C1181.99 269.959 1185.8 271.158 1189.72 271.384C1189.66 274.822 1197.5 278.991 1197.5 278.991C1197.5 278.991 1185.09 285.512 1180.81 286.253C1178.88 286.588 1177.41 286.072 1176.14 285.628C1174.62 285.092 1173.4 284.661 1172 285.959C1169.46 288.332 1171.48 293.363 1176.41 293.515C1172.94 294.397 1156.91 298.85 1156.91 298.85C1156.91 298.85 1169.6 300.179 1171.87 301.365C1173.35 302.141 1178.1 301.711 1182.4 301.321L1182.41 301.32C1184.68 301.114 1186.84 300.919 1188.32 300.919C1192.61 300.919 1191.98 303.88 1191.12 305.808C1190.27 307.735 1178.33 312.623 1171.63 313.516C1164.94 314.408 1156.94 315.737 1156.94 315.737C1156.94 315.737 1161.51 315.889 1167.49 319.885C1173.47 323.882 1184.18 326.549 1184.18 326.549L1173.77 330.849C1182.15 330.964 1190.51 331.908 1198.74 333.669C1193.93 338.112 1177.51 348.335 1163.89 350.708C1166.29 352.737 1181.64 360.932 1194.59 352.636C1190.45 359.299 1176.03 367.008 1169.62 367.008C1163.22 367.008 1157.75 361.074 1157.75 361.074C1157.75 361.074 1158.01 372.038 1169.89 376.785C1164.96 376.633 1155.61 379.747 1155.61 379.747C1155.61 379.747 1178.84 385.082 1199.13 379.006C1195.67 387.749 1184.98 390.863 1177.1 393.084C1173.16 394.195 1170.52 394.195 1167.24 394.195C1163.95 394.195 1160.01 394.195 1153.48 395.305C1167.49 407.304 1182.05 406.462 1182.05 406.462C1182.05 406.462 1178.98 410.904 1159.08 413.278C1147.63 414.645 1138.47 411.437 1132.77 408.47C1133.01 408.397 1133.22 408.339 1133.42 408.298C1134.69 408.045 1136.64 408.477 1138.54 408.896C1140.65 409.362 1142.68 409.812 1143.62 409.29C1145.4 408.298 1147.79 400.169 1137.6 397.964C1143.55 396.826 1157.51 387.477 1157.51 387.477C1151.82 388.781 1146.01 389.392 1140.2 389.301C1130.55 389.12 1118.99 387.705 1115.3 385.652C1111.93 383.779 1112.74 378.742 1113.1 376.625L1113.11 376.48C1113.14 376.337 1113.16 376.21 1113.18 376.101C1113.4 374.458 1113.81 374.361 1117.87 374.714C1118.78 374.794 1119.7 374.892 1120.61 374.991C1123.74 375.326 1126.85 375.661 1130.14 375.269C1134.38 374.763 1134.92 372.689 1134.29 368.888C1133.93 366.7 1132.39 366.008 1130.5 365.158C1129.11 364.531 1127.53 363.817 1126.08 362.354C1123.7 359.947 1121.87 360.432 1119.95 360.943C1119.11 361.164 1118.26 361.39 1117.34 361.39C1114.28 361.39 1112.87 359.462 1112.18 356.223C1113.05 356.271 1116.68 352.727 1116.47 349.537C1116.26 346.346 1117.72 345.784 1117.72 345.784C1117.72 345.784 1121.05 343.801 1119.86 338.335C1118.95 334.109 1116.53 330.546 1114.66 327.787V327.785C1114.11 326.978 1113.61 326.239 1113.2 325.573C1112.02 323.612 1112.11 321.137 1112.22 318.143C1112.28 316.646 1112.34 315.019 1112.25 313.262C1112.07 309.894 1111.45 309.012 1110.96 308.324C1110.69 307.935 1110.46 307.608 1110.38 306.929C1110.31 306.357 1110.37 305.509 1110.43 304.598C1110.57 302.519 1110.74 300.116 1109.47 299.937C1108.6 299.814 1108.58 300.857 1108.55 302.205C1108.53 303.669 1108.51 305.492 1107.37 306.575C1105.18 308.656 1105.08 313.719 1105.23 315.592C1105.37 317.267 1105.21 318.959 1104.74 320.562C1104.28 322.164 1103.53 323.645 1102.54 324.914C1099.67 328.812 1099.25 334.749 1099.34 337.024C1099.4 338.401 1098.41 339.605 1097.5 340.739C1096.89 341.479 1096.31 342.19 1096.06 342.899C1095.43 344.695 1096.83 348.448 1096.83 348.448C1095.05 349.528 1093.51 351.032 1092.32 352.852C1090.66 355.349 1090.33 355.632 1087.86 357.767L1087.29 358.256L1086.78 358.694C1086.44 358.989 1086.07 359.313 1085.66 359.67C1081.08 363.7 1081.02 367.189 1082.24 367.723C1083.47 368.257 1085.33 369.935 1088.74 374.34C1091.41 377.789 1094.81 378.303 1097.14 378.657C1097.78 378.755 1098.35 378.84 1098.79 378.973C1100.84 379.583 1103.72 384.369 1103.72 384.369C1103.72 384.369 1103.17 383.689 1098.1 387.788C1097.12 388.583 1096.28 389.318 1095.51 389.991L1095.48 390.013L1095.47 390.02C1092.28 392.809 1090.28 394.554 1084.62 395.161C1077.58 395.918 1078.67 402.985 1078.67 402.985C1078.67 402.985 1075.86 402.909 1076.61 406.453C1077.37 409.998 1086.76 418.238 1091.88 417.627C1096.99 417.017 1098.23 420.207 1098.23 420.207C1098.23 420.207 1098.78 423.849 1091.53 425.298C1084.27 426.748 1081 429.099 1081 429.099C1081 429.099 1065.13 409.117 1060.06 405.239C1061.16 402.202 1058.9 394.523 1058.9 394.523C1058.9 394.523 1066.08 399.483 1069.23 399.767C1072.37 400.051 1077.44 398.623 1076.96 395.89C1076.55 393.567 1075.06 393.213 1072.48 392.602C1072.25 392.547 1072 392.49 1071.75 392.429C1071.52 392.371 1071.27 392.309 1071.01 392.241C1067.52 391.333 1063.69 382.587 1064.85 381.449C1065.42 380.888 1067.25 380.953 1069.59 381.036C1072 381.122 1074.95 381.227 1077.65 380.693C1082.98 379.639 1084.56 375.373 1083.81 373.396C1083.34 372.176 1081.59 372.143 1078.44 372.082C1076.49 372.044 1073.99 371.996 1070.94 371.648C1062.96 370.74 1053.17 365.281 1047.84 360.627C1042.5 355.973 1036.68 350.265 1035.58 348.143C1034.5 346.02 1031.83 335.831 1034.7 339.708C1037.57 343.586 1043.18 347.109 1044.06 345.257C1044.96 343.405 1046.8 343.121 1050.09 343.177C1051.36 343.198 1052.42 343.876 1053.43 344.521C1055.01 345.537 1056.47 346.469 1058.43 344.619C1061.65 341.595 1051.45 335.353 1051.45 335.353C1051.45 335.353 1052.68 335.783 1056.04 335.505C1057.76 335.362 1058.62 334.923 1059.57 334.436C1060.46 333.979 1061.44 333.48 1063.29 333.147C1067.12 332.46 1068.97 330.941 1067.6 329.27C1066.47 327.884 1065.93 327.89 1062.24 327.933C1061.48 327.942 1060.58 327.952 1059.53 327.952C1053.33 327.952 1040.39 321.876 1036.17 318.027C1031.96 314.177 1030.69 308.344 1033.06 307.283C1033.93 306.89 1035.11 307.699 1036.67 308.77C1039.32 310.591 1043.07 313.17 1048.33 311.895C1044.91 311.34 1040.3 305.459 1040.3 305.459C1041.78 305.256 1043.22 304.831 1044.59 304.196C1045.78 303.608 1046.52 302.845 1047.2 302.138C1047.72 301.602 1048.2 301.099 1048.83 300.728C1049.85 300.128 1051.13 300.687 1052.03 301.079C1052.42 301.249 1052.74 301.387 1052.93 301.387C1053.58 301.387 1054.34 299.716 1052.16 297.031C1051 295.599 1049.56 295.045 1048.04 294.456C1046.71 293.941 1045.31 293.398 1043.95 292.218C1042.31 290.791 1040.5 290.794 1038.87 290.796C1037.61 290.798 1036.45 290.8 1035.56 290.137C1033.51 288.618 1031.09 281.426 1031.09 281.426C1031.09 281.426 1037.61 280.968 1040.17 279.296C1040.87 278.887 1041.42 278.214 1041.71 277.398C1042.02 276.583 1042.05 275.676 1041.8 274.836C1043.96 272.763 1045.71 270.208 1046.92 267.338C1048.09 264.274 1048.6 260.95 1048.42 257.628C1047.25 260.572 1045.25 263.008 1042.71 264.564C1039.22 266.777 1027.56 264.696 1026.74 263.78C1025.91 262.865 1026.46 261.27 1026.46 261.27C1026.46 261.27 1028.31 260.361 1029 256.713C1029.57 253.599 1028.27 250.298 1026.96 247.005L1026.61 246.107C1026.5 245.841 1026.4 245.575 1026.3 245.31C1025.46 243.086 1025.35 240.907 1025.25 238.851C1025.17 237.348 1025.1 235.912 1024.75 234.573C1023.91 231.403 1023.4 221.901 1023.29 216.838C1023.18 211.774 1022.04 201.135 1022.04 201.135C1022.04 201.135 1020.62 210.2 1019.94 213.342C1019.56 215.085 1017.92 218.061 1016.33 220.962C1015.05 223.289 1013.79 225.568 1013.24 227.124C1012.42 229.442 1013.18 232.475 1013.83 235.007C1014.16 236.293 1014.45 237.449 1014.49 238.318C1014.51 238.854 1014.51 239.675 1014.51 240.677C1014.51 244.501 1014.51 250.944 1015.74 254.077C1016.49 256.014 1017.56 257.127 1018.42 258.043C1019.33 258.995 1020.02 259.734 1019.98 260.964C1019.89 263.378 1018.82 265.93 1017.97 266.846C1017.31 267.544 1016.59 267.061 1015.57 266.365C1015.24 266.148 1014.89 265.91 1014.5 265.681C1012.86 264.717 1009.89 263.808 1008.94 265.681C1007.99 267.553 1005.57 268.413 1003.78 268.566C1002.79 268.652 1002.23 268.054 1001.74 267.512C1001.34 267.086 1000.98 266.693 1000.46 266.693C999.273 266.693 998.544 272.908 1002.01 276.404C1005.4 279.83 1011.01 281.651 1012.12 282.009L1012.18 282.029C1012.31 282.07 1012.45 282.11 1012.6 282.152C1013.61 282.423 1015.03 282.808 1014.36 284.463C1014.16 284.959 1014.18 285.49 1014.2 286.012C1014.23 287.509 1014.28 288.943 1009.26 289.319C1002.48 289.825 1001.24 293.674 1001.24 293.674L1004.56 293.369C1004.56 293.369 1002.92 297.566 1000.36 297.926C998.832 298.142 998.175 297.612 997.626 297.173C997.257 296.879 996.942 296.625 996.447 296.664C995.214 296.761 994.758 301.88 999.408 306.187C1004.06 310.494 1012.96 308.316 1012.96 308.316C1012.96 308.316 1012.18 312.062 1005.93 314.392C1001.95 315.878 999.696 320.166 997.959 323.486C996.969 325.371 996.141 326.945 995.258 327.515C992.81 329.089 979.617 331.871 975.327 330.705C978.199 334.916 985.361 334.763 985.361 334.763C982.787 335.948 980.064 336.683 977.287 336.941C974.484 337.27 971.65 336.835 969.033 335.672C969.033 335.672 973.041 342.018 977.65 342.358C982.258 342.698 983.731 342.455 986.228 342.004C987.569 341.762 988.355 342.029 989.19 342.313C989.911 342.558 990.668 342.815 991.848 342.767C993.055 342.718 994.399 342.259 995.745 341.802V341.8C997.239 341.292 998.724 340.784 1000.01 340.839C1001.38 340.897 1002.68 340.161 1003.67 339.605C1004.47 339.157 1005.06 338.825 1005.3 339.119C1005.85 339.778 1002.14 347.622 997.914 351.527C994.466 354.72 995.406 357.574 995.862 358.964C995.97 359.274 996.042 359.511 996.042 359.663C996.042 360.495 993.44 362.632 988.108 363.388C984.865 363.848 983.391 363.214 982.072 362.647C981.223 362.282 980.438 361.945 979.286 361.945C977.875 361.945 976.278 363.046 974.665 364.158C972.914 365.365 971.143 366.585 969.57 366.426C966.918 366.158 963.061 367.76 960.123 368.981L960.122 368.982L959.593 369.202L958.955 369.464C957.928 369.88 956.581 370.146 955.076 370.182L955.067 370.155C954.332 367.938 954.018 361.879 953.812 357.945L953.757 356.876C953.697 355.761 953.698 354.602 953.7 353.497C953.704 350.834 953.707 348.485 952.848 347.817C952.148 347.271 952.156 345.193 952.163 343.512C952.167 342.281 952.171 341.262 951.895 341.214C951.243 341.101 950.585 344.516 950.432 349.102C950.323 352.35 949.002 361.242 946.719 367.924C946.388 367.716 946.064 367.494 945.749 367.258C945.981 367.718 946.226 368.163 946.484 368.593C945.596 371.061 944.571 373.174 943.423 374.509C944.081 374.679 945.795 373.728 945.795 373.728C945.795 373.728 942.521 378.648 940.404 378.591C943.729 379.6 947.305 376.078 947.305 376.078C947.305 376.078 947.407 380.217 946.795 381.74C946.183 383.263 936.155 384.928 934.697 384.005C933.238 383.082 931.371 382.216 930.764 382.306C930.158 382.397 931.468 385.437 933.584 386.893C935.702 388.348 939.889 389.299 939.889 389.299C939.889 389.299 937.466 391.479 938.629 393.999C939.792 396.519 940.542 396.405 940.542 396.405C940.542 396.405 935.35 399.372 934.345 402.838C933.34 406.303 934.946 410.001 936.895 410.895C936.186 412.594 927.617 417.277 924.654 416.716C921.691 416.156 921.084 416.829 921.125 418.058C921.166 419.287 924.404 421.082 928.536 420.804C930.351 421.756 929.444 422.928 928.184 422.871C931.106 425.057 938.517 421.92 938.517 421.92C938.517 421.92 935.895 425 935.793 426.512C940.832 426.286 942.546 422.26 942.546 422.26C942.546 422.26 942.403 425.018 941.013 429.075C939.377 429.984 938.329 430.759 938.394 431.229C938.476 431.818 938.935 432.257 939.599 432.603C939.186 433.501 938.739 434.38 938.262 435.238C934.279 442.401 929.592 444.417 929.592 444.417C931.124 444.477 932.657 444.42 934.182 444.247C933.83 446.512 936.599 448.669 940.077 447.774C938.567 449.173 938.264 450.999 938.012 452.518C937.912 453.127 937.819 453.687 937.66 454.15C937.104 455.77 935.288 456.896 933.172 457.457C932.147 457.728 931.388 457.497 930.395 457.194C929.337 456.871 928.012 456.468 925.817 456.506H924.706C924.706 456.506 926.148 454.75 927.363 453.522C928.576 452.293 928.572 450.351 927.26 448.482C926.252 447.045 924.827 447.025 923.564 447.007H923.559C923.182 447.002 922.82 446.997 922.487 446.953C922.095 446.926 921.714 446.801 921.372 446.588C921.03 446.376 920.734 446.081 920.508 445.725C920.508 445.725 928.367 443.459 929.612 441.619C930.856 439.779 935.258 432.146 933.075 429.644C931.946 428.349 931.059 429.013 930.046 429.77C929.101 430.477 928.048 431.265 926.588 430.617C926.183 430.438 925.829 430.274 925.511 430.126C923.454 429.17 922.9 428.913 919.697 429.717L921.446 427.967C921.446 427.967 917.652 425.618 913.719 423.715C909.787 421.812 907.94 419.349 907.94 419.349C907.94 419.349 909.553 416.773 910.894 416.365C911.783 416.101 912.579 415.542 913.174 414.762C913.77 413.982 914.136 413.018 914.224 412C914.338 411.146 914.528 410.317 914.701 409.56C915.088 407.869 915.394 406.532 914.592 406.071C914.011 405.737 912.838 406.062 911.545 406.42H911.539C910.245 406.778 908.831 407.17 907.772 406.966C905.656 406.558 899.704 402.487 898.159 400.884C896.613 399.282 893.568 399.129 893.568 399.129C893.568 399.129 893.736 396.705 893.028 395.771C892.318 394.837 895.578 391.706 896.725 392.153C897.872 392.6 907.14 394.837 911.006 391.445C906.706 391.966 900.453 388.014 900.453 388.014C900.453 388.014 909.16 387.045 911.041 384.469C911.369 384.021 911.721 383.572 912.07 383.127C913.731 381.01 915.331 378.971 913.898 377.493C912.934 376.498 911.689 377.083 910.521 377.632C909.589 378.07 908.704 378.486 908.048 378.059L907.669 377.812C905.992 376.71 902.557 374.455 900.357 374.147C907.579 373.36 914.872 364.781 915.147 363.179C915.238 362.653 915.25 362.131 915.264 361.595C915.291 360.495 915.321 359.333 916.019 357.952C917.06 355.897 916.927 352.584 916.927 352.584C916.927 352.584 911.031 361.384 903.667 362.896C896.302 364.407 890.763 363.847 887.035 360.63C883.306 357.414 884.668 351.508 884.668 351.508C886.833 352.059 889.046 352.34 891.268 352.347C889.227 348.825 887.086 348.485 887.086 348.485C887.086 348.485 890.615 348.094 889.636 344.317C891.854 345.716 899.286 343.751 901.203 340.354C899.714 340.49 898.383 340.546 898.383 340.546C898.699 340.314 898.963 340.004 899.155 339.641C899.347 339.278 899.461 338.871 899.49 338.451C899.592 336.996 894.144 334.057 894.144 334.057C894.144 334.057 894.425 332.925 893.895 332.319C893.538 331.955 893.089 331.722 892.609 331.651C892.609 331.651 892.936 330.558 891.477 328.542C890.019 326.526 888.416 326.39 888.416 326.39C888.416 326.39 888.416 323.146 888.59 323.117C888.64 323.109 888.726 323.183 888.845 323.283C889.144 323.536 889.645 323.959 890.258 323.684C891.115 323.298 890.936 321.051 890.432 318.367C890.088 316.542 888.698 314.262 887.59 312.444L887.589 312.443C887.068 311.588 886.609 310.835 886.351 310.281C886.142 309.848 885.914 309.426 885.667 309.018C885.001 307.879 884.345 306.755 884.311 304.619C884.265 301.725 884.138 300.055 883.801 298.911C883.677 298.491 883.477 298.131 883.273 297.763V297.762L883.272 297.76C882.92 297.126 882.554 296.467 882.541 295.44C882.52 293.815 881.883 288.645 881.328 288.447C881.046 288.346 880.992 289.48 880.928 290.812C880.867 292.112 880.796 293.6 880.496 294.319C880.053 295.381 880.083 297.471 880.112 299.481C880.122 300.225 880.132 300.958 880.119 301.623C880.068 304.086 879.991 306.464 879.44 307.852C878.889 309.239 873.957 320.824 873.957 320.824C873.957 320.824 877.156 318.321 877.961 316.606C877.283 320.626 876.804 322.364 876.804 322.364H878.334C878.334 322.364 873.825 327.761 871.739 329.55C870.477 330.632 870.645 333.407 870.788 335.786C870.882 337.342 870.964 338.729 870.632 339.363C869.791 340.965 864.853 340.331 864.853 340.331C866.491 341.369 868.258 342.133 870.097 342.596C866.332 343.978 857.529 343.643 854.974 340.897C860.182 348.36 866.266 348.768 866.266 348.768C866.266 348.768 860.013 350.263 855.556 348.655C858.646 352.086 864.792 355.149 868.694 354.317C867.715 357.001 858.376 366.208 858.376 366.208C858.376 366.208 862.038 365.834 863.92 363.745C863.981 365.024 864.128 366.296 864.358 367.55C864.358 367.55 866.98 364.787 868.827 362.924C870.673 361.061 876.758 351.095 876.758 351.095C876.758 351.095 872.59 364.119 868.892 369.713C865.195 375.307 855.388 384.112 855.388 384.112C855.388 384.112 857.804 384.526 859.315 383.665C861.299 386.796 867.011 385.754 867.011 385.754C867.011 385.754 864.323 391.536 863.67 393.999C863.017 396.462 856.662 401.275 856.662 401.275C856.662 401.275 860.339 394.673 859.029 393.665C858.464 393.231 857.564 393.979 856.298 395.031C854.626 396.421 852.316 398.342 849.303 398.761C844.009 399.497 838.592 397.028 838.592 397.028C838.592 397.028 843.095 393.518 843.182 391.932C843.219 391.245 842.177 390.558 840.874 389.699C839.17 388.577 837.021 387.161 836.261 385.069C834.92 381.378 833.201 375.37 833.201 375.37C833.201 375.37 837.792 382.459 840.025 383.863C840.934 384.435 841.916 385.079 842.842 385.688L842.869 385.706L842.874 385.709C844.211 386.588 845.431 387.388 846.146 387.782C847.359 388.45 853.475 388.229 853.475 388.229L846.957 385.432C846.957 385.432 854.28 384.797 854.347 381.927C854.38 380.473 852.854 379.535 850.799 378.271C848.796 377.039 846.29 375.497 844.233 372.867C840.066 367.539 834.792 361.225 834.792 361.225C834.792 361.225 838.148 362.46 839.056 363.541C839.964 364.623 843.091 364.996 844.666 364.77C845.046 364.715 845.482 364.72 845.952 364.724C847.434 364.74 849.251 364.759 850.68 362.941C848.528 363.428 847.283 362.72 846.982 362.012C846.681 361.304 844.329 359.883 842.785 359.181C841.854 358.758 841.165 357.736 840.252 356.378C839.648 355.482 838.946 354.439 838.01 353.326C835.659 350.529 832.635 344.634 832.635 344.634C832.635 344.634 837.541 344.108 840.127 339.855C842.713 335.603 840.163 332.693 839.76 332.693C839.69 332.693 839.563 332.711 839.39 332.736C838.57 332.854 836.704 333.123 834.818 332.319C833.647 331.82 832.739 330.991 831.988 330.305C831.274 329.653 830.701 329.131 830.182 329.148C830.584 326.951 828.401 324.34 827.494 323.406C826.586 322.472 826.183 320.235 826.387 319.748C826.439 319.625 826.894 319.508 827.543 319.342C829.446 318.856 833.017 317.943 833.017 315.162C833.017 311.43 830.094 309.08 827.376 308.82C825.885 308.677 825.543 306.917 825.168 304.982C824.858 303.389 824.526 301.677 823.51 300.649C822.357 299.482 822.174 293.322 822.003 287.532C821.84 282.03 821.687 276.861 820.72 276.624C819.666 276.365 819.515 277.403 819.277 279.044C819.066 280.489 818.788 282.403 817.763 284.307C816.171 287.264 816.355 289.889 816.54 292.534C816.609 293.525 816.679 294.52 816.655 295.536C816.608 297.592 816.131 299.379 815.702 300.987C815.355 302.292 815.038 303.479 815.008 304.596C814.971 305.993 814.334 306.927 813.72 307.827C813.239 308.532 812.773 309.215 812.621 310.083C812.477 310.904 812.453 311.551 812.43 312.148C812.399 312.987 812.371 313.726 812.02 314.709C811.724 315.532 810.366 316.354 809.051 317.149C807.679 317.979 806.356 318.779 806.338 319.522C806.302 320.977 808.189 325.75 810.606 325.971C807.857 326.68 807.539 328.137 807.257 329.428C807.077 330.252 806.911 331.008 806.139 331.458C804.765 332.258 802.392 333.346 800.531 334.199L800.526 334.202L800.519 334.205L800.513 334.207C799.695 334.582 798.977 334.911 798.488 335.15C796.886 335.931 793.714 338.768 793.75 340.597C793.785 342.426 798.116 343.655 798.116 343.655L794.036 347.947C794.036 347.947 798.34 346.939 800.961 345.523C803.583 344.108 807.144 344.923 807.144 344.923C807.144 344.923 804.052 350.744 800.289 353.507C798.667 354.698 797.797 355.809 797.07 356.739C796.109 357.968 795.393 358.881 793.515 359.249C792.868 359.38 792.289 359.42 791.739 359.457H791.735C790.408 359.548 789.253 359.627 787.721 360.948C787.018 361.554 786.113 362.451 785.168 363.385L785.165 363.389L785.162 363.391C783.2 365.334 781.076 367.437 780.26 367.437C778.834 367.376 777.417 367.731 776.153 368.467C774.889 369.203 773.82 370.294 773.053 371.632C776.735 369.673 779.352 369.452 781.27 371.242L777.236 375.998C779.389 374.813 781.603 373.768 783.866 372.867C784.672 372.563 785.42 372.212 786.152 371.868C788.263 370.876 790.243 369.946 793.087 370.404C791.679 374.152 788.905 379.413 786.538 381.728C785.865 382.387 784.947 383.169 783.932 384.034C781.379 386.207 778.216 388.902 776.807 391.462C781.04 388.835 783.61 387.266 785.477 387.266C787.344 387.266 793.745 384.526 797.978 380.217C802.212 375.908 808.965 367.289 808.965 367.289C808.965 367.289 807.944 374.566 805.69 379.265C804.593 381.551 803.419 383.069 802.38 384.412C801.283 385.831 800.336 387.053 799.794 388.778C799.092 391.012 797.048 392.875 795.431 394.349C794.618 395.09 793.913 395.733 793.541 396.275C793.156 396.835 792.461 397.376 791.655 398.001C790.131 399.185 788.217 400.671 787.293 403.161C791.124 401.202 802.665 401.145 802.665 401.145C802.665 401.145 793.995 407.136 787.798 411.552C781.601 415.969 774.491 417.543 772.273 417.26C770.054 416.977 763.25 417.707 761.052 419.525C764.581 419.632 766.545 419.745 767.504 421.314C768.034 422.181 768.672 422.174 769.486 422.165C770.143 422.158 770.916 422.149 771.839 422.599C773.905 423.607 777.031 423.885 782.677 422.379C788.323 420.872 796.234 419.242 796.234 419.242C796.234 419.242 786.91 426.795 781.953 427.243C779.74 427.442 777.452 427.363 775.455 427.294C772.981 427.208 770.951 427.138 770.06 427.633C771.421 430.323 773.787 430.77 775.858 431.031C777.929 431.291 781.096 433.551 781.096 433.551L776.307 436.178C776.307 436.178 779.332 436.908 784.876 435.679C790.42 434.451 793.347 432.486 793.347 432.486C793.347 432.486 792.873 435.844 790.757 437.582C789.825 438.347 788.991 438.193 788.083 438.026C786.928 437.812 785.652 437.577 783.901 439.184C781.906 441.016 780.501 440.815 779.431 440.662C778.824 440.575 778.326 440.503 777.888 440.827C777.366 441.213 776.593 441.029 775.696 440.816C774.517 440.535 773.124 440.204 771.809 441.053C769.493 442.548 768.044 445.674 767.642 447.848C767.477 448.735 767.538 449.234 767.591 449.654C767.665 450.263 767.72 450.707 767.035 451.931C765.877 453.997 764.719 455.288 762.194 456.075C760.874 456.487 760.039 457.661 759.297 458.703C758.621 459.654 758.024 460.495 757.206 460.549L756.872 460.57H756.869C755.132 460.684 752.497 460.857 751.412 461.223C754.534 457.751 754.983 450.815 754.983 450.815C754.983 450.815 750.148 456.579 749.541 458.533C751.071 452.87 748.735 434.643 748.735 434.643C748.735 434.643 746.465 444.213 744.956 451.54C744.04 455.969 742.913 460.341 741.579 464.637C741.579 464.637 738.101 468.034 737.443 468.034C737.152 468.034 736.947 467.844 736.74 467.652C736.479 467.41 736.216 467.167 735.78 467.309C735 467.564 734.316 472.74 737.141 476.041C735.041 478.595 731.848 478.872 730.909 478.261C730.428 477.947 729.166 477.699 727.906 477.451L727.902 477.45L727.9 477.449C726.706 477.215 725.516 476.981 724.993 476.692C723.917 476.098 718.796 476.432 716.425 477.383C714.053 478.334 711.181 478.408 710.61 477.587C710.27 477.097 708.661 477.059 707.078 477.021C706.006 476.995 704.946 476.97 704.296 476.805C702.684 476.398 705.035 473.521 707.086 472.213C709.136 470.905 709.305 465.684 708.427 464.756C708.023 464.328 706.637 464.405 705.2 464.484C703.518 464.577 701.764 464.674 701.44 463.969C700.838 462.661 706.076 461.245 707.351 461.398C708.626 461.551 715.047 460.911 715.047 460.911C715.047 460.911 711.788 458.788 709.504 458.487C712.054 457.406 713.37 452.854 713.4 451.127C713.412 450.47 714.245 449.365 715.432 447.79C717.367 445.221 720.245 441.402 722.034 436.246L721.679 436.572L721.245 436.972C716.785 441.089 708.674 448.572 702.414 447.661C709.605 445.962 715.164 437.469 715.164 437.469C715.164 437.469 706.162 443.884 700.955 441.5C695.748 439.116 695.009 439.558 695.009 439.558C695.009 439.558 696.197 436.976 698.267 436.416C700.338 435.855 700.863 433.228 699.93 432.078C699.43 431.463 698.541 431.081 697.744 430.74C697.053 430.443 696.432 430.177 696.197 429.813C695.946 429.425 697.052 429.388 698.297 429.345C699.558 429.303 700.961 429.255 701.241 428.834C701.797 427.996 704.668 428.217 705.953 428.664C707.239 429.111 710.309 427.531 710.309 427.531C709.373 426.487 708.223 425.71 706.958 425.266C704.816 424.513 705.046 423.732 705.168 423.506C705.197 423.452 705.322 423.411 705.523 423.37C705.606 423.353 705.702 423.336 705.81 423.318L706.094 423.272C706.836 423.154 707.939 422.977 709.1 422.554C711.09 421.829 713.181 418.664 713.181 418.664C713.181 418.664 709.207 420.233 705.276 419.797C701.343 419.361 699.461 418.664 698.89 417.928C698.318 417.192 697.109 417.22 697.109 417.22C697.091 416.188 696.798 415.186 696.268 414.338C695.873 413.711 695.189 413.246 694.567 412.824C693.802 412.305 693.132 411.85 693.208 411.235C693.261 410.802 693.759 410.584 694.429 410.289C695.484 409.826 696.965 409.175 697.798 407.204C698.919 404.553 697.16 403.102 695.808 401.987L695.805 401.985C695.515 401.745 695.243 401.521 695.024 401.303C693.779 400.075 692.229 398.336 692.229 398.336C692.229 398.336 697.395 399.961 700.165 398.45C697.467 397.487 693.142 393.971 691.826 392.266C690.747 390.872 690.869 386.519 690.98 382.503C690.995 382 691.008 381.501 691.02 381.015C691.065 379.082 691.326 375.044 691.578 371.143C691.896 366.234 692.199 361.542 692.04 361.542C691.755 361.542 690.178 369.436 689.725 372.567C689.426 374.625 688.669 376.25 688.086 377.504C687.781 378.157 687.525 378.709 687.404 379.169C687.28 379.642 687.287 380.457 687.295 381.398C687.311 383.126 687.329 385.28 686.547 386.53C685.886 387.587 684.227 388.811 682.869 389.813C681.745 390.643 680.827 391.321 680.849 391.627C680.901 392.3 678.228 393.325 678.228 393.325C678.228 393.325 683.42 394.35 684.986 393.325C686.552 392.3 685.792 395.828 685.083 396.836C684.374 397.844 683.772 400.08 683.523 402.209C683.381 403.411 682.709 403.617 681.989 403.837C681.434 404.007 680.851 404.185 680.462 404.837C680.029 405.561 679.613 406.006 679.299 406.341C678.966 406.696 678.748 406.928 678.748 407.243C678.748 407.513 679.268 407.784 679.87 408.1C680.634 408.499 681.532 408.969 681.671 409.593C681.921 410.709 679.692 414.984 677.504 416.144C676.98 416.422 676.427 416.683 675.887 416.937C674.171 417.745 672.578 418.495 672.404 419.576C672.175 420.997 673.179 422.333 673.179 422.333C673.179 422.333 673.348 424.496 674.653 424.536C675.959 424.576 669.013 426.365 666.625 424.983C664.238 423.602 665.549 428.415 666.926 429.383C667.548 429.821 667.952 430.389 668.35 430.949C668.832 431.629 669.308 432.297 670.155 432.707C671.7 433.454 674.419 432.52 674.419 432.52C674.419 432.52 672.888 439.943 671.7 439.683C670.511 439.422 669.042 436.959 668.003 434.643C666.962 432.327 665.416 429.649 664.274 428.749C663.131 427.849 659.301 419.763 659.031 417.113C658.761 414.463 657.281 409.129 657.281 409.129C657.281 409.129 661.586 414.349 663.911 415.244C666.237 416.139 669.593 414.984 669.593 414.984C669.593 414.984 666.065 412.821 663.983 411.405C667.211 412.821 676.285 407.787 676.285 407.787C676.285 407.787 671.511 406.892 668.553 407.22C668.7 406.869 669.788 406.334 671.235 405.622C674.448 404.04 679.433 401.587 679.81 398.342C676.52 398.008 671.716 399.944 671.716 399.944C671.716 399.944 671.613 398.812 669.599 398.382C667.584 397.951 663.58 397.034 662.071 394.684C660.561 392.334 656.389 384.429 657.231 382.601C657.474 382.072 657.781 381.562 658.088 381.055C658.838 379.81 659.577 378.586 659.316 377.153C660.535 379.222 663.442 379.19 665.313 379.17L665.579 379.167C665.768 379.166 665.942 379.166 666.1 379.169C668.525 379.257 670.935 378.694 673.123 377.527C669.797 376.667 663.682 375.885 663.682 375.885C663.682 375.885 669.196 375.811 671.578 373.535C673.148 371.985 674.557 370.245 675.78 368.348L669.394 370.177C669.394 370.177 670.002 367.307 669.057 366.967C668.856 366.894 668.525 366.871 668.106 366.843C666.565 366.737 663.846 366.551 662.101 363.502C660.692 361.04 659.27 358.586 657.837 356.14L658.439 353.79C658.439 353.79 661.734 355.489 663.815 354.272C665.895 353.054 667.716 350.359 667.716 350.359C667.716 350.359 674.235 348.66 674.301 344.759C674.257 343.998 672.165 344.16 670.328 344.302H670.318C669.423 344.371 668.589 344.435 668.084 344.385C666.538 344.232 663.85 341.701 663.55 340.422C663.44 339.954 663.416 339.444 663.394 338.959C663.355 338.116 663.32 337.351 662.841 337.024C662.477 336.775 661.815 336.75 661.171 336.725C660.481 336.698 659.812 336.672 659.551 336.373C659.046 335.795 657.149 332.698 657.149 332.698C657.149 332.698 659.582 334.765 661.315 334.3C662.36 334.019 663.374 333.613 664.34 333.089C664.34 333.089 662.641 329.822 659.953 328.74C657.266 327.659 657.914 326.894 658.556 326.821C659.199 326.747 660.795 326.334 661.315 324.601C661.836 322.868 662.264 321.328 660.653 319.675C659.041 318.021 658.658 316.402 659.061 315.422C659.465 314.443 658.96 310.977 658.006 309.76C657.051 308.542 656.894 305.287 656.919 303.831C656.945 302.376 656.037 297.036 656.037 297.036C656.037 297.036 654.711 304.788 654.543 306.691C654.503 307.141 654.488 307.646 654.472 308.178C654.419 309.896 654.358 311.905 653.436 313.327C653.247 313.619 653.065 313.882 652.894 314.128C651.976 315.453 651.387 316.303 651.752 318.667C652.186 321.47 651.243 323.587 649.804 325.377C648.366 327.166 647.958 329.408 648.728 330.416C649.129 330.941 649.925 331.111 650.667 331.27C651.349 331.416 651.985 331.552 652.227 331.945C652.732 332.766 652.661 337.24 651.084 338.508C650.948 338.618 650.8 338.74 650.641 338.872C648.963 340.26 646.006 342.706 641.393 342.913C638.884 343.026 637.257 343.515 636.111 343.859C634.953 344.208 634.288 344.408 633.697 343.921L633.542 343.791L633.355 343.633C632.379 342.807 631.727 342.255 630.944 343.355C630.772 343.595 630.515 343.931 630.212 344.327L630.207 344.335C628.964 345.956 626.953 348.583 626.863 349.81C626.751 351.339 629.852 350.891 630.944 349.957C631.396 349.57 631.617 349.785 631.949 350.106C632.418 350.561 633.107 351.229 634.978 350.705C633.529 353.168 630.811 356.973 629.194 356.933L628.869 356.924L628.834 356.923C627.514 356.884 627.161 356.874 627.246 357.901C627.338 359.017 628.725 359.991 630.908 359.544L631.294 359.465C633.68 358.983 638.669 357.974 639.782 355.999C640.961 353.909 641.261 353.428 641.664 353.462C641.835 353.477 641.862 353.683 641.898 353.981C641.949 354.385 642.02 354.955 642.501 355.444C643.337 356.293 646.734 355.891 646.734 355.891C646.734 355.891 639.379 361.893 633.984 363.535C636.467 364.583 639.624 363.502 639.624 363.502C639.624 363.502 634.182 367.306 631.698 367.306C630.684 367.306 630.065 367.495 629.545 367.654C628.792 367.885 628.242 368.053 626.99 367.493C626.317 367.192 625.307 366.682 624.212 366.128C621.863 364.941 619.122 363.555 618.458 363.609C617.484 363.688 619.162 366.559 620.202 367.34C621.055 367.848 621.761 368.611 622.242 369.543C622.719 370.269 623.329 370.874 624.033 371.317C624.736 371.76 625.517 372.032 626.322 372.114C626.85 372.174 627.77 372.211 628.792 372.252C630.964 372.34 633.596 372.446 633.881 372.827C634.299 373.388 629.898 377.357 627.531 377.244C625.165 377.131 621.834 377.08 621.534 377.861C621.368 378.29 622.152 378.635 622.977 378.999C623.656 379.298 624.364 379.61 624.593 379.99C624.899 380.496 625.853 380.314 626.784 380.136C627.407 380.017 628.019 379.9 628.424 379.99C628.612 380.032 628.81 380.094 629.019 380.158C629.932 380.44 631.05 380.785 632.407 379.877C633.591 378.982 635.008 378.548 636.436 378.643C637.9 378.643 641.475 375.568 641.475 375.568C641.475 375.568 639.211 379.147 637.747 380.381C636.283 381.615 633.667 383.399 633.667 383.399C633.667 383.399 639.308 382.833 645.305 377.357L645.296 377.472C644.945 381.502 644.422 387.493 636.289 394.09C628.077 400.748 610.175 400.131 607.91 399.684C608.94 400.827 609.925 401.629 610.772 402.319C611.957 403.285 612.87 404.028 613.251 405.171C611.647 405.417 610.023 405.436 608.415 405.227C608.415 405.227 612.394 407.798 616.983 407.13C619.808 406.69 622.519 405.602 624.945 403.936C624.945 403.936 620.508 409.927 617.081 410.652C613.654 411.377 606.599 410.374 606.599 410.374C606.599 410.374 610.027 414.338 612.445 415.017C613.957 415.36 615.394 416.026 616.677 416.977C617.637 417.645 626.96 413.896 626.96 413.896L620.329 418.879C620.329 418.879 626.883 419.157 632.121 414.236C633.943 412.525 635.509 410.969 636.802 409.685C639.225 407.278 640.682 405.83 641.042 406.122C641.592 406.569 637.921 412.668 631.77 418.206C625.619 423.743 618.616 428.058 611.557 428.222C612.399 427.461 613.368 426.772 614.315 426.099C616.151 424.795 617.911 423.545 618.529 421.92C615.036 423.522 609.191 420.391 609.191 420.391L612.149 419.157C612.149 419.157 593.564 412.107 592.258 405.057C591.569 401.341 590.934 399.448 590.489 398.117C590.088 396.925 589.84 396.183 589.84 394.984C589.83 393.446 589.37 391.954 588.529 390.732C588.529 390.732 594.241 395.024 596.864 395.171C599.485 395.318 606.304 393.319 606.304 393.319L601.668 391.439C601.668 391.439 611.359 392.113 615.275 388.903L608.558 388.869C608.558 388.869 611.95 386.853 613.495 386.887C615.041 386.921 616.352 385.398 616.958 384.39C617.565 383.382 618.871 380.811 617.831 380.137C617.241 379.756 615.541 380.321 613.585 380.971H613.582C612.086 381.469 610.439 382.016 609.027 382.227C605.769 382.714 601.433 381.259 597.939 379.543C594.446 377.827 593.803 376.927 593.803 376.927C595.924 377.386 598.104 377.386 600.225 376.927C602.111 376.474 603.48 375.217 604.748 374.053C605.67 373.207 606.537 372.409 607.512 372.006C608.826 371.464 609.384 371.02 609.825 370.67C610.16 370.402 610.428 370.19 610.909 370.03C612.021 369.662 616.01 365.851 616.01 365.851C616.01 365.851 609.492 369.73 604.35 368.682C602.332 368.271 600.863 368.114 599.716 367.991H599.713C597.941 367.802 596.941 367.695 595.879 366.859C595 366.168 593.953 365.474 592.963 364.818C591.98 364.167 591.054 363.553 590.401 363.014C588.558 361.337 586.951 359.364 585.633 357.16C583.919 354.436 582.572 351.186 582.807 350.291C582.946 349.759 583.241 349.966 583.694 350.284C584.004 350.501 584.388 350.77 584.847 350.891C585.402 351.038 586.044 350.754 586.704 350.461C587.389 350.157 588.094 349.844 588.743 349.997C589.302 350.128 589.862 350.589 590.458 351.08C591.222 351.709 592.048 352.389 593.013 352.494C593.78 352.577 594.631 352.348 595.461 352.125C596.491 351.848 597.488 351.579 598.251 351.928C599.628 352.556 603.831 353.06 608.099 351.967C605.141 349.838 603.295 350.065 603.295 350.065C603.295 350.065 609.88 347.675 612.164 345.104C610.395 345.045 608.296 345.616 606.336 346.149C604.536 346.639 602.853 347.096 601.647 347.007C599.127 346.82 592.808 342.828 592.808 342.828C592.808 342.828 598.587 340.512 599.831 338.236C601.076 335.96 604.034 329.51 601.714 328.242C600.664 327.668 599.327 328.269 597.817 328.947C595.987 329.769 593.903 330.704 591.768 329.805C588.33 328.356 583.843 325.007 582.246 323.815C582.034 323.656 581.873 323.535 581.772 323.463C580.915 322.846 581.47 321.339 583.888 320.558C586.306 319.777 587.519 318.763 588.376 317.591C588.904 316.869 588.733 316.037 588.554 315.165C588.443 314.621 588.328 314.062 588.376 313.503C588.391 313.326 588.409 313.142 588.427 312.954L588.428 312.95V312.947L588.429 312.941C588.56 311.591 588.706 310.079 588.152 309.896C588.005 309.857 587.855 309.832 587.704 309.824C587.44 309.802 587.101 309.788 586.726 309.774H586.713C585.553 309.729 584.055 309.672 583.362 309.279C583.252 309.216 583.139 309.156 583.026 309.1C582.865 309.02 582.704 308.942 582.541 308.868C582.266 308.74 581.968 308.609 581.672 308.478L581.669 308.477C580.674 308.038 579.692 307.604 579.584 307.348C579.46 307.059 579.638 306.653 579.851 306.162C579.947 305.939 580.052 305.699 580.139 305.445C580.42 304.63 579.935 300.689 579.935 300.689C579.935 300.689 582.857 302.62 584.016 302.818C585.173 303.016 588.096 300.887 588.096 300.887L583.613 298.679C583.613 298.679 589.468 295.848 589.105 293.447C589.067 293.188 588.72 293.211 588.196 293.246C587.353 293.302 586.048 293.388 584.821 292.382C584.324 291.984 583.813 291.607 583.289 291.251L583.286 291.248C581.766 290.186 580.397 289.23 580.359 287.597C580.337 286.666 580.044 286.051 579.744 285.417C579.341 284.568 578.923 283.688 579.124 281.975C579.331 280.223 579.044 279.447 578.778 278.723C578.589 278.21 578.41 277.723 578.421 276.935C578.44 275.444 578.115 274.144 577.844 273.057L577.844 273.054C577.772 272.773 577.704 272.491 577.64 272.207C577.37 270.973 577.294 261.166 577.294 261.166C577.123 262.11 576.804 263.378 576.462 264.734C575.859 267.126 575.186 269.794 575.141 271.46C575.113 272.456 575.215 273.344 575.31 274.173C575.463 275.517 575.599 276.708 575.141 277.954C574.869 278.697 574.455 279.507 574.049 280.304C573.35 281.671 572.672 283 572.76 283.883C572.836 284.661 572.422 285.335 572.01 286.005C571.682 286.541 571.354 287.073 571.28 287.654C571.111 288.962 570.306 290.525 568.286 292.02C567.208 292.818 566.151 293.168 565.382 293.422C564.711 293.643 564.26 293.792 564.206 294.103C564.089 294.772 564.44 295.412 566.929 296.64C564.436 297.788 561.812 298.55 559.131 298.905C559.131 298.905 562.962 299.879 564.741 299.692C565 299.665 565.318 299.638 565.675 299.607C567.779 299.427 571.29 299.126 572.668 297.993C573.141 297.62 573.688 297.92 573.274 298.928C572.861 299.936 570.147 302.993 567.562 304.222C564.976 305.451 564.604 307.053 564.874 307.993C565.144 308.933 566.522 309.409 567.694 308.927C568.867 308.446 569.51 308.293 570.082 308.441C570.493 308.553 570.921 308.568 571.337 308.484C571.754 308.4 572.15 308.219 572.499 307.954C572.871 309.409 573.106 311.572 571.056 312.806C569.974 313.458 568.583 313.868 567.352 314.231L567.35 314.232L567.347 314.233C566.249 314.557 565.279 314.843 564.772 315.23C563.696 316.051 552.475 315.637 551.063 314.969C553.649 317.914 557.55 318.174 557.55 318.174C556.449 319.534 555.063 320.573 553.516 321.198C552.063 321.798 550.198 321.595 548.664 321.429C547.429 321.294 546.408 321.183 545.988 321.532C545.044 322.313 546.763 325.003 548.074 326.238C548.873 326.989 549.97 327.211 550.841 327.388C551.401 327.502 551.867 327.596 552.103 327.8C552.704 328.321 555.265 328.808 555.265 328.808C553.995 330.162 552.402 331.082 550.675 331.458C547.952 331.979 547.416 333.723 547.584 334.403C547.753 335.082 549.833 336.345 551.415 336.605C552.162 336.729 552.93 336.577 553.714 336.423L553.715 336.422C554.59 336.25 555.484 336.074 556.387 336.271C558.101 336.645 560.978 336.271 561.487 335.671C561.609 335.528 561.749 335.335 561.901 335.126C562.39 334.456 563.001 333.618 563.487 333.734C564.125 333.887 565.736 337.092 563.451 340.189C561.167 343.287 551.424 352.08 534.721 349.402C537.312 352.76 545.172 352.981 545.172 352.981C545.172 352.981 540.74 354.606 539.123 355.891C542.152 357.17 544.621 356.685 546.488 356.319C547.481 356.124 548.305 355.962 548.951 356.118C549.716 356.301 550.611 356.334 551.512 356.367C552.803 356.414 554.11 356.462 555.071 356.956C556.704 357.794 559.254 358.02 560.264 356.956C560.961 356.22 562.14 356.501 563.318 356.782C563.844 356.908 564.37 357.034 564.854 357.069C566.42 357.182 568.638 354.804 568.638 354.804C567.548 357.679 566.069 360.352 564.252 362.731C561.278 366.593 550.843 370.789 542.173 370.846C540.003 370.86 538.208 370.821 536.734 370.774C535.401 369.078 534.218 366.748 533.56 363.605C532.222 357.212 530.195 357.296 530.195 357.296C530.195 357.296 530.586 326.082 524.428 325.388C521.148 325.018 520.714 329.884 520.208 335.558C519.765 340.533 519.266 346.129 516.743 349.359C516.377 349.828 516.032 350.273 515.705 350.695L515.29 351.233C511.153 356.587 510.074 357.984 505.331 358.193C500.077 358.424 501.802 364.72 506.715 365.793C504.118 367.405 497.304 366.102 497.304 366.102C498.762 367.572 500.466 368.708 502.319 369.446C505.016 370.364 509.581 370.147 509.581 370.147C509.581 370.147 508.685 375.328 512.215 376.829C511.798 379.367 502.18 383.84 502.18 383.84C502.18 383.84 508.584 378.729 506.329 376.541C504.785 375.043 503.555 375.577 501.955 376.272C501.219 376.592 500.405 376.945 499.446 377.151C496.675 377.744 495.835 377.565 491.328 376.604L491.323 376.603L489.878 376.296C484.068 375.069 481.352 373.659 476.23 369.986C471.109 366.312 466.164 359.427 466.164 359.427L470.976 359.504L467.585 355.585C467.585 355.585 476.06 356.125 481.182 355.353C486.304 354.582 489.556 352.206 488.722 349.443C488.023 347.127 486.503 346.802 484.399 346.353C483.994 346.266 483.567 346.175 483.121 346.064C481.626 345.693 480.675 344.904 479.658 344.06C478.794 343.342 477.881 342.585 476.546 342.012C475.403 341.52 474.416 341.448 473.508 341.382C472.11 341.28 470.902 341.192 469.6 339.607C468.879 338.728 467.222 337.482 465.228 335.982L465.225 335.979C461.283 333.013 456.029 329.059 454.096 325.009C460.051 326.65 466.183 323.018 465.862 320.452C465.655 318.813 464.734 319.039 463.469 319.349L463.467 319.35C462.752 319.524 461.928 319.726 461.062 319.632C458.662 319.372 457.904 316.049 457.904 316.049C457.904 316.049 462.243 317.641 466.348 316.253C470.452 314.864 471.399 310.16 471.053 309.291C470.738 308.503 469.557 308.636 467.241 308.898L466.486 308.982C463.67 309.291 460.171 307.804 459.704 304.839C459.237 301.873 456.433 298.024 453.711 297C454.446 296.806 455.11 296.366 455.612 295.739C456.115 295.112 456.432 294.329 456.521 293.495C457.099 294.376 457.895 295.052 458.811 295.443C459.728 295.833 460.726 295.921 461.687 295.696C465.008 294.876 464.087 290.087 462.148 288.222L462.099 288.176C460.177 286.327 458.265 284.488 456.893 279.003C456.289 276.584 455.525 274.793 454.856 273.225C453.996 271.208 453.294 269.562 453.294 267.427C453.294 263.634 450.345 248.497 447.294 248.785C444.825 249.018 445.025 253.104 445.14 255.468C445.168 256.024 445.191 256.485 445.173 256.777C445.139 257.315 444.859 258.077 444.5 259.051C443.833 260.861 442.898 263.403 442.779 266.593C442.639 270.347 438.557 278.202 435.941 283.236C435.137 284.783 434.472 286.064 434.102 286.876C433.484 288.233 431.675 288.855 429.671 289.544C426.57 290.611 423.002 291.837 422.665 296.194C422.328 300.538 425.242 299.695 427.592 299.015C429.122 298.572 430.414 298.198 430.414 299.37C430.414 302.343 425.993 304.979 420.726 306.129C417.86 306.754 417.321 307.368 416.755 308.011C416.282 308.549 415.79 309.108 413.899 309.711C409.75 311.036 407.906 315.453 407.812 317.424C403.707 316.722 401.54 314.913 401.54 314.913C401.785 315.877 402.216 316.77 402.804 317.529C399.646 317.886 399.014 316.912 399.014 316.912C399.014 316.912 400.12 320.705 406.075 321.006C408.858 321.147 410.752 321.769 412.46 322.33C414.406 322.969 416.111 323.529 418.617 323.208C416.982 324.025 415.664 325.155 414.458 326.188C412.943 327.486 411.606 328.633 410.041 328.816C407.231 329.146 400.537 330.044 397.214 333.935C395.598 335.828 394.497 336.242 393.797 336.505C393.058 336.783 392.768 336.893 392.794 338.394C392.828 340.373 393.621 340.35 394.565 340.323C395.015 340.31 395.499 340.296 395.951 340.497C396.137 340.58 396.353 340.682 396.598 340.799C398.209 341.564 401.082 342.93 404.792 343.112C409.068 343.322 410.697 341.878 410.697 341.878C410.697 341.878 410.559 346.232 412.959 347.206C411.809 350.712 410.192 351.098 408.254 351.203C406.315 351.308 404.704 352.535 404.792 354.428C404.882 356.321 406.41 357.45 409.687 357.45C412.965 357.45 419.002 356.118 419.002 356.118C419.002 356.118 410.862 369.327 395.983 374.347L393.842 373.344C393.842 373.344 395.844 371.241 395.775 369.137C402.627 368.521 407.054 365.449 406.365 362.757C406.119 361.794 405.297 361.717 403.968 361.591C401.581 361.365 397.562 360.986 392.32 355.045C384.482 346.161 383.06 342.538 382.171 340.271L382.064 339.999C381.472 338.628 380.434 337.559 379.159 337.006C381.626 336.675 384.075 336.188 386.492 335.547C389.649 334.622 390.28 331.936 389.125 330.317C388.067 328.835 387.205 328.844 386.113 328.856C386.011 328.857 385.908 328.859 385.803 328.859C385.189 328.859 384.483 328.392 383.733 327.897C382.961 327.387 382.145 326.848 381.338 326.755C379.747 326.573 379.159 325.451 379.191 323.916C379.222 322.38 378.156 321.497 377.777 321.532C377.66 321.542 377.733 321.263 377.846 320.835C378.101 319.864 378.556 318.126 377.461 317.269C375.882 316.035 375.806 315.867 375.838 315.271C375.843 315.175 375.902 315.051 375.997 314.902C376.091 314.754 376.219 314.582 376.362 314.39C376.974 313.57 377.86 312.381 377.53 311.128C377.279 310.174 377.436 309.734 377.604 309.266C377.76 308.829 377.926 308.367 377.777 307.44C377.707 307.016 377.629 306.593 377.545 306.172C377.331 305.078 377.173 304.273 377.258 302.532C377.317 301.313 377.031 300.477 376.754 299.666C376.499 298.924 376.253 298.203 376.286 297.232L376.312 296.574C376.427 293.836 376.718 286.952 375.073 286.715C373.273 286.455 372.585 289.323 372.485 292.247C372.383 295.17 370.059 301.361 369.024 303.465C367.988 305.568 367.602 307.959 367.849 309.073C367.969 309.616 367.643 310.284 367.298 310.993C366.933 311.743 366.545 312.538 366.636 313.28C366.717 313.944 366.936 314.355 367.149 314.754C367.399 315.223 367.64 315.676 367.64 316.505C367.64 318.04 365.045 320.424 362.38 320.957C361.234 321.186 360.331 321.106 359.591 321.039C358.611 320.952 357.918 320.89 357.328 321.609C356.292 322.871 356.943 325.528 359.127 326.643C359.685 326.927 360.187 327.219 360.655 327.491C362.02 328.284 363.093 328.906 364.382 328.676C359.399 333.248 354.214 335.092 351.688 333.787C350.235 333.037 349.826 333.239 349.382 333.458C349.052 333.62 348.704 333.792 347.899 333.598C346.004 333.142 342.607 332.196 342.607 332.196C342.607 332.196 347.173 337.994 351.05 339.144C348.385 340.953 341.703 341.184 341.703 341.184C341.703 341.184 346.516 342.643 347.868 343.869C349.219 345.096 360.46 343.911 360.46 343.911C359.183 345.723 357.569 347.208 355.729 348.265C352.452 350.256 349.503 351.953 347.147 353.075C345.701 353.764 343.77 354.379 341.704 355.037L341.702 355.038L341.698 355.039C340.371 355.452 339.051 355.891 337.737 356.356C335.334 357.225 334.143 356.364 333.23 355.704C332.846 355.427 332.51 355.184 332.155 355.122C331.671 355.037 331.309 355.135 330.972 355.226C330.474 355.36 330.034 355.478 329.344 354.968C328.831 354.588 327.709 354.425 326.433 354.241L326.431 354.24C324.836 354.009 323.002 353.744 321.823 352.977C323.345 358.453 331.65 365.597 338.199 366.957C344.748 368.317 348.625 366.901 348.625 366.901C348.625 366.901 351.53 370.133 354.808 369.923C346.478 378.167 342.051 381.014 334.372 381.933C334.862 381.026 335.357 380.122 335.856 379.221C337.334 376.544 337.963 375.405 337.693 374.866C337.561 374.6 335.704 375.427 333.175 376.554C329.101 378.371 323.279 380.967 320.118 381.014C314.996 381.091 308.978 380.706 302.752 377.936C300.986 377.152 298.889 376.411 296.731 375.649C291.275 373.722 285.437 371.661 283.654 368.415C292.594 371.874 298.632 370.851 303.185 370.08C304.797 369.807 306.223 369.565 307.526 369.565C312.508 369.565 318.527 365.358 318.527 365.358C315.024 364.784 311.482 364.549 307.943 364.657C305.595 360.001 301.01 357.943 295.727 355.571C293.691 354.656 291.55 353.695 289.394 352.521C305.037 359.82 312.717 354.442 312.717 354.442C312.717 354.442 305.587 350.137 304.134 344.914C311.884 345.146 322.196 334.468 322.196 334.468C322.196 334.468 295.211 329.987 280.819 315.65C292.577 316.26 307.109 311.191 307.109 302.742C307.109 298.133 306.945 298.188 304.863 298.89C303.13 299.475 300.065 300.509 294.655 299.672C282.751 297.828 278.325 295.058 278.325 295.058C278.325 295.058 289.256 294.757 285.524 287.535C298.786 291.041 306.421 289.071 313.752 281.695C298.671 283.539 290.386 278.624 290.386 278.624C290.386 278.624 299.379 278.47 303.118 272.784C297.029 271.711 293.153 271.094 284.57 270.323C275.988 269.552 275.337 267.021 275.337 267.021C275.337 267.021 284.425 263.698 283.964 259.701C283.772 258.041 282.657 257.688 280.783 257.093C278.145 256.257 274.001 254.944 268.807 248.841C276.468 253.861 280.434 250.993 280.434 250.993C277.827 248.105 275.362 245.063 273.051 241.879C272.694 241.353 272.332 240.833 271.962 240.319L271.593 239.804L271.508 239.684C269.535 236.937 267.696 234.376 266.963 230.717C266.548 228.643 266.713 227.064 266.851 225.741C267.02 224.127 267.149 222.894 266.136 221.603C265.301 220.54 265.24 218.784 265.184 217.178C265.116 215.235 265.056 213.512 263.641 213.512C262.139 213.512 262.072 214.414 261.953 216.034C261.866 217.2 261.753 218.738 261.058 220.579C260.719 221.48 260.39 222.287 260.084 223.04C258.893 225.966 258.034 228.079 258.109 231.748C258.157 234.059 255.563 238.654 252.522 244.043C249.491 249.413 246.016 255.571 244.266 261.04C247.924 259.579 251.148 257.028 253.587 253.665C253.587 253.665 250.309 262.674 248.927 265.906C248.212 267.575 247.202 268.72 246.195 269.862C245.252 270.931 244.312 271.996 243.621 273.485C242.54 275.818 241.535 276.201 240.006 276.784C239.518 276.97 238.976 277.177 238.361 277.474C235.823 278.701 235.412 279.984 235.318 281.316C235.222 282.648 236.012 284.598 239.422 284.822C236.842 286.292 233.53 288.028 230.486 289.625L230.449 289.645L230.435 289.652C227.241 291.327 224.347 292.845 222.908 293.733C220.092 295.472 222.036 297.982 224.569 298.753C227.101 299.524 231.029 300.702 235.69 299.454C238.18 298.865 240.585 297.9 242.839 296.586C241.807 298.043 240.982 299.668 240.394 301.403C239.517 304.116 216.271 316.61 206.854 317.788C214.515 321.476 239.24 316.715 245.744 311.59C237.949 326.473 230.299 329.392 223.871 331.845L223.853 331.851L223.846 331.854C222.94 332.2 222.058 332.537 221.202 332.897C217.651 334.394 214.684 334.724 212.431 334.974C210.291 335.212 208.796 335.378 208.054 336.402C206.533 338.506 206.122 348.847 227.568 349.023C225.757 352.196 222.79 352.993 220.25 353.675C218.362 354.182 216.71 354.626 215.942 355.935C214.143 359.006 215.532 363.921 221.626 364.692C227.72 365.464 224.948 368.843 224.948 368.843C224.601 369.432 224.254 370.04 223.908 370.646C222.29 373.48 220.697 376.269 219.365 376.899C218.353 377.377 216.479 376.333 214.652 375.315C213.561 374.707 212.486 374.108 211.622 373.849C211.291 373.749 210.905 373.651 210.478 373.543L210.463 373.539C207.914 372.893 203.942 371.888 201.701 368.1C207.189 368.233 212.058 364.98 211.174 362.414C210.726 361.112 208.967 360.489 206.902 359.757C204.896 359.046 202.599 358.232 200.938 356.594C200.059 355.729 199.186 354.958 198.342 354.212C195.942 352.092 193.773 350.176 192.386 346.898C196.756 348.349 201.752 344.052 200.312 341.563C199.729 340.555 198.648 340.238 197.198 339.813C195.067 339.188 192.139 338.33 188.831 334.699C195.695 336.157 199.939 331.305 199.131 329.293C198.871 328.647 197.735 328.316 196.156 327.856C192.823 326.886 187.52 325.342 184.341 319.043C187.751 320.403 193.031 319.527 193.075 318.188C193.091 317.692 192.485 317.275 191.558 316.637C189.978 315.55 187.466 313.82 185.497 309.964C183.881 306.8 183.535 304.285 183.251 302.213C182.985 300.276 182.773 298.728 181.625 297.4C181.367 296.66 181.181 292.279 180.986 287.653C180.743 281.896 180.484 275.757 180.046 275.785C179.257 275.834 177.552 285.53 177.716 288.531C177.754 289.214 177.818 289.882 177.88 290.533C178.09 292.742 178.284 294.774 177.382 296.664C176.47 298.692 176.081 300.961 176.257 303.219C176.284 304.376 175.639 305.235 175.034 306.041C174.599 306.623 174.183 307.177 174.053 307.797C173.892 308.567 172.703 309.209 171.611 309.799C170.605 310.342 169.682 310.841 169.727 311.352C169.793 312.083 171.102 312.617 172.185 313.058C172.394 313.144 172.595 313.225 172.777 313.305C173.026 313.413 173.239 313.516 173.39 313.616C174.224 314.17 167.706 318.461 163.614 318.833C161.052 319.065 160.554 319.713 160.224 320.142C160.027 320.399 159.89 320.578 159.408 320.543C158.928 320.514 158.459 320.366 158.037 320.11C157.799 319.977 157.674 319.907 157.577 320.081C157.368 320.452 157.286 323.222 159.781 323.082C161.154 323.004 161.799 323.629 162.433 324.244C162.951 324.746 163.463 325.242 164.36 325.346C165.717 325.478 167.083 325.463 168.439 325.304C168.439 325.304 166.816 328.165 165.281 328.627C164.938 328.731 164.54 328.792 164.125 328.841C163.943 328.863 163.757 328.882 163.572 328.901L163.566 328.902C162.282 329.033 160.985 329.166 160.703 330.107C160.286 331.495 162.244 333.521 164.738 333.612C166.295 333.658 167.846 333.392 169.317 332.827C169.317 332.827 164.991 337.174 161.707 337.496C160.803 337.585 159.779 337.636 158.751 337.687H158.742C156.037 337.82 153.307 337.954 152.676 338.786C151.804 339.936 152.468 341.591 156.377 342.853C160.286 344.115 160.412 345.622 160.412 345.622C160.412 345.622 156.339 346.043 156.049 346.919C155.758 347.796 156.68 349.871 160.293 349.969C163.545 350.058 165.189 349.049 165.486 348.847C164.997 349.195 160.952 352.087 158.499 354.127C157.04 355.339 154.699 355.76 152.653 356.127H152.651C151.028 356.418 149.593 356.675 148.931 357.268C147.786 358.292 145.805 358.315 144.327 358.333H144.32C143.87 358.338 143.465 358.342 143.147 358.375C141.782 358.515 139.692 360.591 142.515 362.996C145.338 365.4 152.045 365.625 152.045 365.625C152.045 365.625 148.381 370.245 152.878 371.935C152.089 375.49 142.977 379.829 141.807 380.061C141.685 380.084 141.563 380.102 141.439 380.113C141.353 380.122 141.263 380.129 141.169 380.136C140.928 380.152 140.663 380.161 140.386 380.171H140.37C139.173 380.213 137.727 380.264 136.819 380.895C135.487 381.82 134.924 384.863 138.859 386.252C140.227 386.734 141.442 387.539 142.681 388.36C145.005 389.899 147.409 391.492 151.046 391.103C148.553 393.55 139.604 397.75 139.604 397.75C139.604 397.75 130.7 391.839 126.537 385.13C122.376 378.42 118.328 372.201 115.89 369.614C125.363 372.419 132.449 372.292 137.027 371.549C141.606 370.806 144.429 369.761 144.429 368.857C144.429 368.314 140.959 367.497 137.875 366.771C135.816 366.286 133.93 365.842 133.365 365.548C136.984 363.332 136.402 360.514 136.402 360.514C136.402 360.514 129.411 362.617 122.174 355.157C114.936 347.698 106.259 336.375 103.323 326.264C110.022 334.567 118.302 341.108 127.561 345.412C132.177 347.515 142.048 349.128 148.28 345.622C141.592 343.154 135.327 339.452 129.746 334.671C129.746 334.671 140.539 329.763 138.669 321.161C131.179 321.09 122.318 317.907 117.071 312.915C111.823 307.924 111.085 308.204 111.085 308.204C111.085 308.204 120.317 301.761 117.696 295.114C117.465 294.573 116.389 294.487 114.913 294.369C112.795 294.2 109.854 293.965 107.402 292.226C106.037 291.257 105.034 290.622 104.24 290.119C102.614 289.09 101.863 288.614 100.657 286.96C104.364 287.879 110.856 285.895 109.979 281.926C109.509 279.803 107.803 278.681 105.935 277.454C104.313 276.387 102.568 275.241 101.409 273.289C102.369 271.62 102.407 270.421 101.782 269.405C103.821 268.388 104.82 264.602 104.491 262.337C104.163 260.073 101.618 254.625 99.0345 251.204C97.561 249.252 96.6582 242.115 95.9317 236.363C95.3845 232.033 94.9362 228.488 94.4186 228.53C93.8209 228.578 93.8155 229.723 93.8083 231.169C93.8011 232.643 93.7921 234.429 93.1548 235.688C91.8919 238.184 91.4877 241.69 91.2609 244.88C91.0332 248.07 90.1357 251.666 88.5137 253.7C88.1194 254.194 87.7126 254.671 87.3201 255.132C86.0941 256.571 84.9995 257.857 84.8132 259.014C84.6962 259.737 83.7474 260.231 82.7762 260.737C81.696 261.3 80.5889 261.877 80.569 262.8C80.6211 264.603 81.2553 266.325 82.3558 267.652C83.2272 268.577 85.2678 268.619 85.2678 268.619C83.5382 271.211 81.249 273.278 78.6112 274.628C74.4112 276.661 72.6181 278.919 72.4543 280.356C72.2896 281.793 73.5344 283.679 75.99 284.233C77.2367 284.514 77.9037 285.051 78.5032 285.533C79.0856 286.002 79.6032 286.418 80.5249 286.497C81.5421 286.585 82.0129 285.955 82.4566 285.362C82.8275 284.865 83.1786 284.394 83.815 284.394C85.2102 284.394 86.1823 284.534 86.2273 285.039C86.2426 285.217 85.7359 285.562 85.049 286.029C83.7862 286.888 81.9148 288.161 81.5664 289.569C81.1334 291.323 78.8534 291.99 76.874 292.569C76.4005 292.708 75.945 292.841 75.5355 292.983C74.6686 293.284 73.6479 293.37 72.7036 293.45C71.3399 293.566 70.1364 293.668 69.789 294.385C69.5477 294.884 68.6188 295.675 67.5998 296.543C66.1407 297.786 64.4943 299.188 64.4205 300.113C64.3503 300.993 65.7941 301.366 67.2731 301.749C68.4343 302.05 69.6179 302.356 70.1049 302.918C71.2094 304.194 78.0487 306.29 79.217 306.332C80.3791 306.374 80.3791 306.741 80.3791 306.974V306.977C80.3791 307.032 80.1766 307.021 79.8435 307.002C78.7859 306.943 76.414 306.81 75.0557 308.505C74.5849 309.092 74.2546 309.662 73.9611 310.171C73.1375 311.594 72.5902 312.54 70.0032 312.06C68.2407 311.733 67.1786 312.561 65.8896 313.566C64.6096 314.564 63.1063 315.735 60.4734 316.126C55.1878 316.912 33.7914 314.647 27.7803 305.792C29.4006 309.519 31.4223 312.412 33.0191 314.699C34.183 316.366 35.1219 317.71 35.5161 318.819C36.0319 320.269 37.4604 320.71 39.0771 321.21C40.3913 321.616 41.8315 322.06 43.0062 323.117C43.5799 323.64 44.1464 324.173 44.7056 324.715C47.3251 327.222 50.7123 330.465 52.4289 329.903C50.9319 331.705 40.7576 333.928 35.5791 331.018C37.2174 333.631 40.7009 335.05 43.3329 336.122C44.6066 336.641 45.6823 337.079 46.2521 337.531C48.0011 338.92 54.4614 340.231 57.6695 339.123C60.8785 338.015 67.0984 337.945 67.0984 337.945C67.2505 338.155 67.4319 338.337 67.6358 338.484C67.913 338.684 68.2264 338.813 68.5538 338.863C68.8812 338.913 69.2144 338.882 69.5297 338.772C69.1823 339.647 67.6097 340.771 65.7284 342.115C63.8849 343.432 61.7453 344.96 60.171 346.674C56.9881 350.137 37.5117 360.948 31.3989 360.184C33.1478 363.444 39.8233 366.838 44.9379 367.321C50.0534 367.805 58.548 366.908 58.548 366.908C58.548 366.908 58.7307 371.198 52.1192 372.93C57.2968 376.436 68.968 375.083 68.968 375.083C68.968 375.083 65.0965 376.191 60.171 382.423C57.2455 386.124 51.9419 387.99 47.5582 389.533C44.558 390.589 41.989 391.493 40.9089 392.73C38.2507 395.773 29.9902 399.243 27.0161 399.243C26.0997 399.243 24.6604 399.387 23.0519 399.548H23.0474C19.4288 399.911 14.9569 400.358 13.6589 399.446C11.783 398.128 8.60641 400.694 13.4123 406.654C18.219 412.613 20.4667 413.448 25.1465 413.448C29.8263 413.448 40.682 412.747 40.682 412.747C40.682 412.747 25.7712 422.513 25.3292 423.964C24.8882 425.415 26.3905 429.23 32.5096 428.746C38.6297 428.262 51.607 424.588 55.9142 419.947C55.4785 423.964 57.809 425.002 59.4698 425.072C61.1305 425.142 66.0876 423.27 71.2031 417.934C68.5828 422.842 57.557 437.797 47.1549 443.876C41.9251 446.932 36.4208 448.807 32.1334 450.267C27.8937 451.71 24.844 452.749 24.4201 454.126C23.5676 456.895 24.0033 461.053 31.8219 461.607C39.6397 462.161 45.2223 462.623 45.2223 462.623C45.2223 462.623 32.2387 478.426 23.8395 483.783C15.4403 489.139 5.77727 490.156 2.78431 489.322C-0.209561 488.487 -1.37794 492.652 2.28563 494.93C4.38116 496.234 6.12113 496.923 7.44614 497.447C8.43629 497.839 9.1924 498.138 9.69288 498.534C10.2402 498.968 11.7155 498.975 13.4888 498.984H13.4924C15.5051 498.993 17.9004 499.005 19.7592 499.642C23.258 500.841 35.0678 496.873 35.0678 496.873C34.7445 497.52 34.6183 498.265 34.7082 498.998C34.798 499.731 35.0992 500.412 35.5665 500.939C31.5645 503.638 29.5815 506.792 28.0233 509.271C26.8622 511.118 25.935 512.591 24.5848 513.222C23.9979 513.496 23.0618 513.88 21.9051 514.352C16.8175 516.432 7.47584 520.252 5.01575 524.188V1200H1916.1V524.188C1916.1 524.188 1908.82 514.45 1889.07 513.667C1883.44 513.444 1868.23 511.944 1851.52 496.051C1869.03 505.392 1900.57 507.39 1912.19 497.725C1903.88 499.946 1893.76 495.605 1893.76 495.605C1898.12 494.574 1902.4 493.163 1906.56 491.385C1913.26 488.465 1920 478.2 1920 478.2ZM1123.38 413.562C1125.13 412.461 1127.98 410.666 1130.41 409.467C1135.47 414.609 1145.92 422.439 1165.63 427.792C1162.81 428.967 1159.92 429.959 1157 430.761C1156.01 430.682 1154.74 430.724 1153.35 430.771C1149.52 430.898 1144.74 431.057 1141.98 428.842C1137.86 425.536 1135.41 425.547 1133.49 425.556H1133.48C1133.21 425.557 1132.94 425.555 1132.67 425.548C1130.6 425.472 1128.34 425.014 1125.47 421.747C1123.65 419.671 1121.16 419.775 1119.25 419.853C1118.16 419.898 1117.26 419.936 1116.79 419.548C1115.91 418.688 1115.24 417.585 1114.87 416.351C1114.87 416.351 1120.48 415.387 1122.81 413.923L1123.38 413.562ZM1133.75 457.315C1134.98 457.368 1136.06 456.988 1136.8 456.291C1141.24 459.874 1145.86 464.092 1145.86 464.092C1145.86 464.092 1140.54 464.523 1132.94 463.833C1123.65 461.61 1114.87 456.75 1115.28 455.719C1115.6 454.939 1122.05 455.823 1127.4 456.555C1130.14 456.929 1132.58 457.263 1133.75 457.315ZM1171.18 490.954L1171.11 490.904C1175.3 490.849 1179.69 490.614 1184.28 490.168C1180.6 495.906 1170.7 501.096 1157.46 504.038C1157 503.362 1156.52 502.591 1155.99 501.734C1155.54 501.008 1155.04 500.222 1154.49 499.381C1158.14 494.908 1154.58 491.058 1154.58 491.058C1160.07 492.203 1165.71 492.168 1171.18 490.954ZM1269.07 313.891C1269.07 313.891 1256.16 322.769 1245.25 321.996C1248.88 319.511 1252.39 316.805 1255.75 313.891C1261.76 316.011 1269.07 313.891 1269.07 313.891ZM1268.08 343.01C1263.72 341.114 1259.74 338.281 1256.37 334.673C1264.28 337.006 1271.99 332.452 1274.49 329.673C1274.48 331.666 1273.15 333.256 1271.7 334.986C1269.91 337.113 1267.96 339.449 1268.06 343L1268.08 343.01ZM1276.97 290.857C1276.97 290.857 1277.71 288.017 1278.27 286.06C1280.73 286.405 1282.43 286.557 1282.43 286.557L1276.97 290.857ZM1327.12 266.434L1337.65 268.767C1337.65 268.767 1326.13 270.217 1318.81 272.824C1321.85 271.153 1324.65 269 1327.12 266.434ZM1349.76 300.219C1350.67 302.552 1339.95 322.888 1339.95 322.888C1339.95 322.888 1343.05 302.602 1340.55 299.996C1338.05 297.389 1328.23 295.777 1328.23 295.777C1336.46 293.545 1341.94 280.441 1341.94 280.441C1341.94 280.441 1346.04 283.879 1348.34 283.879C1344.94 287.439 1347.74 291.435 1350.24 292.774C1347.86 294.995 1348.86 297.886 1349.77 300.219H1349.76ZM1423.01 238.728C1428.89 240.964 1438.31 238.308 1442.01 237.082C1439.87 237.863 1436.07 239.333 1434.26 240.652C1430.23 243.333 1425.5 244.407 1420.84 243.695C1421.82 242.19 1422.55 240.51 1423.01 238.728ZM1434.88 270.4C1436.62 272.175 1428.34 281.557 1413.11 287.886C1424.08 279.883 1429.57 266.698 1426.2 264.619C1424.36 263.477 1422.65 264.371 1420.9 265.281C1419.48 266.029 1418.02 266.787 1416.46 266.434C1415.08 266.124 1414.12 265.797 1413.33 265.525C1412.12 265.113 1411.28 264.827 1409.92 264.913C1408.87 264.979 1407.99 264.288 1407.06 263.556C1405.97 262.703 1404.82 261.793 1403.24 261.951C1401.59 262.144 1399.93 262.045 1398.31 261.657C1398.31 261.657 1408.18 254.841 1410.71 255.288C1411.61 255.446 1412.24 256.051 1413.02 256.798C1414.44 258.159 1416.35 259.993 1421.27 260.471C1424.54 260.789 1427.12 261.273 1429.44 261.708L1429.45 261.709C1432.53 262.286 1435.16 262.778 1438.34 262.692C1433.13 264.619 1433.13 268.615 1434.87 270.4H1434.88ZM1530.1 225.651C1530.45 225.531 1530.97 225.5 1531.61 225.462C1533.34 225.359 1535.88 225.208 1538.01 223.095C1540.91 220.205 1544.01 215.427 1544.11 213.541C1544.21 211.655 1546.22 210.093 1548.41 210.498C1548.74 210.558 1549.2 210.655 1549.75 210.773C1552.94 211.459 1559.38 212.841 1562.54 211.604C1555.72 209.382 1554.03 205.833 1554.03 205.833L1570.95 207.608C1561.44 216.503 1538.71 229.383 1535.6 229.282C1532.5 229.181 1528.79 226.098 1530.09 225.651H1530.1ZM1565.04 235.875C1562.83 237.802 1554.16 242.468 1554.16 242.468C1554.16 242.468 1557.63 234.354 1555.43 231.311C1555.43 231.311 1562.51 229.83 1571.31 227.832C1568.15 229.115 1567.35 231.208 1566.65 233.062C1566.23 234.153 1565.84 235.161 1565.03 235.875H1565.04ZM1597.88 313.322V313.374L1589.12 303.333C1590.05 302.053 1591.18 300.977 1592.47 300.158C1594.22 299.215 1596.08 300.158 1597.43 301.548C1598.75 302.901 1597.96 312.319 1597.88 313.322ZM1617 241.879C1616.61 235.094 1617 232.538 1617 232.538C1621.11 239.759 1628.12 244.871 1628.12 244.871C1628.12 244.871 1618.4 242.985 1616.99 241.879H1617ZM1677.57 357.666C1676.93 357.517 1676.35 357.371 1675.83 357.24C1672.81 356.475 1671.69 356.188 1669.35 358.559C1666.61 361.338 1674.75 372.12 1674.75 372.12C1674.75 372.12 1665.04 366.784 1661.53 365.02C1659.71 364.098 1657.79 364.987 1656.12 365.763C1654.59 366.474 1653.27 367.09 1652.4 366.135C1648.6 361.916 1647.19 358.914 1647.49 357.798C1647.79 356.682 1652.4 354.36 1658.81 354.583C1662.73 354.72 1664.94 354.144 1666.72 353.678C1667.84 353.383 1668.81 353.133 1669.92 353.133C1671.35 353.133 1673.38 353.487 1675.35 353.832L1675.36 353.833C1677.38 354.185 1679.33 354.528 1680.54 354.472C1682.92 354.36 1685.04 354.025 1685.04 354.025L1686.54 357.352C1683.6 358.121 1680.54 358.228 1677.57 357.666H1677.57ZM1707.41 337.665C1700.2 341.002 1681.98 342.554 1677.57 341.225C1674.19 340.204 1661.43 329.319 1655 323.839C1653.06 322.192 1651.7 321.033 1651.34 320.778C1651.34 320.778 1657.95 320.18 1660.89 321.66L1661.61 322.024C1663.8 323.148 1663.95 323.221 1669.17 324.034C1671.96 324.468 1674.27 323.885 1676.3 323.376C1678.44 322.838 1680.26 322.381 1681.96 323.293C1685.28 325.068 1692.24 325.22 1694.91 323.74C1696.04 323.112 1697.82 323.381 1699.78 323.676C1702.44 324.078 1705.44 324.53 1707.59 322.847C1711.33 319.926 1718.8 320.818 1718.8 320.818C1718.8 320.818 1714.58 334.328 1707.4 337.665H1707.41ZM1728.04 431.676C1728.04 431.676 1720.23 422.122 1714.82 421.534C1721.27 418.877 1727.44 415.478 1733.25 411.392L1728.04 431.676ZM1807.46 389.676C1803.73 392.932 1806 396.046 1806 396.046C1798.56 394.591 1791.52 391.244 1785.44 386.268C1797.05 383.449 1807.46 389.676 1807.46 389.676H1807.46ZM1789.98 474.579L1795.18 464.051L1803.33 463.463L1789.98 474.579ZM1791.41 451.901V438.218C1791.41 438.218 1807.34 442.438 1822.65 439.659C1809.4 448.457 1791.87 451.814 1791.41 451.901ZM1821.76 377.008C1818.37 376.182 1813.3 372.686 1809.76 370.244C1808.52 369.388 1807.46 368.662 1806.74 368.225C1803.89 366.399 1800.95 364.766 1797.92 363.336L1797.49 363.162C1795.09 362.202 1792.56 361.192 1796.63 359.279C1800.94 357.251 1813.44 356.115 1813.44 356.115C1813.44 356.115 1818.64 362.444 1822.58 362.444C1822.58 362.444 1815.21 365.669 1807.76 364.229C1829.09 375.446 1835.18 367.099 1835.18 367.099L1835.87 375.893C1832.46 379.118 1826.35 378.114 1821.75 377.008H1821.76ZM544.979 378.067C545.06 378.225 545.145 378.389 545.231 378.56C545.523 379.139 545.651 379.643 545.649 380.058C547.155 379.372 547.456 378.473 546.207 378.229C545.944 378.182 545.68 378.144 545.415 378.116C545.27 378.098 545.124 378.082 544.979 378.067ZM539.509 383.36L539.371 383.426C536.927 384.555 532.865 382.809 532.865 382.809C532.865 382.809 537.786 389.575 539.813 392.337C541.121 394.121 544.972 395.183 549.175 395.186C550.902 394.857 552.862 394.382 554.929 393.268C558.428 391.383 560.61 388.296 562.457 385.686C563.188 384.651 563.866 383.692 564.553 382.912C562.222 384.033 559.518 383.75 559.162 382.969C558.805 382.187 556.693 381.91 555.281 383.138C554.341 383.956 553.713 383.711 553.056 383.455C552.726 383.327 552.389 383.195 552.001 383.195C551.521 383.195 551.04 383.448 550.523 383.72C549.795 384.103 548.995 384.523 548.023 384.328C547.145 384.151 546.591 384.38 545.951 384.644C545.378 384.881 544.738 385.145 543.738 385.171C542.405 385.207 540.593 384.26 539.509 383.36ZM544.579 401.575C547.483 405.358 542.78 410.112 532.253 410.671C533.601 413.113 535.105 415.444 536.754 417.646C537.336 417.637 537.992 417.619 538.744 417.599C540.207 417.561 542.036 417.512 544.411 417.492C550.315 417.442 554.862 414.354 557.786 412.369L557.798 412.36C558.167 412.11 558.509 411.877 558.825 411.671C560.19 410.779 561.555 409.401 563.01 407.932L563.012 407.93C564.568 406.359 566.229 404.683 568.102 403.387C570.98 401.397 572.146 399 573.411 396.398C573.741 395.721 574.077 395.029 574.453 394.327C572.021 395.057 571.261 394.004 570.799 393.365C570.677 393.195 570.575 393.055 570.469 392.985C570.038 392.699 568.978 393.843 566.947 396.038L566.945 396.041L565.833 397.238C563.063 400.205 556.861 403.393 556.861 403.393C558.078 400.821 559.586 398.432 561.35 396.287C557.163 400.879 550.257 401.547 547.436 401.66C546.502 401.697 545.501 401.667 544.579 401.575ZM554.328 441.051C555.306 441.681 556.837 442.502 558.914 443.131C563.341 440.086 566.828 435.615 568.909 430.312C568.909 430.312 558.994 439.116 556.004 440.328C555.442 440.557 554.876 440.802 554.328 441.051ZM552.394 447.429C549.506 447.206 546.555 446.496 543.823 445.089C543.551 448.005 540.229 449.078 540.229 449.078C540.229 449.078 540.379 451.411 542.126 454.65C545.083 452.521 548.724 449.924 552.394 447.429ZM545.772 459.639C546.21 460.105 546.664 460.554 547.132 460.985L547.26 460.875C549.967 458.556 552.875 456.065 556.056 453.533C553.87 455.162 549.937 457.413 545.772 459.639ZM550.636 489.461L550.517 489.434L550.602 489.506L550.636 489.461ZM979.76 435.702C979.76 435.702 978.551 438.572 976.773 441.183L976.22 440.973L976.217 440.972C974.84 440.446 973.592 439.97 972.357 440.215C971.246 440.436 970.913 439.471 970.603 438.568C970.388 437.943 970.182 437.347 969.736 437.197C968.644 436.829 969.333 434.207 970.246 433.234C970.422 433.009 970.613 432.801 970.818 432.612C971.034 433.121 971.499 433.845 972.505 434.641C974.421 436.16 979.76 435.702 979.76 435.702ZM974.833 411.038L974.544 411.209L974.467 411.254C973.398 410.936 972.382 410.814 971.332 410.958C969.18 411.252 966.558 409.916 965.554 408.795C964.97 408.179 964.551 407.395 964.345 406.53C964.345 406.53 974.545 404.74 976.774 400.188C974.021 400.635 969.451 401.977 969.451 401.977C969.451 401.977 973.494 397.969 976.01 393.272C980.31 392.89 985.841 390.82 985.841 390.82C985.841 390.82 978.824 397.451 980.297 399.101C981.771 400.752 987.79 399.795 987.79 399.795C987.79 399.795 985.505 404.657 974.833 411.038ZM969.705 393.074C970.797 393.219 971.834 393.273 972.794 393.299C972.147 393.994 971.513 394.705 970.894 395.431C970.894 395.431 970.588 393.79 969.705 393.074ZM963.381 391.039C964.901 391.877 966.519 392.475 968.188 392.816C967.03 393.054 966.61 393.806 966.61 393.806C966.61 393.806 964.141 392.538 963.503 391.236L963.448 391.145L963.426 391.109L963.381 391.039ZM967.166 381.095C967.166 381.095 966.214 381.708 964.787 382.491C964.81 382.085 964.797 381.678 964.747 381.275C964.721 381.057 964.686 380.841 964.644 380.626C966.195 380.984 967.166 381.095 967.166 381.095ZM598 446.081L593.461 437.124L606.666 443.392L598 446.081ZM118.233 422.674C118.725 425.148 119.852 427.41 121.479 429.187C123.853 428.346 126.721 427.659 126.721 427.659L118.233 422.674ZM140.576 417.409L133.586 416.855L137.456 421.153L140.576 417.409ZM139.326 447.066C141.766 450.638 144.991 453.453 148.692 455.241L156.427 448.468C156.427 448.468 146.197 449.975 139.326 447.066ZM309.206 401.62L310.703 406.051L317.82 402.587L312.95 397.041L309.206 401.62ZM398.326 406.464L402.823 411.456L405.816 406.464H398.326ZM402.823 394.132L409.434 397.876L413.805 394.132H402.823ZM402.823 380.418L411.436 384.295V384.316C411.436 384.316 417.922 380.678 420.044 377.922C416.085 380.138 402.823 380.418 402.823 380.418ZM497.282 401.142C498.096 400.916 498.725 400.742 499.054 400.603V400.589C500.721 399.846 502.83 396.355 502.83 396.355C502.83 396.355 501.498 396.908 493.926 398.016C486.354 399.124 485.186 396.908 488.186 394.321C491.185 391.734 495.928 387.394 495.928 387.394C495.928 387.394 487.857 389.147 481.611 387.394C483.777 389.343 486.31 398.759 483.278 396.355C480.248 393.95 470.017 394.132 470.017 394.132L478.454 405.223L471.962 402.728L483.108 414.366H480.481L492.48 424.806C492.48 424.806 493.503 419.358 495.398 416.217C495.398 416.217 483.917 411.968 485.994 407.439C487.66 403.807 493.986 402.055 497.282 401.142Z" fill="#3D4833"/>
</svg>
