<svg width="390" height="246" viewBox="0 0 390 246" fill="none" xmlns="http://www.w3.org/2000/svg">
<path opacity="0.64" fill-rule="evenodd" clip-rule="evenodd" d="M390 115.964C390 115.964 388.318 116.055 387.139 116.197C386.27 116.302 385.637 116.069 384.932 115.809C384.679 115.716 384.416 115.619 384.129 115.533C383.337 115.296 382.911 114.907 382.408 114.45C382.222 114.28 382.024 114.101 381.796 113.917C380.948 113.236 380.887 112.641 381.065 112.299C381.161 112.112 381.481 111.914 381.845 111.689C382.145 111.504 382.476 111.3 382.736 111.069C383.306 110.557 383.617 110.368 385.082 110.656C386.546 110.944 388.237 109.65 388.237 109.65C388.237 109.65 386.38 109.896 385.2 109.237C385.893 109.338 386.219 109.096 386.617 108.801C386.85 108.628 387.107 108.437 387.477 108.285C388.482 107.872 389.009 106.253 389.009 106.253C389.009 106.253 386.054 106.558 384.765 106.145C383.478 105.732 382.747 105.356 380.399 103.193C384.943 104.111 386.881 101.435 386.881 101.435C386.881 101.435 385.524 102.224 383.112 101.435C384.251 101.022 385.524 99.8707 385.524 99.8707C385.524 99.8707 383.26 99.8166 381.836 99.4403C380.414 99.0639 377.73 97.3742 377.349 96.8159C377.027 96.3392 376.504 94.8165 375.945 93.1857C375.888 93.0199 375.83 92.853 375.773 92.6859C375.735 92.5722 375.695 92.4582 375.656 92.3445C379.126 95.7017 381.675 93.4217 381.675 93.4217C381.675 93.4217 379.966 93.3848 379.152 92.5412C379.911 92.7133 380.198 91.9907 380.439 91.3847C380.575 91.0464 380.695 90.7445 380.874 90.6548C381.375 90.4038 381.417 89.9905 380.969 89.5405C380.62 89.1886 380.344 89.4306 380.112 89.6362C380.046 89.6937 379.984 89.7483 379.925 89.7864L379.894 89.8055C379.642 89.9702 379.498 90.063 378.977 88.8025C378.497 87.6492 377.565 86.8686 376.898 86.3104C376.808 86.2354 376.724 86.1644 376.645 86.097C376.243 85.7514 375.963 85.0414 375.673 84.2996C375.484 83.8223 375.292 83.3317 375.058 82.9168C374.548 82.0118 374.168 81.9977 374 81.9914C373.977 81.9919 373.954 81.9896 373.932 81.9846C373.826 81.9502 373.769 81.7388 373.892 81.3183C375.002 81.6786 375.844 80.5798 376.539 79.6748C376.607 79.5856 376.675 79.4983 376.739 79.4144C377.47 78.4798 377.444 76.3965 377.444 76.3965C377.444 76.3965 376.603 78.0125 375.927 78.0125C375.837 75.338 375.022 73.8628 374.471 72.8645C374.416 72.7672 374.365 72.6743 374.318 72.5856C374.25 72.459 374.188 72.3404 374.137 72.2277C373.851 71.6022 373.888 70.0609 373.926 68.5526C373.948 67.6345 373.97 66.7285 373.919 66.0492C373.855 65.1879 373.634 64.5491 373.42 63.9351C373.19 63.269 372.97 62.6322 372.97 61.772C372.97 61.4978 372.974 61.2257 372.979 60.9618V60.9609C373.005 59.6354 373.025 58.5257 372.374 58.4663C371.804 58.4144 371.805 61.2591 371.805 63.9747C371.807 64.9873 371.807 65.9821 371.778 66.8017C371.019 67.463 371.081 70.7355 371.125 73.0415C371.142 73.8752 371.155 74.5826 371.127 74.9946C371.019 76.5466 369.31 78.8045 369.31 78.8045L371.019 77.8699C370.855 79.3062 371.506 81.2467 371.506 81.2467C371.506 81.2467 370.577 82.1813 370.421 83.33C369.77 82.9709 365.188 81.6772 362.936 81.3624C360.685 81.0476 359.954 79.3947 359.954 79.3947C359.954 79.3947 365.757 81.0108 368.035 79.5373C368.035 79.5373 364.591 78.4946 364.644 78.3864C364.698 78.278 365.677 77.6681 366.461 77.5968C366.724 77.5731 366.995 77.6131 367.258 77.6519C367.781 77.7293 368.269 77.8013 368.578 77.351C369.039 76.6746 370.557 74.4412 369.77 73.6616C369.359 73.2522 368.902 73.5304 368.425 73.8192C367.995 74.0806 367.551 74.3507 367.114 74.1289C366.83 73.9853 366.626 73.8553 366.401 73.712C365.892 73.3887 365.276 72.9971 363.4 72.225C366.9 72.5473 367.856 69.7803 367.225 69.0992C366.883 68.7301 366.457 68.8768 365.977 69.0434C365.569 69.184 365.121 69.339 364.647 69.2073C364.272 69.1023 363.905 69.112 363.477 69.1234C362.731 69.1428 361.802 69.1673 360.338 68.5948C358.034 67.6946 356.297 64.4628 356.297 64.4628C356.297 64.4628 359.659 65.2892 360.363 65.2892C360.654 65.2892 360.817 65.1978 361.042 65.0703C361.365 64.8879 361.817 64.6321 362.963 64.4628C364.911 64.175 368.008 60.0282 368.008 60.0282C368.008 60.0282 366.708 61.0537 363.799 60.9725C365.468 59.428 366.454 57.5271 366.984 56.5049C367.074 56.3323 367.15 56.1848 367.216 56.0682C367.566 55.3605 367.865 54.6113 368.11 53.8302C368.11 53.8302 364.165 57.2538 363.046 57.603C362.327 57.8275 360.608 57.56 359.197 57.3403L359.195 57.3401C358.411 57.2184 357.721 57.1112 357.352 57.1112C356.313 57.1112 355.257 56.7617 353.792 55.1976C356.498 54.9517 357.087 54.2286 357.087 53.7218C357.087 53.2152 356.498 52.534 356.498 52.534C357.967 52.0409 359.377 51.2793 360.687 50.271C362.678 48.6821 363.269 45.2585 363.269 45.2585C363.269 45.2585 362.537 46.7145 361.886 47.2533C361.235 47.7919 359.222 48.4386 358.449 48.5199C357.674 48.6011 357.167 48.5468 356.355 47.6566C355.732 46.9749 354.907 46.7603 354.362 46.6189C354.196 46.5755 354.055 46.5391 353.955 46.4982C353.527 46.3236 352.916 45.1773 353.549 44.7764C353.786 44.6253 353.946 44.7185 354.172 44.8513C354.549 45.0708 355.11 45.3989 356.518 44.9117C358.305 44.2931 359.083 42.3269 359.895 40.2783C360.109 39.7365 360.327 39.1892 360.564 38.6594C360.528 38.7013 360.478 38.7578 360.422 38.8257C360.034 39.2802 359.226 40.2293 358.571 40.4648C357.818 40.7354 355.502 40.8952 355.502 40.8952C355.159 40.3576 354.696 39.98 354.18 39.818C355.074 39.4957 356.191 37.9314 357.127 36.1286C356.03 37.2058 354.037 38.2316 352.066 37.8256C352.033 36.948 351.744 36.7511 351.549 36.6187C351.492 36.5804 351.444 36.5474 351.411 36.5047C351.269 36.3156 351.373 35.0784 351.9 33.433C352.21 32.4623 352.013 31.6809 351.834 30.9656C351.708 30.4679 351.591 30.0021 351.656 29.527C351.819 28.3686 351.636 26.4551 351.472 25.2942C351.386 24.6955 351.064 24.3422 350.755 24.0034C350.466 23.685 350.188 23.3797 350.13 22.8961C350.089 22.5663 350.093 22.2101 350.097 21.8784C350.104 21.2061 350.111 20.6336 349.742 20.5793C349.194 20.498 349 23.1127 349.234 24.0817C349.468 25.0507 349.499 27.8004 349.131 29.4189C348.764 31.0373 348.848 32.2474 349.214 33.2729C349.495 34.0632 349.428 34.9952 349.382 35.6276C349.369 35.816 349.356 35.9778 349.356 36.1015C349.356 36.6401 348.93 37.287 348.462 37.5773C348.413 37.6079 348.351 37.6435 348.279 37.6847L348.277 37.6857C347.665 38.0366 346.365 38.7821 346.53 40.0836C346.678 41.2575 347.089 41.4306 348.523 42.0335C348.866 42.1785 349.27 42.3483 349.742 42.5629C349.557 43.2341 348.629 43.7213 346.998 44.2844C345.951 44.6918 344.995 45.4314 344.213 46.439C344.213 46.439 342.891 45.8732 342.811 47.086C342.728 48.2985 343.644 48.515 345.109 48.515C345.877 48.5022 346.643 48.5565 347.405 48.6773C347.405 48.6773 347.122 49.3783 346.228 50.1308C345.598 50.6857 344.882 51.0455 344.133 51.1835C343.48 51.3436 342.953 53.1511 344.07 53.69C344.654 53.9713 345.145 53.8331 345.703 53.6754C346.213 53.5314 346.78 53.3713 347.528 53.5004C348.645 53.6931 348.965 53.1124 349.122 52.825C349.186 52.7091 349.225 52.6409 349.278 52.6914C349.46 52.866 349.581 54.3637 348.932 55.468C348.283 56.5723 346.233 58.3065 345.657 58.385C345.081 58.4638 343.134 60.4339 341.181 62.8123C342.668 63.1514 343.525 62.7241 344.193 62.3914C344.692 62.1423 345.085 61.9464 345.555 62.1656C346.654 62.677 348.711 61.5727 348.711 61.5727C348.711 61.5727 345.01 64.1061 345.133 65.2104C345.255 66.3148 348.936 65.8303 348.936 65.8303C348.936 65.8303 346.82 68.4177 345.334 69.7115C343.849 71.0052 342.081 71.0593 342.081 71.0593C342.081 71.0593 344.074 69.1998 344.44 68.821C344.805 68.4422 344.846 67.3454 344.237 67.0428C343.939 66.8946 343.196 66.8398 342.364 66.7782C341.496 66.7137 340.529 66.6422 339.865 66.4501C338.563 66.0737 336.956 64.7283 336.956 64.7283C336.956 64.7283 338.069 63.865 338.135 63.4618C338.203 63.0582 338.157 61.1447 337.579 60.7562C337.263 60.5438 337.007 60.6526 336.704 60.7817C336.451 60.8886 336.168 61.0094 335.789 60.9725C334.956 60.8915 332.963 59.7059 330.847 57.2834C331.723 57.9029 336.044 58.5771 337.457 58.0654C337.887 57.9097 338.285 57.8064 338.677 57.7043L338.678 57.7038C339.576 57.4706 340.446 57.2443 341.606 56.4198C340.569 56.8774 338.433 56.9315 336.989 55.7461C339.287 54.4252 339.287 52.8905 339.031 52.3519C338.834 51.9367 338.457 51.9847 338.016 52.0407C337.885 52.0575 337.748 52.0752 337.607 52.0812C337.475 52.0871 337.353 52.1043 337.228 52.1215C336.773 52.1848 336.294 52.2515 335.288 51.7861C334.403 51.3871 333.5 51.0586 332.584 50.8023C332.584 50.8023 335.634 49.8604 336.631 48.9428C337.627 48.0254 338.583 46.9482 338.218 45.5216C338.218 45.5216 339.925 45.0888 340.841 44.0926C339.742 44.255 334.82 44.3632 332.544 44.0926C332.07 44.0363 331.65 43.9941 331.275 43.9565C329.845 43.8132 329.081 43.7366 328.618 43.2048C328.138 42.7033 327.62 42.2697 327.072 41.911C327.072 41.911 326.911 40.5632 327.256 40.3738C327.415 40.2875 327.792 40.3971 328.315 40.5494L328.317 40.5496C328.944 40.7322 329.783 40.9764 330.716 41.0206C332.425 41.1018 334.539 40.2826 334.539 40.2826C334.539 40.2826 332.891 40.1204 332.038 39.7171C331.184 39.3136 330.348 38.074 330.348 38.074C330.925 38.3817 331.525 38.6076 332.138 38.7479C332.835 38.8783 333.464 38.3846 334.332 37.7007L334.334 37.6995C334.532 37.5446 334.74 37.3799 334.967 37.2107C336.188 36.2933 336.349 34.9971 335.799 33.7082C336.389 33.1156 336.998 31.0398 336.998 31.0398C336.998 31.0398 335.576 33.0343 334.499 33.3294C333.422 33.6248 332.606 33.8215 331.776 33.4648C331.2 33.2167 330.695 33.2484 330.167 33.2814C329.937 33.296 329.701 33.3108 329.452 33.3025C328.639 33.2754 327.664 32.5498 326.362 30.5012C326.92 31.2389 328.335 30.9585 329.086 30.4468C329.84 29.9354 331.467 28.2112 331.712 27.4954C331.957 26.7798 331.467 26.1206 331.105 25.9582C330.882 25.858 330.747 25.9754 330.504 26.1871C330.352 26.3183 330.16 26.4854 329.88 26.6592C329.147 27.1142 328.64 27.1978 328.558 26.9299C328.476 26.6617 328.885 26.337 329.514 26.1206C330.143 25.9041 330.674 24.9622 330.999 23.6956C331.324 22.4288 330.814 21.0539 330.613 20.7047C330.412 20.3554 329.92 20.1389 329.5 20.9505C329.077 21.7622 328.26 22.6231 327.71 22.7829C327.286 22.9065 326.814 22.7276 325.927 22.3912C325.627 22.277 325.327 22.1657 325.026 22.0573C325.879 21.841 326.898 20.225 326.898 20.225C326.898 20.225 324.62 20.5473 324.484 20.4709C324.349 20.3947 323.996 19.3396 324.221 19.0173C324.327 18.8646 324.589 18.203 324.874 17.4772C325.192 16.6711 325.541 15.786 325.744 15.4315C326.13 14.7573 326.132 13.8155 326.009 13.653C325.947 13.5701 325.64 14.1569 325.338 14.7326C325.051 15.2826 324.768 15.8222 324.711 15.756C324.592 15.6206 324.506 13.8155 324.486 12.5586C324.466 11.3017 324.243 10.2415 323.998 9.1374C323.777 8.14582 323.724 6.60934 323.671 5.09735V5.09541C323.665 4.92372 323.658 4.75227 323.652 4.58228C323.59 2.91218 323.124 0 323.124 0C323.124 0 322.716 5.06679 322.451 6.46869C322.237 7.60262 322.248 8.94752 322.259 10.4042V10.4054C322.263 10.7493 322.267 11.0992 322.267 11.4542C322.267 12.5251 322.091 13.5688 321.923 14.5704C321.798 15.3081 321.678 16.0225 321.634 16.7078C321.533 18.3238 322.053 20.4267 322.053 20.4267C322.053 20.4267 320.211 21.5064 319.295 21.6C318.381 21.6933 316.511 21.1276 316.511 21.1276C316.511 21.1276 317.578 22.5421 318.769 22.7977C317.655 23.5356 315.984 23.0142 315.984 23.0142C315.984 23.0142 316.127 24.0914 317.814 25.1441C318.851 25.7913 319.429 25.8054 319.78 25.8139C319.999 25.8192 320.129 25.8226 320.228 25.9781C320.301 26.0928 320.594 26.4252 320.972 26.8566L320.974 26.8581C321.93 27.9438 323.431 29.6514 323.36 30.0756C323.258 30.6682 321.815 32.2571 321.02 32.5006C320.226 32.7443 317.866 32.9926 315.205 31.8269C316.485 34.3331 319.334 34.5495 319.334 34.5495C319.334 34.5495 316.505 34.9527 315.469 34.3872C314.884 34.0512 314.249 33.8948 313.613 33.9296C313.613 33.9296 314.406 36.1114 315.423 36.409C316.249 36.6017 317.057 36.9323 317.822 37.3928C318.983 38.0395 321.076 37.5009 321.076 37.5009C321.076 37.5009 317.802 41.0574 315.24 41.6821C315.869 43.0302 316.988 43.2196 319.124 42.9761C321.257 42.7324 323.782 41.3601 323.782 41.3601C323.237 42.6032 322.511 43.6901 321.647 44.5574C320.308 45.9053 319.74 45.8116 319.145 45.7142L319.085 45.7042L319.003 45.6914C318.354 45.5953 317.761 45.6101 317.03 46.3898C316.314 47.1862 315.436 47.6835 314.507 47.8188C313.492 47.9813 312.819 47.927 312.229 47.3074C311.64 46.6876 310.583 46.6876 310.583 46.6876L310.603 46.3112C310.603 46.3112 310.949 46.5571 312.351 46.23C313.755 45.9028 314.059 44.0729 314.059 44.0729C313.771 44.4172 313.409 44.6339 313.024 44.6928C313.011 44.037 312.702 43.626 312.316 43.1126C312.035 42.7404 311.713 42.3143 311.437 41.702C311.104 40.9648 311.086 40.58 311.069 40.1876C311.053 39.8049 311.036 39.4152 310.724 38.6841C310.241 37.5502 310.247 36.9672 310.259 35.97C310.261 35.665 310.267 35.3211 310.256 34.911C310.232 33.8394 310.093 33.3425 309.961 32.8716C309.877 32.5726 309.797 32.2843 309.749 31.8662C309.629 30.7888 309.749 27.7168 309.749 27.7168C309.749 27.7168 308.59 31.0298 308.59 32.3776C308.59 32.6342 308.592 32.9414 308.596 33.2783C308.61 34.7105 308.628 36.6764 308.446 37.5429C308.223 38.6128 307.104 40.7402 307.104 40.7402C307.005 39.7944 306.971 38.8387 307.003 37.8848C306.008 39.9334 306.8 42.5209 306.8 42.5209C306.8 42.5209 306.242 41.766 305.824 40.1204C305.559 43.9476 307.837 45.4035 307.837 45.4035C307.423 45.875 306.973 46.2873 306.495 46.6335C306.264 46.7794 306.073 47.0149 305.946 47.3086C305.818 47.6014 305.761 47.9393 305.783 48.2764C305.783 48.2764 305.398 47.6835 304.67 46.6604C305.087 49.1494 305.707 50.2169 307.844 50.9992C307.588 50.9992 307.29 51.2407 306.959 51.5085C306.549 51.84 306.089 52.2117 305.604 52.2117C304.924 52.2117 303.853 51.5933 303.266 51.2546C303.097 51.1576 302.968 51.0834 302.9 51.0533C302.595 50.918 301.924 50.8639 302.33 52.1845C302.737 53.5054 304.001 54.6908 304.001 54.6908C304.001 54.6908 302.955 54.1522 302.496 54.0981C303.386 55.8073 305.09 56.9225 306.111 57.5891C306.559 57.8821 306.873 58.0882 306.93 58.2204C307.115 58.6532 307.133 60.7266 306.725 61.7793C306.319 62.832 302.414 66.0097 301.58 65.9828C300.746 65.9556 298.305 63.8258 298.305 63.8258C298.305 63.8258 299.75 63.7717 301.785 63.4766C303.82 63.1814 304.732 61.6243 304.732 61.6243C304.732 61.6243 303.58 61.804 303.16 61.6612C304.644 60.4759 305.275 59.145 304.95 58.9852C304.807 58.9156 304.224 58.951 303.494 58.9954H303.492C302.549 59.0526 301.364 59.1247 300.583 59.0024C299.201 58.7861 297.411 57.0348 297.411 57.0348C297.411 57.0348 300.009 55.1484 300.123 54.1966C300.865 54.1253 301.412 52.7404 301.317 52.3444C301.222 51.9483 300.666 51.6263 300.273 52.0592C299.943 52.4195 299.607 52.3657 299.176 52.2963C299.088 52.2823 298.998 52.268 298.901 52.2558C298.333 52.1845 297.574 51.3385 297.642 51.1049C297.678 50.9798 297.892 50.9992 298.15 51.0222C298.375 51.0424 298.633 51.0654 298.835 50.9992C299.027 50.9357 299.128 50.7582 299.227 50.5807C299.351 50.3583 299.475 50.1359 299.784 50.1359C300.338 50.1359 300.624 50.0103 301.181 49.4176C301.552 49.5799 302.061 49.7055 302.253 49.1298C302.302 48.9377 302.32 48.7333 302.304 48.5313C302.287 48.3291 302.237 48.1344 302.156 47.9614C302.156 47.9614 302.971 46.9187 302.876 45.9938C303.525 45.5978 303.933 45.2389 304.361 44.0261C303.858 44.6731 302.814 45.283 301.838 45.283C301.291 45.283 300.854 45.3793 300.47 45.4637C300.17 45.5294 299.903 45.5881 299.642 45.5881C299.47 45.5881 299.192 45.6164 298.885 45.648L298.883 45.6482C298.126 45.7256 297.194 45.8211 297.243 45.5536C297.311 45.1773 297.961 44.5281 298.883 44.223C299.806 43.918 300.53 43.254 300.666 42.7152C300.801 42.1766 300.41 41.3576 300.037 41.6011C299.742 41.8135 299.406 41.8994 299.073 41.847C298.949 41.8296 298.823 41.7151 298.682 41.5873C298.466 41.3923 298.217 41.1668 297.894 41.21C297.36 41.2813 296.985 41.0402 297.025 40.8067C297.047 40.6852 297.097 40.6534 297.256 40.5508C297.402 40.4565 297.643 40.3018 298.042 39.9606C298.874 39.2498 299.018 37.8133 299.018 37.8133C299.018 37.8133 298.592 38.389 298.265 38.4258C298.146 38.106 297.621 38.1091 297.322 38.1108L297.263 38.1111C296.98 38.1111 296.422 37.7791 296.395 37.5009C296.376 37.3181 296.579 37.1852 296.813 37.031C296.936 36.9509 297.067 36.8648 297.181 36.7632C297.514 36.4655 298.055 35.9096 297.949 35.3883C297.87 35.0117 297.537 34.8596 297.283 34.7442C297.186 34.6996 297.1 34.6603 297.045 34.6159C296.85 34.4561 296.347 34.0133 296.347 33.6001C296.347 33.4194 296.376 33.2179 296.411 32.9747C296.455 32.6621 296.508 32.2801 296.524 31.785C296.552 30.9044 296.55 30.0067 296.294 29.2171C296.038 28.4275 296.159 26.3052 296.159 26.3052C295.908 27.102 295.782 27.9579 295.787 28.8211C295.815 30.1862 295.61 33.4378 295.261 33.7798C295.215 33.8227 295.168 33.8683 295.115 33.9163C294.754 34.2502 294.248 34.719 294.188 35.5013C294.118 36.3966 295.115 36.9575 295.115 36.9575C295.115 36.9575 293.937 37.1542 293.61 38.0002C293.283 38.8463 294.248 40.4427 294.248 40.4427C294.248 40.4427 293.773 40.4427 293.177 40.3886C292.582 40.3343 291.714 39.7588 291.714 39.7588C291.714 39.7588 291.604 40.3515 292.608 41.0182C291.984 41.0354 291.849 41.8717 291.849 41.8717C291.25 41.3431 290.709 40.7083 290.24 39.9851C290.973 43.6745 294.614 44.8256 294.614 44.8256C294.411 45.0677 294.17 45.2459 293.908 45.347C293.593 45.4576 293.166 45.4515 292.584 45.443H292.577C292.41 45.4406 292.231 45.438 292.037 45.438C291.169 45.438 290.6 46.3529 290.615 46.8917C290.628 47.4303 291.021 48.419 292.079 48.2027C292.036 48.5749 292.5 48.8676 293.171 49.2898C293.343 49.3973 293.528 49.5134 293.72 49.6414C292.688 49.4618 290.953 49.8873 290.355 50.1087C289.759 50.3302 288.525 49.9834 288.525 49.9834L288.973 52.534C288.973 52.534 289.746 52.6053 289.964 53.1611C290.182 53.7169 291.021 53.7021 291.021 53.7021C290.548 54.1548 289.967 54.3654 289.386 54.2948C289.825 55.1714 291.418 54.9393 292.476 54.7851C293.041 54.7029 293.454 54.6428 293.454 54.7868C293.454 55.2 291.644 56.6732 290.811 57.0496C290.291 57.2365 289.746 57.2693 289.216 57.1456C289.322 56.4717 289.33 55.8667 289.123 55.7558C288.69 55.5099 287.753 55.9355 287.035 56.3485C286.316 56.7617 285.029 56.3854 285.029 56.3854C285.029 56.3854 286.113 56.0265 286.327 55.3623C285.788 55.2333 285.274 54.6192 284.865 54.1294C284.588 53.7972 284.358 53.5219 284.199 53.4931C284.011 53.4589 283.76 53.5971 283.501 53.7409C283.215 53.8976 282.921 54.0608 282.681 54.0145C282.332 53.9475 282.263 53.6519 282.173 53.2712C282.144 53.149 282.113 53.018 282.071 52.8832C281.983 52.6087 282.018 52.3858 282.058 52.1336C282.1 51.8746 282.146 51.5846 282.071 51.1762C281.978 50.6835 281.67 50.2496 281.402 49.8701C281.23 49.6279 281.074 49.4077 280.999 49.2086C280.807 48.6969 280.756 47.1793 280.756 46.2103C280.756 46.0066 280.767 45.6965 280.782 45.3339C280.835 43.9708 280.915 41.8654 280.498 41.879C280.12 41.8914 280.136 42.4756 280.164 43.3197C280.173 43.6553 280.184 44.0317 280.173 44.4296C280.147 45.3359 280.034 45.7469 279.919 46.1727C279.855 46.4046 279.791 46.6405 279.74 46.963C279.668 47.4015 279.723 47.5191 279.785 47.6471C279.851 47.7866 279.924 47.9381 279.846 48.5272C279.71 49.696 279.33 50.7909 278.749 51.6877C278.41 51.7005 278.138 52.0752 277.878 52.43C277.741 52.6164 277.609 52.7973 277.474 52.9176C277.081 53.2668 276.904 53.7981 277.204 53.9432C277.502 54.0884 277.732 54.4818 277.597 54.6442C277.461 54.8065 277.449 55.2541 277.854 55.3254C278.26 55.3967 278.546 56.4397 278.397 56.8158C278.304 57.0508 277.624 57.0212 276.955 56.9921C276.553 56.9746 276.154 56.9572 275.889 56.9979C275.571 57.0469 275.311 57.188 275.084 57.3115C274.812 57.4606 274.585 57.5841 274.355 57.49C274.231 57.4386 274.095 57.3493 273.958 57.2598C273.64 57.0498 273.322 56.8408 273.15 57.1308C272.969 57.4354 273.084 57.7591 273.188 58.056C273.227 58.1614 273.263 58.2638 273.285 58.3605C273.315 58.4925 273.373 58.6173 273.435 58.7519C273.55 58.9937 273.678 59.2672 273.678 59.6715C272.649 59.4971 271.647 59.9773 271.022 60.2773C270.764 60.4002 270.572 60.4931 270.466 60.4979C270.374 60.5023 270.277 60.5001 270.182 60.4977C269.89 60.4911 269.603 60.4846 269.502 60.6602C269.367 60.8939 269.177 61.0906 268.716 60.8399C268.257 60.5889 267.482 60.7487 267.482 60.7487C267.482 60.7487 268.078 59.6887 268.742 58.3605C269.213 57.4206 269.105 56.8563 269.032 56.4673C269.001 56.3068 268.978 56.1759 269.001 56.0609C269.027 55.9377 269.179 55.7609 269.378 55.5291C269.815 55.0206 270.482 54.2463 270.546 53.1856C270.113 53.2569 269.062 54.4793 269.062 54.4793C269.062 54.4793 269.347 53.4734 269.55 52.8264C269.753 52.1797 269.645 50.94 269.537 50.7778C269.527 50.7628 269.516 50.749 269.504 50.7366C269.484 50.7145 269.458 50.6924 269.435 50.6699C269.296 50.5443 269.135 50.3968 269.427 50.0767C269.806 49.6635 269.93 48.515 269.93 48.515C269.93 48.515 266.787 52.3126 266.602 52.2411C266.416 52.1698 266.25 51.272 266.25 51.272C266.579 51.2434 266.904 51.1825 267.226 51.0901C267.597 50.9648 267.944 49.7988 267.944 49.4028C267.944 49.1528 267.69 49.1322 267.478 49.115C267.356 49.105 267.246 49.0963 267.211 49.0437C267.151 48.9554 267.224 48.8933 267.339 48.7937C267.411 48.7323 267.498 48.6567 267.582 48.5519C267.804 48.2764 267.623 47.1866 266.999 46.9187C266.376 46.6505 265.317 46.0922 265.154 45.5708C264.992 45.0495 265.154 44.0606 265.154 44.0606C265.867 44.2136 266.557 44.5167 267.197 44.9585C268.16 45.6594 270.018 46.68 272.512 45.1035C271.347 45.4799 269.394 45.0322 268.648 43.9352C269.34 44.0977 270.396 43.1628 270.654 41.5102C270.912 39.8573 270.371 39.8942 269.99 40.1279C269.61 40.3615 268.824 40.359 268.506 39.9114C268.354 39.6992 268.087 39.5629 267.833 39.4327C267.55 39.2882 267.283 39.1514 267.206 38.9276C267.1 38.6213 266.761 38.2459 266.478 37.9314C266.368 37.8089 266.266 37.6959 266.189 37.5994C265.913 37.255 265.619 36.8811 265.818 35.7671C266.239 36.0853 266.711 36.2661 267.195 36.2943C267.679 36.3225 268.161 36.1974 268.601 35.9293C268.601 35.9293 268.277 35.4964 267.354 35.0832C267.802 35.0832 269.89 32.8377 269.59 31.7602C269.292 30.683 267.326 30.9168 266.84 31.1676C266.354 31.4185 265.463 31.2216 265.076 30.9782C264.803 30.8053 264.823 30.6474 264.853 30.4354C264.865 30.3491 264.878 30.2536 264.873 30.1444C264.864 29.9696 264.792 29.9223 264.712 29.8675C264.619 29.8045 264.509 29.732 264.465 29.4434C264.385 28.9048 264.587 28.3907 264.933 28.7057C265.279 29.0205 265.829 29.1361 266.378 28.5163C266.928 27.8965 267.251 26.6568 266.783 26.2805C266.181 25.7401 265.709 24.9821 265.421 24.0963C265.076 23.0731 264.161 22.9922 264.161 22.9922C264.161 22.9922 264.202 19.5707 264.161 17.9254L264.158 17.7653L264.15 17.4847C264.107 15.6066 264.019 11.8624 263.776 11.8624C263.584 11.8624 263.606 13.6297 263.624 15.0452C263.631 15.5685 263.639 16.0436 263.633 16.3634C263.611 17.5492 263.225 19.3001 262.947 20.1906C262.669 21.081 262.746 22.9257 262.746 22.9257C262.533 22.6655 262.28 22.4693 262.005 22.3504C261.729 22.2316 261.438 22.1929 261.15 22.237C261.892 22.6158 262.28 24.2735 262.189 24.4505C262.173 24.4783 262.156 24.5047 262.137 24.5294C262.114 24.5619 262.083 24.6014 262.05 24.6467C261.777 25.0088 261.216 25.7516 261.192 26.4723C260.276 25.9041 258.751 26.4723 258.751 26.4723C258.751 26.4723 260.408 26.7674 260.958 27.7512C259.505 27.6038 258.934 28.6441 258.934 28.6441C258.934 28.6441 259.788 28.5015 260.711 28.4302C261.633 28.3589 262.637 28.5728 262.947 29.131C262.408 30.4961 261.307 31.1234 260.669 31.1234C260.331 31.1234 260.033 31.3177 259.76 31.4964C259.521 31.653 259.298 31.7978 259.082 31.7898C258.883 31.7825 258.684 31.8415 258.418 31.9198L258.417 31.92C258.067 32.0229 257.607 32.1589 256.886 32.2202C257.409 32.5005 257.965 32.6586 258.528 32.6875C258.777 32.6963 258.932 32.8469 259.115 33.0229C259.298 33.2012 259.508 33.4051 259.87 33.514C259.932 33.5327 259.989 33.5489 260.044 33.5632C260.112 33.5814 260.174 33.5969 260.23 33.611C260.653 33.7162 260.834 33.7609 261.388 34.4117C261.825 34.9236 262.328 35.1038 262.642 35.2163C262.825 35.2816 262.942 35.3242 262.947 35.3955C262.96 35.5898 262.69 36.0229 262.134 36.1851C262.041 36.2125 261.931 36.2467 261.808 36.2843L261.805 36.2858C261.203 36.4713 260.322 36.7434 259.748 36.7434C259.355 36.7434 259.071 36.8881 258.788 37.0329C258.572 37.1428 258.356 37.2526 258.093 37.2992C257.842 37.3438 257.521 37.282 257.21 37.2221C256.766 37.1367 256.347 37.0562 256.197 37.2992C255.941 37.7124 256.02 38.3766 256.901 38.9693C257.78 39.5622 259.435 40.5164 259.435 40.5164C259.435 40.5164 258.433 41.2347 258.013 41.6479C257.59 42.0609 257.064 42.2947 256.032 42.4004C255.003 42.5061 253.511 42.42 253.511 42.42C253.511 42.42 254.297 43.335 254.853 43.4262C255.345 43.5069 255.498 43.7269 255.725 44.0521C255.754 44.0935 255.784 44.1365 255.817 44.1811C256.1 44.5771 258.488 44.6115 259.952 44.6115C261.417 44.6115 261.889 43.9279 261.889 43.9279C261.889 43.9279 261.741 44.9117 261.252 45.0247C260.975 45.0892 260.837 45.2083 260.605 45.4115C260.347 45.6394 260.079 45.8461 259.803 46.0306C258.896 46.6408 258.581 46.6604 257.204 46.6408C256.259 46.6272 255.659 46.5163 254.78 46.3534C254.378 46.2789 253.919 46.1938 253.339 46.1022C254.826 47.9714 257.733 47.7206 257.733 47.7206C256.976 48.276 256.14 48.6144 255.279 48.7141C256.489 49.4232 257.555 49.1434 258.188 48.9768C258.42 48.9156 258.594 48.8701 258.696 48.8938C258.894 48.9394 259.124 49.116 259.382 49.3155L259.384 49.316C259.625 49.5015 259.892 49.7069 260.181 49.8456C260.479 49.9877 260.673 50.1953 260.876 50.4155C261.086 50.641 261.307 50.8799 261.668 51.0754C262.066 51.2921 262.432 51.3339 262.666 51.3603H262.668C262.85 51.3811 262.953 51.3928 262.929 51.4714C262.894 51.5892 262.682 51.6222 262.399 51.6666C262.253 51.6896 262.084 51.716 261.913 51.7592C261.721 51.807 261.549 51.9406 261.355 52.0931C261.037 52.3407 260.656 52.6373 260.027 52.6938C259.525 52.7389 258.921 52.5806 258.393 52.4418V52.4416C257.853 52.3005 257.393 52.1797 257.193 52.315C256.8 52.583 257.071 54.1842 257.464 55.1188C257.857 56.0536 259.675 56.8061 260.746 57.0399C261.817 57.2734 262.467 57.9374 262.494 58.5155C262.523 59.0934 260.528 60.6185 259.675 60.8867C259.19 61.0392 258.775 60.9839 258.353 60.9272C258.033 60.8845 257.707 60.8411 257.341 60.8867C256.493 60.9924 255.811 62.2173 256.299 63.4198C256.788 64.6226 258.647 65.9311 258.647 65.9311C258.647 65.9311 257.698 66.4525 257.005 66.3075C256.314 66.1622 255.052 66.3984 255.853 67.7463C256.371 68.6168 258.151 69.0868 259.351 69.313L259.23 69.4336C259.23 69.4336 257.724 71.0321 256.639 71.7873C255.557 72.5424 252.919 73.5706 252.919 73.5706C252.919 73.5706 254.067 71.603 253.915 70.956C253.763 70.309 253.275 70.0262 252.368 70.3141C254.621 68.8778 254.336 66.9739 254.158 66.8289C253.983 66.6836 253.657 66.7033 253.231 67.1337C252.803 67.5644 251.224 67.9604 250.6 67.8176C249.977 67.675 248.783 66.915 248.783 66.915C248.783 66.915 249.677 67.1116 250.03 66.915C250.132 66.858 250.22 66.7927 250.308 66.7268C250.523 66.565 250.746 66.3989 251.209 66.3395C251.86 66.2559 252.564 65.1712 252.05 63.5355C254.124 63.2503 255.859 60.5372 255.577 60.3578C255.455 60.2804 255.191 60.5198 254.855 60.8246C254.412 61.2266 253.844 61.7424 253.312 61.7941C253.787 60.0871 254.054 57.8588 253.394 57.6621C253.003 57.5457 252.675 58.0686 252.385 58.5344C252.184 58.8569 251.999 59.1521 251.822 59.1894C251.613 59.2335 251.388 59.3989 251.156 59.5699C250.909 59.7525 250.653 59.9416 250.397 59.9962C250.106 60.0585 249.942 60.0415 249.457 59.9913C249.117 59.9564 248.62 59.9053 247.814 59.8536C248.975 59.6371 249.841 57.967 250.004 56.6904C250.167 55.4139 250.017 54.8237 249.693 54.6983C249.512 54.6282 249.339 54.742 249.165 54.8562C249.026 54.9466 248.887 55.0376 248.744 55.0376C248.367 54.9953 248.001 54.8425 247.673 54.5901C247.302 54.344 246.208 54.5901 246.208 54.5901C246.208 54.5901 247.4 53.4218 247.711 52.7207C247.945 52.1981 248.45 51.5863 249.276 50.586C249.558 50.2448 249.876 49.8585 250.234 49.4152C249.816 49.3267 248.512 50.2244 248.512 50.2244C248.512 50.2244 248.335 49.398 247.848 49.1273C247.508 48.9377 246.76 49.2782 246.309 49.4831C246.117 49.5706 245.978 49.6332 245.951 49.6191C245.855 49.5726 245.773 49.3732 245.855 48.9355C246.208 48.9355 246.804 46.9235 246.887 46.0258C246.967 45.128 247.022 42.8997 246.75 42.3955C246.479 41.8914 246.261 41.4265 246.378 40.7427C246.495 40.0588 246.194 39.3776 245.402 38.2292C245.402 38.2292 245.226 42.7916 245.173 43.1876C245.148 43.3733 245.102 43.4795 245.007 43.6985C244.899 43.9466 244.729 44.3392 244.455 45.1552C244.171 45.9979 244.15 47.4934 244.135 48.5555C244.122 49.4307 244.113 50.0117 243.967 49.6907C243.778 49.3292 243.52 49.0397 243.221 48.8507C242.921 48.6617 242.59 48.5798 242.259 48.6132C241.635 48.7042 241.606 49.7176 241.851 50.1849L241.902 50.2817V50.2824C242.189 50.8273 242.884 52.1499 243.416 53.3381C243.985 54.6047 243.709 55.3598 243.709 55.3598C243.709 55.3598 243.261 55.468 242.222 56.2748C241.186 57.0816 241.776 59.1329 241.776 59.1329C241.776 59.1329 240.692 58.395 239.891 58.5203C241.058 60.1216 243.647 60.7142 243.647 60.7142C243.647 60.7142 241.356 61.7204 239.999 61.521C238.692 61.329 235.764 61.3404 235.492 61.3416H235.472C235.401 61.3416 238.388 63.7569 238.388 63.7569C238.388 63.7569 237.088 63.3068 236.287 63.8282C237.116 64.9253 239.392 64.9597 239.392 64.9597C240.091 65.465 240.866 65.7558 241.661 65.8106C241.65 66.6443 243.243 67.6553 243.243 67.6553C243.243 67.6553 240.721 69.2367 239.853 69.4164C239.46 69.4976 239.162 69.3725 238.904 69.2648C238.595 69.1348 238.346 69.0303 238.063 69.3451C237.547 69.9205 237.957 71.1405 238.959 71.1774C238.253 71.3913 234.998 72.4711 234.998 72.4711C234.998 72.4711 237.575 72.7934 238.035 73.081C238.337 73.2692 239.301 73.1649 240.175 73.0704L240.176 73.0701C240.639 73.0201 241.076 72.9729 241.378 72.9729C242.25 72.9729 242.12 73.6909 241.946 74.1584C241.774 74.6257 239.348 75.8111 237.988 76.0276C236.627 76.2439 235.004 76.5662 235.004 76.5662C235.004 76.5662 235.933 76.6031 237.147 77.5721C238.361 78.5414 240.537 79.1881 240.537 79.1881L238.421 80.2309C240.123 80.2588 241.822 80.4877 243.493 80.9147C242.517 81.9922 239.182 84.4712 236.415 85.0467C236.904 85.5387 240.021 87.526 242.652 85.5142C241.811 87.13 238.882 88.9994 237.58 88.9994C236.28 88.9994 235.168 87.5604 235.168 87.5604C235.168 87.5604 235.221 90.2192 237.635 91.3704C236.633 91.3335 234.733 92.0887 234.733 92.0887C234.733 92.0887 239.452 93.3824 243.574 91.909C242.87 94.0291 240.699 94.7843 239.099 95.3229C238.299 95.5923 237.763 95.5923 237.096 95.5923C236.428 95.5923 235.627 95.5923 234.3 95.8615C237.147 98.7712 240.103 98.567 240.103 98.567C240.103 98.567 239.48 99.6442 235.439 100.22C233.111 100.551 231.252 99.7735 230.095 99.054C230.142 99.0363 230.186 99.0222 230.226 99.0123C230.484 98.9509 230.881 99.0557 231.267 99.1573C231.694 99.2703 232.108 99.3794 232.298 99.2528C232.66 99.0123 233.144 97.041 231.075 96.5063C232.283 96.2303 235.119 93.9632 235.119 93.9632C233.963 94.2793 232.784 94.4276 231.603 94.4055C229.643 94.3616 227.295 94.0185 226.546 93.5206C225.86 93.0664 226.026 91.8449 226.098 91.3316L226.101 91.2964C226.107 91.2617 226.11 91.2309 226.114 91.2045C226.16 90.8061 226.242 90.7825 227.067 90.8681C227.253 90.8875 227.44 90.9113 227.624 90.9353C228.259 91.0166 228.891 91.0978 229.559 91.0027C230.422 90.88 230.532 90.3771 230.404 89.4553C230.329 88.9248 230.016 88.7569 229.634 88.5508C229.35 88.3988 229.029 88.2256 228.734 87.8708C228.251 87.2871 227.88 87.4048 227.489 87.5287C227.319 87.5823 227.147 87.6371 226.959 87.6371C226.337 87.6371 226.052 87.1695 225.911 86.3841C226.089 86.3957 226.825 85.5363 226.783 84.7627C226.741 83.9889 227.037 83.8526 227.037 83.8526C227.037 83.8526 227.714 83.3717 227.473 82.0462C227.286 81.0214 226.796 80.1574 226.416 79.4883V79.4879C226.304 79.2922 226.202 79.113 226.12 78.9515C225.878 78.4759 225.898 77.8757 225.92 77.1497C225.931 76.7867 225.944 76.3921 225.926 75.966C225.889 75.1493 225.763 74.9354 225.664 74.7686C225.609 74.6742 225.562 74.5949 225.545 74.4303C225.531 74.2916 225.544 74.0859 225.556 73.865C225.584 73.3609 225.619 72.7781 225.361 72.7347C225.183 72.7049 225.18 72.9578 225.174 73.2847C225.171 73.6397 225.165 74.0818 224.935 74.3444C224.49 74.8491 224.47 76.0769 224.5 76.5311C224.529 76.9373 224.496 77.3476 224.401 77.7363C224.307 78.1248 224.155 78.4839 223.953 78.7916C223.37 79.7369 223.286 81.1766 223.304 81.7283C223.315 82.0622 223.115 82.3542 222.929 82.6292C222.806 82.8087 222.688 82.9811 222.636 83.153C222.508 83.5885 222.794 84.4986 222.794 84.4986C222.433 84.7606 222.12 85.1253 221.878 85.5666C221.541 86.1721 221.474 86.2408 220.971 86.7585L220.856 86.8771L220.753 86.9833C220.684 87.0548 220.609 87.1334 220.525 87.22C219.594 88.1973 219.581 89.0433 219.83 89.1728C220.08 89.3023 220.457 89.7092 221.15 90.7775C221.693 91.6138 222.382 91.7385 222.856 91.8243C222.988 91.8481 223.103 91.8687 223.192 91.901C223.609 92.0489 224.192 93.2095 224.192 93.2095C224.192 93.2095 224.081 93.0446 223.051 94.0386C222.852 94.2314 222.682 94.4096 222.525 94.5728L222.519 94.5782L222.518 94.5798C221.869 95.2562 221.463 95.6794 220.314 95.8265C218.883 96.0101 219.104 97.7239 219.104 97.7239C219.104 97.7239 218.534 97.7054 218.687 98.5649C218.841 99.4245 220.748 101.423 221.788 101.275C222.827 101.127 223.079 101.9 223.079 101.9C223.079 101.9 223.19 102.783 221.717 103.135C220.243 103.486 219.578 104.057 219.578 104.057C219.578 104.057 216.354 99.2109 215.325 98.2705C215.548 97.534 215.089 95.6718 215.089 95.6718C215.089 95.6718 216.548 96.8746 217.188 96.9435C217.826 97.0124 218.855 96.6661 218.757 96.0033C218.674 95.44 218.371 95.3542 217.848 95.206C217.8 95.1926 217.751 95.1788 217.7 95.164C217.652 95.15 217.601 95.1349 217.548 95.1184C216.84 94.8983 216.061 92.7774 216.297 92.5014C216.414 92.3653 216.786 92.3811 217.261 92.4012C217.749 92.4221 218.349 92.4475 218.897 92.3181C219.98 92.0625 220.302 91.028 220.148 90.5485C220.053 90.2527 219.698 90.2447 219.058 90.2299C218.661 90.2207 218.155 90.209 217.535 90.1246C215.913 89.9045 213.926 88.5807 212.842 87.4521C211.757 86.3235 210.576 84.9393 210.353 84.4247C210.132 83.9099 209.591 81.439 210.174 82.3792C210.755 83.3196 211.896 84.1739 212.076 83.7248C212.257 83.2757 212.631 83.2068 213.299 83.2204C213.558 83.2255 213.772 83.3899 213.977 83.5463C214.299 83.7927 214.595 84.0187 214.994 83.5701C215.648 82.8368 213.577 81.3231 213.577 81.3231C213.577 81.3231 213.825 81.4274 214.507 81.36C214.858 81.3253 215.032 81.2188 215.226 81.1007C215.407 80.9899 215.604 80.8689 215.981 80.7881C216.758 80.6216 217.135 80.2532 216.857 79.848C216.626 79.5119 216.517 79.5133 215.767 79.5238C215.614 79.5259 215.431 79.5284 215.217 79.5284C213.957 79.5284 211.33 78.0549 210.472 77.1216C209.616 76.1879 209.359 74.7734 209.839 74.5161C210.017 74.4208 210.256 74.617 210.573 74.8767C211.112 75.3183 211.874 75.9437 212.942 75.6345C212.247 75.4999 211.311 74.0738 211.311 74.0738C211.611 74.0246 211.904 73.9215 212.182 73.7675C212.425 73.6249 212.575 73.4399 212.712 73.2685C212.818 73.1385 212.917 73.0165 213.043 72.9265C213.251 72.781 213.511 72.9166 213.694 73.0117C213.772 73.0529 213.838 73.0863 213.877 73.0863C214.008 73.0863 214.164 72.6811 213.719 72.03C213.483 71.6828 213.193 71.5484 212.884 71.4056C212.613 71.2807 212.328 71.149 212.052 70.8629C211.719 70.5168 211.352 70.5175 211.021 70.518C210.765 70.5185 210.529 70.519 210.348 70.3582C209.931 69.9899 209.441 68.2458 209.441 68.2458C209.441 68.2458 210.765 68.1347 211.284 67.7293C211.426 67.63 211.538 67.467 211.598 67.269C211.661 67.0714 211.666 66.8514 211.617 66.6477C212.055 66.145 212.409 65.5255 212.655 64.8295C212.893 64.0864 212.997 63.2804 212.96 62.4748C212.723 63.1886 212.316 63.7795 211.801 64.1568C211.092 64.6934 208.722 64.1888 208.556 63.9667C208.388 63.7448 208.499 63.358 208.499 63.358C208.499 63.358 208.876 63.1375 209.015 62.2529C209.132 61.4978 208.867 60.6973 208.602 59.8987L208.53 59.6809C208.508 59.6164 208.488 59.5519 208.468 59.4877C208.296 58.9484 208.274 58.4199 208.254 57.9214C208.238 57.5569 208.223 57.2087 208.152 56.884C207.982 56.1152 207.878 53.811 207.856 52.5832C207.834 51.3552 207.601 48.7752 207.601 48.7752C207.601 48.7752 207.314 50.9735 207.175 51.7354C207.099 52.1581 206.766 52.8798 206.442 53.5833C206.183 54.1476 205.927 54.7002 205.815 55.0776C205.647 55.6397 205.802 56.3752 205.934 56.9892C206.002 57.3011 206.06 57.5814 206.067 57.7921C206.073 57.9221 206.073 58.1212 206.073 58.3642C206.073 59.2915 206.073 60.8539 206.322 61.6137C206.475 62.0834 206.691 62.3533 206.866 62.5754C207.051 62.8063 207.192 62.9855 207.183 63.2838C207.164 63.8692 206.949 64.488 206.775 64.7102C206.642 64.8794 206.495 64.7623 206.287 64.5935C206.221 64.5409 206.15 64.4832 206.071 64.4276C205.736 64.1939 205.135 63.9734 204.941 64.4276C204.747 64.8816 204.255 65.0902 203.893 65.1273C203.692 65.1481 203.579 65.0031 203.478 64.8717C203.398 64.7684 203.325 64.673 203.219 64.673C202.977 64.673 202.829 66.1802 203.533 67.028C204.223 67.8588 205.362 68.3004 205.587 68.3872L205.599 68.392C205.625 68.402 205.654 68.4117 205.685 68.4219C205.89 68.4876 206.179 68.5809 206.042 68.9823C206.002 69.1026 206.005 69.2313 206.009 69.3579C206.016 69.7209 206.025 70.0687 205.005 70.1599C203.628 70.2826 203.376 71.216 203.376 71.216L204.051 71.142C204.051 71.142 203.718 72.1598 203.199 72.2471C202.888 72.2994 202.754 72.1709 202.643 72.0645C202.568 71.9932 202.504 71.9316 202.403 71.941C202.153 71.9645 202.06 73.2059 203.005 74.2504C203.95 75.2948 205.757 74.7666 205.757 74.7666C205.757 74.7666 205.599 75.675 204.329 76.2401C203.52 76.6004 203.063 77.6403 202.71 78.4454C202.509 78.9025 202.341 79.2842 202.162 79.4224C201.665 79.8041 198.985 80.4787 198.113 80.196C198.697 81.2171 200.151 81.18 200.151 81.18C199.629 81.4674 199.075 81.6456 198.511 81.7082C197.942 81.788 197.367 81.6824 196.835 81.4005C196.835 81.4005 197.649 82.9394 198.585 83.0218C199.521 83.1043 199.82 83.0453 200.328 82.936C200.6 82.8773 200.76 82.942 200.929 83.0109C201.076 83.0703 201.229 83.1326 201.469 83.121C201.714 83.1091 201.987 82.9978 202.261 82.887V82.8865C202.564 82.7633 202.866 82.6401 203.127 82.6535C203.405 82.6675 203.67 82.489 203.871 82.3542C204.032 82.2456 204.153 82.1651 204.202 82.2364C204.314 82.3962 203.559 84.2983 202.701 85.2453C202.001 86.0196 202.192 86.7117 202.284 87.0488C202.306 87.1239 202.321 87.1814 202.321 87.2183C202.321 87.42 201.793 87.9383 200.709 88.1216C200.051 88.2331 199.751 88.0794 199.483 87.9419C199.311 87.8534 199.151 87.7717 198.917 87.7717C198.631 87.7717 198.307 88.0387 197.979 88.3083C197.623 88.601 197.263 88.8969 196.944 88.8583C196.405 88.7933 195.622 89.1818 195.025 89.4779L195.025 89.4781L194.917 89.5315L194.788 89.595C194.579 89.6959 194.306 89.7604 194 89.7691L193.998 89.7626C193.849 89.225 193.785 87.7557 193.743 86.8017L193.732 86.5424C193.72 86.272 193.72 85.991 193.72 85.723C193.721 85.0772 193.722 84.5076 193.547 84.3456C193.405 84.2132 193.407 83.7093 193.408 83.3017C193.409 83.0031 193.41 82.756 193.354 82.7444C193.221 82.717 193.088 83.5451 193.056 84.6572C193.034 85.4449 192.766 87.6012 192.302 89.2216C192.235 89.1712 192.169 89.1173 192.105 89.0601C192.152 89.1716 192.202 89.2795 192.254 89.3838C192.074 89.9823 191.866 90.4947 191.633 90.8184C191.766 90.8597 192.115 90.629 192.115 90.629C192.115 90.629 191.45 91.8221 191.02 91.8083C191.695 92.053 192.421 91.1989 192.421 91.1989C192.421 91.1989 192.442 92.2026 192.318 92.572C192.193 92.9413 190.157 93.345 189.86 93.1212C189.564 92.8974 189.185 92.6874 189.062 92.7092C188.938 92.7313 189.204 93.4685 189.634 93.8216C190.064 94.1744 190.915 94.405 190.915 94.405C190.915 94.405 190.423 94.9337 190.659 95.5448C190.895 96.1559 191.048 96.1282 191.048 96.1282C191.048 96.1282 189.993 96.8477 189.789 97.6882C189.585 98.5285 189.911 99.4252 190.307 99.642C190.163 100.054 188.422 101.19 187.82 101.054C187.218 100.918 187.095 101.081 187.103 101.379C187.112 101.677 187.77 102.112 188.609 102.045C188.978 102.276 188.793 102.56 188.537 102.546C189.131 103.076 190.636 102.316 190.636 102.316C190.636 102.316 190.104 103.062 190.083 103.429C191.107 103.374 191.455 102.398 191.455 102.398C191.455 102.398 191.426 103.067 191.143 104.051C190.811 104.271 190.598 104.459 190.611 104.573C190.628 104.716 190.721 104.822 190.856 104.906C190.772 105.124 190.681 105.337 190.584 105.545C189.775 107.282 188.823 107.771 188.823 107.771C189.134 107.786 189.446 107.772 189.756 107.73C189.684 108.279 190.247 108.802 190.953 108.585C190.646 108.924 190.585 109.367 190.534 109.736C190.513 109.883 190.494 110.019 190.462 110.131C190.349 110.524 189.98 110.797 189.551 110.933C189.342 110.999 189.188 110.943 188.987 110.87C188.772 110.791 188.502 110.693 188.057 110.703H187.831C187.831 110.703 188.124 110.277 188.371 109.979C188.617 109.681 188.616 109.21 188.35 108.757C188.145 108.408 187.855 108.404 187.599 108.399H187.598C187.521 108.398 187.448 108.397 187.38 108.386C187.301 108.379 187.223 108.349 187.154 108.298C187.084 108.246 187.024 108.175 186.978 108.088C186.978 108.088 188.575 107.539 188.827 107.093C189.08 106.646 189.974 104.795 189.531 104.189C189.302 103.875 189.121 104.036 188.916 104.219C188.724 104.391 188.51 104.582 188.213 104.425C188.131 104.381 188.059 104.341 187.994 104.306C187.577 104.074 187.464 104.011 186.813 104.206L187.169 103.782C187.169 103.782 186.398 103.212 185.599 102.751C184.8 102.289 184.425 101.692 184.425 101.692C184.425 101.692 184.753 101.067 185.025 100.969C185.206 100.905 185.368 100.769 185.489 100.58C185.609 100.391 185.684 100.157 185.702 99.91C185.725 99.7029 185.763 99.5019 185.799 99.3183C185.877 98.9082 185.94 98.584 185.776 98.4722C185.658 98.3912 185.42 98.47 185.158 98.5569H185.156C184.893 98.6437 184.606 98.7387 184.391 98.6893C183.961 98.5903 182.752 97.6031 182.438 97.2144C182.125 96.8259 181.506 96.7888 181.506 96.7888C181.506 96.7888 181.54 96.201 181.396 95.9745C181.252 95.748 181.914 94.9887 182.147 95.0971C182.38 95.2055 184.263 95.748 185.048 94.9254C184.175 95.0518 182.905 94.0934 182.905 94.0934C182.905 94.0934 184.673 93.8584 185.055 93.2337C185.122 93.1251 185.193 93.0162 185.264 92.9083C185.602 92.3949 185.927 91.9005 185.635 91.5421C185.44 91.3008 185.187 91.4426 184.95 91.5758C184.76 91.682 184.58 91.7829 184.447 91.6793L184.37 91.6194C184.03 91.3522 183.332 90.8053 182.885 90.7307C184.352 90.5398 185.833 88.4594 185.889 88.0709C185.908 87.9434 185.91 87.8168 185.913 87.6868C185.918 87.42 185.925 87.1383 186.066 86.8034C186.278 86.305 186.251 85.5016 186.251 85.5016C186.251 85.5016 185.053 87.6356 183.557 88.0023C182.061 88.3687 180.936 88.2329 180.179 87.4528C179.422 86.6729 179.698 85.2407 179.698 85.2407C180.138 85.3743 180.588 85.4425 181.039 85.4441C180.624 84.5901 180.189 84.5076 180.189 84.5076C180.189 84.5076 180.906 84.4128 180.707 83.4969C181.158 83.8361 182.667 83.3596 183.057 82.5359C182.754 82.5688 182.484 82.5824 182.484 82.5824C182.548 82.5261 182.602 82.451 182.641 82.363C182.68 82.2749 182.703 82.1762 182.709 82.0744C182.73 81.7215 181.623 81.0088 181.623 81.0088C181.623 81.0088 181.68 80.7343 181.572 80.5874C181.5 80.4992 181.409 80.4426 181.311 80.4254C181.311 80.4254 181.378 80.1603 181.081 79.6714C180.785 79.1826 180.46 79.1496 180.46 79.1496C180.46 79.1496 180.46 78.3629 180.495 78.3559C180.505 78.3539 180.522 78.3719 180.547 78.3961C180.607 78.4575 180.709 78.5601 180.834 78.4934C181.008 78.3998 180.971 77.8549 180.869 77.204C180.799 76.7614 180.517 76.2085 180.292 75.7677L180.292 75.7674C180.186 75.5601 180.092 75.3775 180.04 75.2431C179.998 75.1381 179.951 75.0359 179.901 74.9369C179.766 74.6607 179.633 74.3881 179.626 73.8701C179.616 73.1683 179.591 72.7633 179.522 72.4859C179.497 72.3841 179.456 72.2968 179.415 72.2075V72.2073L179.415 72.2068C179.343 72.0531 179.269 71.8932 179.266 71.6442C179.262 71.2501 179.133 69.9964 179.02 69.9484C178.962 69.9239 178.952 70.1989 178.939 70.5219C178.926 70.8372 178.912 71.198 178.851 71.3724C178.761 71.6299 178.767 72.1367 178.773 72.6241C178.775 72.8046 178.777 72.9823 178.774 73.1436C178.764 73.7409 178.748 74.3175 178.636 74.6541C178.524 74.9905 177.523 77.7998 177.523 77.7998C177.523 77.7998 178.172 77.1928 178.336 76.777C178.198 77.7518 178.101 78.1733 178.101 78.1733H178.412C178.412 78.1733 177.496 79.482 177.072 79.9159C176.816 80.1783 176.85 80.8512 176.879 81.4281C176.898 81.8054 176.915 82.1418 176.847 82.2955C176.676 82.684 175.673 82.5303 175.673 82.5303C176.006 82.7821 176.365 82.9672 176.738 83.0795C175.974 83.4147 174.186 83.3334 173.667 82.6675C174.724 84.4773 175.96 84.5762 175.96 84.5762C175.96 84.5762 174.69 84.9388 173.785 84.5488C174.412 85.3809 175.661 86.1236 176.454 85.9219C176.255 86.5727 174.358 88.8054 174.358 88.8054C174.358 88.8054 175.101 88.7147 175.484 88.2082C175.496 88.5183 175.526 88.8268 175.573 89.1309C175.573 89.1309 176.105 88.4609 176.48 88.0091C176.855 87.5573 178.091 85.1405 178.091 85.1405C178.091 85.1405 177.245 88.2989 176.494 89.6554C175.743 91.012 173.751 93.1472 173.751 93.1472C173.751 93.1472 174.242 93.2476 174.548 93.0388C174.951 93.798 176.112 93.5453 176.112 93.5453C176.112 93.5453 175.566 94.9475 175.433 95.5448C175.3 96.142 174.009 97.3092 174.009 97.3092C174.009 97.3092 174.756 95.7082 174.49 95.4638C174.376 95.3585 174.193 95.5399 173.936 95.795C173.596 96.1321 173.127 96.5979 172.515 96.6995C171.439 96.878 170.339 96.2793 170.339 96.2793C170.339 96.2793 171.254 95.4281 171.271 95.0435C171.279 94.8769 171.067 94.7103 170.802 94.502C170.456 94.2299 170.02 93.8865 169.866 93.3792C169.593 92.4842 169.244 91.0272 169.244 91.0272C169.244 91.0272 170.176 92.7463 170.63 93.0868C170.815 93.2255 171.014 93.3817 171.202 93.5293L171.208 93.5337L171.209 93.5344C171.48 93.7476 171.728 93.9416 171.873 94.0371C172.12 94.1991 173.362 94.1455 173.362 94.1455L172.038 93.4673C172.038 93.4673 173.526 93.3133 173.539 92.6173C173.546 92.2647 173.236 92.0372 172.819 91.7307C172.412 91.432 171.903 91.058 171.485 90.4202C170.638 89.1282 169.567 87.5971 169.567 87.5971C169.567 87.5971 170.249 87.8965 170.433 88.1587C170.618 88.4211 171.253 88.5115 171.573 88.4567C171.65 88.4434 171.739 88.4446 171.834 88.4456C172.135 88.4495 172.504 88.4541 172.794 88.0132C172.357 88.1313 172.104 87.9596 172.043 87.7879C171.982 87.6162 171.504 87.2716 171.191 87.1014C171.002 86.9988 170.862 86.751 170.676 86.4217C170.553 86.2044 170.411 85.9515 170.221 85.6816C169.743 85.0033 169.129 83.5737 169.129 83.5737C169.129 83.5737 170.126 83.4462 170.651 82.4148C171.176 81.3837 170.658 80.6781 170.576 80.6781C170.562 80.6781 170.536 80.6824 170.501 80.6885C170.335 80.7171 169.956 80.7823 169.572 80.5874C169.335 80.4664 169.15 80.2653 168.998 80.099C168.852 79.9408 168.736 79.8143 168.631 79.8184C168.712 79.2856 168.269 78.6525 168.085 78.426C167.9 78.1995 167.818 77.657 167.86 77.5389C167.87 77.5091 167.963 77.4807 168.095 77.4404C168.481 77.3226 169.207 77.1012 169.207 76.4268C169.207 75.5218 168.613 74.9519 168.061 74.8889C167.758 74.8542 167.688 74.4274 167.612 73.9581C167.549 73.5718 167.482 73.1567 167.275 72.9074C167.041 72.6244 167.004 71.1306 166.969 69.7265C166.936 68.3923 166.905 67.1388 166.709 67.0813C166.495 67.0185 166.464 67.2702 166.416 67.6682C166.373 68.0186 166.316 68.4827 166.108 68.9445C165.785 69.6615 165.822 70.2981 165.86 70.9395C165.874 71.1798 165.888 71.4211 165.883 71.6675C165.873 72.1661 165.777 72.5994 165.689 72.9893C165.619 73.3058 165.555 73.5937 165.549 73.8645C165.541 74.2033 165.412 74.4298 165.287 74.648C165.189 74.819 165.095 74.9846 165.064 75.1951C165.034 75.3942 165.029 75.5511 165.025 75.6959C165.018 75.8994 165.013 76.0786 164.941 76.3169C164.882 76.5165 164.606 76.7158 164.338 76.9086C164.06 77.1099 163.791 77.3039 163.787 77.4841C163.78 77.8369 164.163 78.9944 164.654 79.048C164.096 79.2199 164.031 79.5732 163.974 79.8863C163.938 80.0861 163.904 80.2694 163.747 80.3786C163.468 80.5726 162.986 80.8364 162.608 81.0433L162.607 81.044L162.606 81.0447L162.604 81.0452C162.438 81.1361 162.292 81.2159 162.193 81.2739C161.868 81.4633 161.223 82.1512 161.231 82.5948C161.238 83.0383 162.117 83.3363 162.117 83.3363L161.289 84.3772C161.289 84.3772 162.163 84.1327 162.695 83.7893C163.228 83.4462 163.951 83.6438 163.951 83.6438C163.951 83.6438 163.323 85.0554 162.559 85.7254C162.229 86.0143 162.053 86.2837 161.905 86.5092C161.71 86.8072 161.564 87.0286 161.183 87.1179C161.051 87.1497 160.934 87.1594 160.822 87.1683H160.821C160.552 87.1904 160.317 87.2095 160.006 87.5299C159.863 87.6768 159.679 87.8944 159.487 88.1209L159.487 88.1218L159.486 88.1223C159.087 88.5935 158.656 89.1035 158.49 89.1035C158.201 89.0886 157.913 89.1747 157.656 89.3532C157.399 89.5316 157.182 89.7963 157.026 90.1208C157.774 89.6457 158.306 89.5921 158.695 90.0262L157.876 91.1795C158.313 90.8921 158.763 90.6386 159.223 90.4202C159.386 90.3465 159.538 90.2614 159.687 90.178C160.116 89.9374 160.518 89.7119 161.096 89.823C160.81 90.7319 160.246 92.0077 159.766 92.569C159.629 92.7289 159.442 92.9185 159.236 93.1283C158.718 93.6552 158.075 94.3087 157.789 94.9295C158.649 94.2925 159.171 93.912 159.55 93.912C159.929 93.912 161.229 93.2476 162.089 92.2026C162.949 91.1577 164.321 89.0676 164.321 89.0676C164.321 89.0676 164.114 90.8323 163.656 91.9718C163.433 92.5261 163.194 92.8942 162.983 93.2199C162.761 93.564 162.568 93.8604 162.458 94.2787C162.316 94.8204 161.9 95.2722 161.572 95.6296C161.407 95.8093 161.264 95.9653 161.188 96.0967C161.11 96.2325 160.969 96.3637 160.805 96.5152C160.495 96.8024 160.107 97.1627 159.919 97.7665C160.697 97.2915 163.041 97.2777 163.041 97.2777C163.041 97.2777 161.28 98.7305 160.021 99.8014C158.763 100.872 157.318 101.254 156.868 101.186C156.417 101.117 155.035 101.294 154.589 101.735C155.306 101.761 155.705 101.788 155.899 102.169C156.007 102.379 156.137 102.377 156.302 102.375C156.435 102.373 156.592 102.371 156.78 102.48C157.199 102.725 157.834 102.792 158.981 102.427C160.128 102.061 161.735 101.666 161.735 101.666C161.735 101.666 159.841 103.498 158.834 103.606C158.385 103.655 157.92 103.636 157.514 103.619C157.012 103.598 156.599 103.581 156.418 103.701C156.695 104.353 157.176 104.462 157.596 104.525C158.017 104.588 158.66 105.136 158.66 105.136L157.687 105.773C157.687 105.773 158.302 105.95 159.428 105.652C160.554 105.354 161.149 104.878 161.149 104.878C161.149 104.878 161.052 105.692 160.622 106.114C160.433 106.299 160.264 106.262 160.079 106.221C159.845 106.169 159.586 106.112 159.23 106.502C158.825 106.946 158.539 106.898 158.322 106.861C158.199 106.839 158.097 106.822 158.009 106.901C157.902 106.994 157.745 106.95 157.563 106.898C157.324 106.83 157.041 106.749 156.774 106.955C156.303 107.318 156.009 108.076 155.927 108.603C155.894 108.818 155.906 108.939 155.917 109.041C155.932 109.189 155.943 109.296 155.804 109.593C155.569 110.094 155.334 110.407 154.821 110.598C154.552 110.698 154.383 110.983 154.232 111.235C154.095 111.466 153.974 111.67 153.808 111.683L153.74 111.688H153.739C153.386 111.716 152.851 111.758 152.631 111.847C153.265 111.005 153.356 109.323 153.356 109.323C153.356 109.323 152.374 110.72 152.25 111.194C152.561 109.821 152.087 105.401 152.087 105.401C152.087 105.401 151.626 107.722 151.319 109.498C151.133 110.573 150.904 111.633 150.633 112.674C150.633 112.674 149.927 113.498 149.793 113.498C149.734 113.498 149.692 113.452 149.65 113.406C149.597 113.347 149.544 113.288 149.455 113.322C149.297 113.384 149.158 114.639 149.732 115.44C149.305 116.059 148.657 116.126 148.466 115.978C148.368 115.902 148.112 115.842 147.856 115.782L147.855 115.782L147.855 115.781C147.612 115.725 147.37 115.668 147.264 115.598C147.046 115.454 146.005 115.535 145.524 115.765C145.042 115.996 144.459 116.014 144.343 115.815C144.273 115.696 143.947 115.687 143.625 115.678C143.408 115.671 143.192 115.665 143.06 115.625C142.733 115.527 143.21 114.829 143.627 114.512C144.043 114.194 144.077 112.928 143.899 112.703C143.817 112.6 143.536 112.618 143.244 112.637C142.902 112.66 142.546 112.683 142.48 112.512C142.358 112.195 143.422 111.852 143.681 111.889C143.94 111.926 145.244 111.771 145.244 111.771C145.244 111.771 144.582 111.256 144.118 111.183C144.636 110.921 144.903 109.817 144.909 109.398C144.912 109.239 145.081 108.971 145.322 108.589C145.715 107.966 146.3 107.04 146.663 105.79L146.591 105.869L146.503 105.966C145.597 106.964 143.95 108.779 142.678 108.558C144.139 108.146 145.268 106.086 145.268 106.086C145.268 106.086 143.439 107.642 142.381 107.064C141.324 106.486 141.174 106.593 141.174 106.593C141.174 106.593 141.415 105.967 141.836 105.831C142.256 105.695 142.363 105.058 142.173 104.779C142.072 104.63 141.891 104.537 141.729 104.454C141.589 104.382 141.463 104.318 141.415 104.23C141.364 104.136 141.589 104.127 141.842 104.116C142.098 104.106 142.383 104.094 142.44 103.992C142.552 103.789 143.136 103.843 143.397 103.951C143.658 104.059 144.282 103.676 144.282 103.676C144.091 103.423 143.858 103.235 143.601 103.127C143.166 102.944 143.212 102.755 143.237 102.7C143.243 102.687 143.269 102.677 143.309 102.667C143.326 102.663 143.346 102.659 143.368 102.655L143.425 102.643C143.576 102.615 143.8 102.572 144.036 102.469C144.44 102.294 144.865 101.526 144.865 101.526C144.865 101.526 144.058 101.907 143.259 101.801C142.46 101.695 142.078 101.526 141.962 101.348C141.846 101.169 141.6 101.176 141.6 101.176C141.597 100.926 141.537 100.683 141.429 100.477C141.349 100.325 141.21 100.212 141.084 100.11C140.929 99.984 140.792 99.8736 140.808 99.7245C140.819 99.6195 140.92 99.5666 141.056 99.4951C141.27 99.3828 141.571 99.2249 141.74 98.747C141.968 98.1041 141.611 97.7522 141.336 97.4818L141.335 97.4814C141.277 97.4232 141.221 97.3689 141.177 97.316C140.924 97.0182 140.609 96.5965 140.609 96.5965C140.609 96.5965 141.658 96.9905 142.221 96.6241C141.673 96.3906 140.794 95.538 140.527 95.1245C140.308 94.7865 140.333 93.7309 140.355 92.757C140.358 92.635 140.361 92.514 140.363 92.3961C140.373 91.9274 140.426 90.9482 140.477 90.0022C140.541 88.8118 140.603 87.6739 140.571 87.6739C140.513 87.6739 140.193 89.5882 140.1 90.3475C140.04 90.8466 139.886 91.2406 139.767 91.5447C139.706 91.7031 139.653 91.8369 139.629 91.9485C139.604 92.0632 139.605 92.2608 139.607 92.489C139.61 92.9081 139.614 93.4304 139.455 93.7335C139.321 93.9899 138.984 94.2867 138.708 94.5297C138.479 94.7309 138.293 94.8953 138.298 94.9696C138.308 95.1328 137.765 95.3813 137.765 95.3813C137.765 95.3813 138.82 95.6299 139.138 95.3813C139.456 95.1328 139.301 95.9883 139.157 96.2327C139.014 96.4772 138.891 97.0194 138.841 97.5357C138.812 97.8272 138.675 97.8771 138.529 97.9305C138.416 97.9717 138.298 98.0149 138.219 98.173C138.131 98.3485 138.046 98.4565 137.983 98.5377C137.915 98.6238 137.871 98.68 137.871 98.7564C137.871 98.8219 137.976 98.8876 138.099 98.9643C138.254 99.061 138.436 99.175 138.464 99.3263C138.515 99.5969 138.062 100.634 137.618 100.915C137.511 100.982 137.399 101.046 137.29 101.107C136.941 101.303 136.617 101.485 136.582 101.747C136.535 102.092 136.74 102.416 136.74 102.416C136.74 102.416 136.774 102.94 137.039 102.95C137.304 102.96 135.893 103.394 135.408 103.058C134.923 102.723 135.19 103.891 135.469 104.125C135.596 104.232 135.678 104.369 135.759 104.505C135.857 104.67 135.953 104.832 136.125 104.931C136.439 105.113 136.991 104.886 136.991 104.886C136.991 104.886 136.68 106.686 136.439 106.623C136.198 106.56 135.899 105.963 135.688 105.401C135.477 104.839 135.163 104.19 134.931 103.972C134.698 103.753 133.921 101.793 133.866 101.15C133.811 100.507 133.51 99.2138 133.51 99.2138C133.51 99.2138 134.385 100.48 134.857 100.697C135.329 100.914 136.011 100.634 136.011 100.634C136.011 100.634 135.294 100.109 134.872 99.7657C135.527 100.109 137.37 98.8883 137.37 98.8883C137.37 98.8883 136.401 98.6713 135.8 98.7509C135.83 98.6657 136.051 98.536 136.345 98.3633C136.997 97.9797 138.01 97.3848 138.086 96.5979C137.418 96.5169 136.442 96.9864 136.442 96.9864C136.442 96.9864 136.421 96.7119 136.012 96.6076C135.603 96.5031 134.79 96.2807 134.483 95.7109C134.176 95.141 133.329 93.224 133.5 92.7807C133.549 92.6525 133.612 92.5288 133.674 92.4058C133.827 92.1039 133.977 91.8071 133.924 91.4596C134.171 91.9613 134.762 91.9536 135.142 91.9487L135.196 91.948C135.234 91.9478 135.27 91.9478 135.301 91.9485C135.794 91.9699 136.284 91.8333 136.728 91.5503C136.053 91.3418 134.81 91.1521 134.81 91.1521C134.81 91.1521 135.93 91.1342 136.414 90.5822C136.733 90.2064 137.019 89.7845 137.268 89.3244L135.971 89.7679C135.971 89.7679 136.094 89.072 135.902 88.9895C135.861 88.9718 135.794 88.9662 135.709 88.9594C135.396 88.9337 134.844 88.8886 134.489 88.1492C134.203 87.5521 133.914 86.957 133.623 86.364L133.746 85.7941C133.746 85.7941 134.415 86.2061 134.837 85.911C135.26 85.6156 135.63 84.9621 135.63 84.9621C135.63 84.9621 136.954 84.5501 136.967 83.6041C136.958 83.4195 136.533 83.4588 136.16 83.4932H136.158C135.977 83.51 135.807 83.5255 135.704 83.5134C135.391 83.4763 134.845 82.8625 134.784 82.5523C134.761 82.4389 134.756 82.3152 134.752 82.1976C134.744 81.9931 134.737 81.8076 134.64 81.7283C134.566 81.6679 134.431 81.6619 134.3 81.6558C134.16 81.6493 134.024 81.643 133.971 81.5704C133.869 81.4303 133.483 80.6793 133.483 80.6793C133.483 80.6793 133.978 81.1805 134.33 81.0677C134.542 80.9997 134.748 80.9012 134.944 80.7741C134.944 80.7741 134.599 79.9818 134.053 79.7195C133.507 79.4573 133.639 79.2718 133.769 79.2541C133.9 79.2362 134.224 79.136 134.33 78.7158C134.435 78.2955 134.522 77.922 134.195 77.5212C133.868 77.1201 133.79 76.7275 133.872 76.4898C133.954 76.2524 133.851 75.4119 133.657 75.1168C133.464 74.8214 133.432 74.0321 133.437 73.679C133.442 73.3262 133.258 72.0312 133.258 72.0312C133.258 72.0312 132.988 73.9111 132.954 74.3726C132.946 74.4817 132.943 74.6042 132.94 74.7332C132.929 75.1498 132.917 75.637 132.729 75.9818C132.691 76.0526 132.654 76.1164 132.619 76.176C132.433 76.4974 132.313 76.7035 132.387 77.2767C132.475 77.9565 132.284 78.4699 131.992 78.9039C131.699 79.3378 131.617 79.8814 131.773 80.1259C131.854 80.2532 132.016 80.2944 132.167 80.333C132.305 80.3684 132.435 80.4014 132.484 80.4967C132.586 80.6958 132.572 81.7807 132.252 82.0882C132.224 82.1149 132.194 82.1445 132.161 82.1765C131.821 82.5131 131.22 83.1062 130.283 83.1564C129.773 83.1838 129.443 83.3024 129.21 83.3858C128.975 83.4704 128.84 83.5189 128.72 83.4008L128.688 83.3693L128.65 83.331C128.452 83.1307 128.32 82.9968 128.16 83.2636C128.126 83.3218 128.073 83.4033 128.012 83.4993L128.011 83.5012C127.758 83.8943 127.35 84.5314 127.332 84.8289C127.309 85.1997 127.939 85.0911 128.16 84.8646C128.252 84.7707 128.297 84.8229 128.365 84.9007C128.46 85.011 128.6 85.173 128.98 85.046C128.686 85.6432 128.133 86.566 127.805 86.5563L127.739 86.5541L127.732 86.5538C127.464 86.5444 127.392 86.5419 127.409 86.791C127.428 87.0616 127.71 87.2978 128.153 87.1894L128.232 87.1703C128.716 87.0534 129.73 86.8087 129.956 86.3298C130.195 85.8229 130.256 85.7063 130.338 85.7145C130.373 85.7182 130.378 85.7681 130.386 85.8404C130.396 85.9384 130.41 86.0766 130.508 86.1952C130.678 86.4011 131.368 86.3036 131.368 86.3036C131.368 86.3036 129.874 87.7591 128.778 88.1572C129.282 88.4114 129.924 88.1492 129.924 88.1492C129.924 88.1492 128.818 89.0717 128.314 89.0717C128.108 89.0717 127.982 89.1175 127.876 89.1561C127.723 89.2121 127.612 89.2529 127.357 89.1171C127.221 89.0441 127.016 88.9204 126.793 88.786C126.316 88.4982 125.759 88.1621 125.624 88.1752C125.426 88.1943 125.767 88.8906 125.979 89.0799C126.152 89.2031 126.295 89.3882 126.393 89.6142C126.49 89.7902 126.614 89.9369 126.757 90.0444C126.9 90.1519 127.058 90.2178 127.222 90.2376C127.329 90.2522 127.516 90.2612 127.723 90.2711C128.165 90.2925 128.699 90.3182 128.757 90.4105C128.842 90.5466 127.948 91.5091 127.467 91.4817C126.987 91.4543 126.31 91.4419 126.249 91.6313C126.215 91.7353 126.375 91.819 126.542 91.9073C126.68 91.9798 126.824 92.0554 126.871 92.1476C126.933 92.2703 127.126 92.2261 127.316 92.183C127.442 92.1541 127.566 92.1257 127.649 92.1476C127.687 92.1578 127.727 92.1728 127.77 92.1883C127.955 92.2567 128.182 92.3404 128.458 92.1202C128.698 91.9031 128.986 91.7979 129.276 91.8209C129.573 91.8209 130.3 91.0752 130.3 91.0752C130.3 91.0752 129.84 91.9432 129.542 92.2424C129.245 92.5416 128.714 92.9743 128.714 92.9743C128.714 92.9743 129.859 92.837 131.078 91.5091L131.076 91.537C131.004 92.5142 130.898 93.9671 129.246 95.5668C127.578 97.1814 123.942 97.0318 123.482 96.9234C123.691 97.2005 123.891 97.395 124.063 97.5624C124.304 97.7966 124.489 97.9768 124.567 98.254C124.241 98.3136 123.911 98.3182 123.584 98.2675C123.584 98.2675 124.392 98.891 125.325 98.729C125.898 98.6223 126.449 98.3585 126.942 97.9545C126.942 97.9545 126.041 99.4073 125.345 99.5831C124.648 99.7589 123.216 99.5157 123.216 99.5157C123.216 99.5157 123.912 100.477 124.403 100.642C124.71 100.725 125.002 100.886 125.263 101.117C125.458 101.279 127.351 100.37 127.351 100.37L126.004 101.578C126.004 101.578 127.336 101.646 128.4 100.452C128.77 100.037 129.088 99.66 129.35 99.3486C129.843 98.7649 130.139 98.4138 130.212 98.4846C130.323 98.593 129.578 100.072 128.328 101.415C127.079 102.758 125.656 103.804 124.223 103.844C124.394 103.659 124.59 103.492 124.783 103.329C125.156 103.013 125.513 102.71 125.639 102.316C124.929 102.704 123.742 101.945 123.742 101.945L124.343 101.646C124.343 101.646 120.568 99.936 120.302 98.2263C120.162 97.3252 120.034 96.8661 119.943 96.5434C119.862 96.2543 119.811 96.0744 119.811 95.7836C119.809 95.4107 119.716 95.0488 119.545 94.7525C119.545 94.7525 120.705 95.7933 121.238 95.829C121.77 95.8646 123.156 95.3799 123.156 95.3799L122.214 94.924C122.214 94.924 124.182 95.0874 124.978 94.309L123.613 94.3007C123.613 94.3007 124.302 93.8119 124.616 93.8201C124.93 93.8283 125.196 93.459 125.32 93.2146C125.443 92.9701 125.708 92.3467 125.497 92.1832C125.377 92.0908 125.032 92.2278 124.634 92.3855H124.634C124.33 92.5062 123.996 92.6389 123.709 92.69C123.047 92.8081 122.166 92.4553 121.456 92.0392C120.747 91.623 120.616 91.4048 120.616 91.4048C121.047 91.5161 121.49 91.5161 121.921 91.4048C122.304 91.2949 122.582 90.9901 122.839 90.7079C123.027 90.5027 123.203 90.3092 123.401 90.2115C123.668 90.08 123.781 89.9724 123.871 89.8875C123.939 89.8225 123.993 89.7711 124.091 89.7323C124.317 89.643 125.127 88.7189 125.127 88.7189C125.127 88.7189 123.803 89.6595 122.759 89.4054C122.349 89.3057 122.05 89.2676 121.817 89.2378H121.817C121.457 89.192 121.254 89.166 121.038 88.9633C120.859 88.7957 120.647 88.6274 120.446 88.4684C120.246 88.3105 120.058 88.1616 119.925 88.0309C119.551 87.6243 119.224 87.1459 118.957 86.6113C118.608 85.9507 118.335 85.1626 118.383 84.9456C118.411 84.8166 118.471 84.8668 118.563 84.9439C118.626 84.9965 118.704 85.0617 118.797 85.0911C118.91 85.1267 119.04 85.0578 119.174 84.9868C119.313 84.9131 119.456 84.8372 119.589 84.8743C119.702 84.906 119.816 85.0178 119.937 85.1369C120.092 85.2894 120.26 85.4543 120.456 85.4798C120.611 85.4999 120.784 85.4444 120.953 85.3903C121.162 85.3231 121.365 85.2579 121.52 85.3425C121.799 85.4948 122.653 85.6171 123.52 85.352C122.919 84.8357 122.544 84.8908 122.544 84.8908C122.544 84.8908 123.882 84.3112 124.346 83.6877C123.987 83.6734 123.56 83.8119 123.162 83.9411C122.796 84.06 122.455 84.1708 122.21 84.1492C121.698 84.1039 120.414 83.1358 120.414 83.1358C120.414 83.1358 121.588 82.5742 121.841 82.0222C122.094 81.4703 122.694 79.9062 122.223 79.5987C122.01 79.4595 121.738 79.6052 121.432 79.7696C121.06 79.969 120.637 80.1957 120.203 79.9777C119.505 79.6263 118.593 78.8142 118.269 78.5251C118.226 78.4866 118.193 78.4572 118.172 78.4398C117.998 78.2902 118.111 77.9247 118.602 77.7353C119.093 77.5459 119.34 77.3 119.514 77.0158C119.621 76.8407 119.586 76.639 119.55 76.4275C119.527 76.2956 119.504 76.16 119.514 76.0245C119.517 75.9816 119.521 75.9369 119.524 75.8913L119.524 75.8904V75.8896L119.525 75.8882C119.551 75.5608 119.581 75.1942 119.468 75.1498C119.439 75.1402 119.408 75.1344 119.377 75.1323C119.324 75.127 119.255 75.1236 119.179 75.1202H119.176C118.941 75.1093 118.636 75.0955 118.495 75.0002C118.473 74.9849 118.45 74.9704 118.427 74.9568C118.395 74.9373 118.362 74.9186 118.329 74.9005C118.273 74.8695 118.212 74.8377 118.152 74.8059L118.152 74.8057C117.949 74.6992 117.75 74.594 117.728 74.5319C117.703 74.4618 117.739 74.3633 117.782 74.2443C117.802 74.1902 117.823 74.132 117.841 74.0704C117.898 73.8728 117.799 72.9171 117.799 72.9171C117.799 72.9171 118.393 73.3854 118.628 73.4334C118.863 73.4814 119.457 72.9651 119.457 72.9651L118.546 72.4297C118.546 72.4297 119.736 71.7431 119.662 71.1609C119.654 71.0981 119.584 71.1037 119.477 71.1122C119.306 71.1257 119.041 71.1466 118.792 70.9026C118.691 70.8061 118.587 70.7146 118.481 70.6284L118.48 70.6276C118.171 70.3701 117.893 70.1383 117.885 69.7423C117.881 69.5165 117.822 69.3674 117.76 69.2136C117.679 69.0077 117.594 68.7943 117.635 68.3789C117.677 67.9541 117.618 67.7659 117.564 67.5903C117.526 67.4659 117.489 67.3478 117.492 67.1567C117.496 66.7952 117.43 66.4799 117.375 66.2163L117.374 66.2156C117.36 66.1474 117.346 66.0789 117.333 66.0102C117.278 65.711 117.263 63.3328 117.263 63.3328C117.228 63.5617 117.163 63.8692 117.094 64.198C116.971 64.7781 116.835 65.425 116.826 65.829C116.82 66.0706 116.841 66.2859 116.86 66.487C116.891 66.8129 116.918 67.1017 116.826 67.4038C116.77 67.584 116.686 67.7804 116.604 67.9737C116.462 68.3052 116.324 68.6275 116.342 68.8416C116.357 69.0303 116.273 69.1937 116.189 69.3562C116.123 69.4862 116.056 69.6152 116.041 69.7561C116.007 70.0733 115.843 70.4523 115.433 70.8148C115.214 71.0084 114.999 71.0932 114.843 71.1548C114.707 71.2084 114.615 71.2446 114.604 71.32C114.58 71.4822 114.652 71.6374 115.158 71.9352C114.651 72.2136 114.118 72.3984 113.574 72.4845C113.574 72.4845 114.352 72.7207 114.713 72.6753C114.766 72.6688 114.83 72.6622 114.903 72.6547C115.33 72.611 116.043 72.5381 116.323 72.2633C116.419 72.1729 116.53 72.2456 116.446 72.49C116.362 72.7345 115.811 73.4758 115.286 73.7738C114.761 74.0719 114.685 74.4604 114.74 74.6883C114.795 74.9163 115.075 75.0317 115.313 74.9148C115.551 74.7982 115.682 74.7611 115.798 74.7969C115.881 74.8241 115.968 74.8276 116.053 74.8073C116.138 74.7869 116.218 74.7432 116.289 74.6788C116.364 75.0317 116.412 75.5562 115.996 75.8555C115.776 76.0136 115.493 76.113 115.243 76.201L115.243 76.2013L115.242 76.2015C115.019 76.2801 114.822 76.3494 114.719 76.4433C114.501 76.6424 112.221 76.542 111.935 76.38C112.46 77.0941 113.252 77.1572 113.252 77.1572C113.029 77.487 112.747 77.7389 112.433 77.8905C112.138 78.036 111.759 77.9868 111.447 77.9465C111.196 77.9138 110.989 77.8869 110.904 77.9715C110.712 78.1609 111.061 78.8132 111.328 79.1127C111.49 79.2948 111.713 79.3487 111.89 79.3916C112.003 79.4192 112.098 79.442 112.146 79.4915C112.268 79.6178 112.788 79.7359 112.788 79.7359C112.53 80.0643 112.207 80.2874 111.856 80.3786C111.303 80.5049 111.194 80.9278 111.228 81.0927C111.262 81.2574 111.685 81.5637 112.006 81.6267C112.158 81.6568 112.314 81.6199 112.473 81.5826L112.473 81.5823C112.651 81.5406 112.833 81.4979 113.016 81.5457C113.364 81.6364 113.949 81.5457 114.052 81.4002C114.077 81.3655 114.105 81.3187 114.136 81.2681C114.235 81.1056 114.36 80.9024 114.458 80.9305C114.588 80.9676 114.915 81.7448 114.451 82.4958C113.987 83.2471 112.008 85.3794 108.615 84.73C109.142 85.5443 110.738 85.5979 110.738 85.5979C110.738 85.5979 109.838 85.992 109.509 86.3036C110.125 86.6137 110.626 86.4961 111.005 86.4074C111.207 86.3601 111.374 86.3208 111.506 86.3586C111.661 86.403 111.843 86.411 112.026 86.419C112.288 86.4304 112.554 86.442 112.749 86.5618C113.08 86.765 113.598 86.8199 113.804 86.5618C113.945 86.3834 114.185 86.4515 114.424 86.5196C114.531 86.5502 114.638 86.5807 114.736 86.5892C115.054 86.6166 115.505 86.04 115.505 86.04C115.283 86.7371 114.983 87.3854 114.614 87.9623C114.01 88.8988 111.89 89.9163 110.129 89.9302C109.688 89.9336 109.323 89.9241 109.024 89.9127C108.753 89.5014 108.513 88.9364 108.379 88.1742C108.108 86.6239 107.696 86.6443 107.696 86.6443C107.696 86.6443 107.775 79.0749 106.525 78.9066C105.858 78.8169 105.77 79.9969 105.667 81.3728C105.577 82.5793 105.476 83.9363 104.963 84.7196C104.889 84.8333 104.819 84.9412 104.753 85.0435L104.668 85.174C103.828 86.4724 103.609 86.8111 102.645 86.8618C101.578 86.9178 101.928 88.4446 102.926 88.7048C102.399 89.0957 101.015 88.7797 101.015 88.7797C101.311 89.1361 101.657 89.4117 102.034 89.5907C102.581 89.8133 103.509 89.7607 103.509 89.7607C103.509 89.7607 103.327 91.017 104.044 91.381C103.959 91.9965 102.005 93.0812 102.005 93.0812C102.005 93.0812 103.306 91.8418 102.848 91.3112C102.535 90.9479 102.285 91.0774 101.96 91.246C101.81 91.3236 101.645 91.4092 101.45 91.4591C100.887 91.6029 100.717 91.5595 99.8009 91.3265L99.8 91.3262L99.5065 91.2518C98.3263 90.9542 97.7747 90.6123 96.7343 89.7216C95.6941 88.8307 94.6896 87.161 94.6896 87.161L95.667 87.1797L94.9783 86.2294C94.9783 86.2294 96.6997 86.3603 97.7401 86.1731C98.7805 85.9861 99.4411 85.41 99.2718 84.7399C99.1297 84.1783 98.8209 84.0995 98.3936 83.9906C98.3113 83.9695 98.2246 83.9474 98.1339 83.9205C97.8302 83.8306 97.6372 83.6392 97.4305 83.4346C97.255 83.2604 97.0696 83.0769 96.7985 82.9379C96.5663 82.8186 96.3657 82.8011 96.1814 82.7851C95.8974 82.7604 95.6519 82.7391 95.3875 82.3547C95.241 82.1415 94.9044 81.8394 94.4994 81.4756L94.4989 81.4749C93.6982 80.7557 92.631 79.7968 92.2382 78.8147C93.4479 79.2126 94.6934 78.3319 94.6281 77.7096C94.5863 77.3122 94.399 77.367 94.1422 77.4421L94.1418 77.4424C93.9964 77.4846 93.8291 77.5336 93.6532 77.5108C93.1658 77.4477 93.0118 76.6419 93.0118 76.6419C93.0118 76.6419 93.8931 77.0279 94.7269 76.6914C95.5606 76.3545 95.753 75.2138 95.6826 75.0031C95.6186 74.812 95.3787 74.8442 94.9084 74.9078L94.755 74.9281C94.1829 75.0031 93.4722 74.6425 93.3773 73.9235C93.2824 73.2042 92.7129 72.2708 92.16 72.0225C92.3093 71.9755 92.4442 71.8687 92.5462 71.7167C92.6483 71.5647 92.7128 71.3747 92.7308 71.1725C92.8483 71.3862 93.0099 71.5502 93.196 71.6449C93.3822 71.7396 93.585 71.7609 93.7801 71.7063C94.4548 71.5074 94.2676 70.3461 93.8737 69.8938L93.8639 69.8827C93.4735 69.4343 93.0851 68.9883 92.8065 67.6582C92.6836 67.0716 92.5286 66.6373 92.3927 66.2571C92.2179 65.7679 92.0753 65.3688 92.0753 64.8511C92.0753 63.9312 91.4763 60.2605 90.8567 60.3304C90.3551 60.3869 90.3957 61.3777 90.4191 61.951C90.4248 62.0858 90.4294 62.1976 90.4257 62.2684C90.419 62.3989 90.3619 62.5837 90.2891 62.8199C90.1537 63.2588 89.9637 63.8752 89.9395 64.6488C89.911 65.5591 89.0818 67.464 88.5505 68.6847C88.3872 69.0599 88.2521 69.3705 88.177 69.5674C88.0515 69.8965 87.684 70.0473 87.2768 70.2144C86.6469 70.4732 85.9223 70.7705 85.8538 71.827C85.7854 72.8805 86.3773 72.676 86.8547 72.5111C87.1655 72.4037 87.4279 72.313 87.4279 72.5972C87.4279 73.3182 86.5299 73.9574 85.4599 74.2363C84.8778 74.3878 84.7683 74.5367 84.6534 74.6927C84.5573 74.8231 84.4574 74.9587 84.0733 75.1049C83.2306 75.4262 82.8559 76.4974 82.8367 76.9753C82.003 76.8051 81.5629 76.3664 81.5629 76.3664C81.6126 76.6001 81.7002 76.8167 81.8196 77.0008C81.1782 77.0874 81.0498 76.8512 81.0498 76.8512C81.0498 76.8512 81.2743 77.771 82.484 77.844C83.0494 77.8782 83.4341 78.029 83.7809 78.165C84.1762 78.32 84.5225 78.4558 85.0315 78.3779C84.6995 78.5761 84.4318 78.8501 84.1868 79.1006C83.8791 79.4154 83.6074 79.6935 83.2896 79.7379C82.7188 79.8179 81.359 80.0357 80.6841 80.9792C80.3559 81.4383 80.1321 81.5387 79.9901 81.6025C79.84 81.6699 79.7811 81.6966 79.7862 82.0605C79.7931 82.5405 79.9542 82.5349 80.146 82.5283C80.2374 82.5252 80.3356 82.5218 80.4276 82.5705C80.4653 82.5907 80.5092 82.6154 80.5591 82.6438C80.8862 82.8293 81.4698 83.1605 82.2235 83.2047C83.092 83.2556 83.4229 82.9054 83.4229 82.9054C83.4229 82.9054 83.3948 83.9613 83.8822 84.1975C83.6487 85.0477 83.3203 85.1413 82.9265 85.1667C82.5327 85.1922 82.2056 85.4897 82.2235 85.9488C82.2416 86.4078 82.552 86.6816 83.2178 86.6816C83.8835 86.6816 85.1098 86.3586 85.1098 86.3586C85.1098 86.3586 83.4564 89.5618 80.434 90.7791L79.9992 90.5359C79.9992 90.5359 80.4058 90.0259 80.3918 89.5157C81.7836 89.3663 82.6828 88.6214 82.5429 87.9686C82.493 87.735 82.3259 87.7164 82.056 87.6858C81.5711 87.631 80.7547 87.5391 79.69 86.0984C78.0978 83.944 77.8091 83.0655 77.6285 82.5157L77.6067 82.4498C77.4865 82.1174 77.2756 81.8579 77.0167 81.724C77.5179 81.6437 78.0151 81.5256 78.5061 81.3701C79.1475 81.1458 79.2757 80.4945 79.0409 80.1019C78.8261 79.7425 78.6509 79.7447 78.4292 79.7476C78.4085 79.7478 78.3876 79.7483 78.3663 79.7483C78.2416 79.7483 78.098 79.6351 77.9457 79.515C77.789 79.3913 77.6232 79.2606 77.4594 79.2381C77.1361 79.194 77.0167 78.9219 77.0231 78.5496C77.0295 78.1771 76.8128 77.963 76.7359 77.9715C76.7123 77.9739 76.7271 77.9063 76.7499 77.8025C76.8017 77.567 76.8942 77.1456 76.6717 76.9377C76.351 76.6385 76.3356 76.5977 76.342 76.4532C76.3431 76.4299 76.3552 76.3999 76.3744 76.3637C76.3934 76.3279 76.4195 76.2861 76.4486 76.2396C76.5728 76.0407 76.7529 75.7524 76.6858 75.4485C76.6348 75.2172 76.6667 75.1105 76.7008 74.997C76.7326 74.891 76.7662 74.779 76.7359 74.5542C76.7217 74.4513 76.706 74.3488 76.6889 74.2467C76.6454 73.9814 76.6134 73.7862 76.6305 73.364C76.6426 73.0684 76.5845 72.8657 76.5282 72.669C76.4764 72.4891 76.4263 72.3142 76.4331 72.0788L76.4384 71.9192C76.4618 71.2552 76.5208 69.5859 76.1868 69.5284C75.8211 69.4653 75.6814 70.1608 75.6609 70.8699C75.6403 71.5787 75.1682 73.08 74.9579 73.5903C74.7475 74.1002 74.6692 74.6801 74.7193 74.9502C74.7436 75.0819 74.6774 75.2439 74.6074 75.4158C74.5332 75.5977 74.4546 75.7905 74.473 75.9704C74.4895 76.1314 74.5339 76.2311 74.5772 76.3279C74.6279 76.4416 74.6769 76.5514 74.6769 76.7525C74.6769 77.1247 74.1498 77.7028 73.6084 77.8321C73.3756 77.8876 73.1922 77.8682 73.0419 77.852C72.8428 77.8309 72.702 77.8158 72.5823 77.9902C72.3718 78.2962 72.504 78.9405 72.9478 79.2109C73.0609 79.2798 73.163 79.3506 73.258 79.4166C73.5354 79.6089 73.7532 79.7597 74.015 79.7039C73.003 80.8126 71.9498 81.2598 71.4366 80.9433C71.1415 80.7615 71.0585 80.8105 70.9681 80.8636C70.9012 80.9029 70.8305 80.9446 70.667 80.8975C70.2821 80.7869 69.5921 80.5575 69.5921 80.5575C69.5921 80.5575 70.5194 81.9635 71.3071 82.2424C70.7657 82.6811 69.4085 82.7371 69.4085 82.7371C69.4085 82.7371 70.386 83.0909 70.6606 83.3882C70.9351 83.6858 73.2184 83.3984 73.2184 83.3984C72.959 83.8379 72.6313 84.198 72.2575 84.4543C71.5918 84.9371 70.9928 85.3486 70.5143 85.6207C70.2205 85.7878 69.8283 85.9369 69.4087 86.0965L69.4081 86.0967L69.4074 86.097C69.1379 86.1972 68.8696 86.3036 68.6029 86.4163C68.1147 86.6271 67.8728 86.4183 67.6874 86.2582C67.6094 86.1911 67.5411 86.1321 67.4689 86.1171C67.3707 86.0965 67.2971 86.1202 67.2287 86.1423C67.1276 86.1748 67.0382 86.2034 66.8981 86.0797C66.7939 85.9876 66.5659 85.9481 66.3068 85.9034L66.3062 85.9032C65.9823 85.8472 65.6098 85.7829 65.3703 85.5969C65.6795 86.9249 67.3664 88.6573 68.6967 88.9871C70.0269 89.3169 70.8146 88.9735 70.8146 88.9735C70.8146 88.9735 71.4046 89.7573 72.0703 89.7063C70.3783 91.7055 69.4791 92.3959 67.9193 92.6188C68.0189 92.3988 68.1194 92.1796 68.2208 91.9611C68.521 91.3119 68.6488 91.0357 68.5939 90.905C68.5671 90.8405 68.1899 91.041 67.6763 91.3143C66.8485 91.755 65.6661 92.3845 65.024 92.3959C63.9836 92.4146 62.7611 92.3212 61.4964 91.6495C61.1379 91.4594 60.7119 91.2797 60.2736 91.0949C59.1652 90.6276 57.9795 90.1278 57.6173 89.3406C59.4333 90.1795 60.6596 89.9314 61.5844 89.7444C61.9118 89.6782 62.2015 89.6195 62.4662 89.6195C63.4782 89.6195 64.7007 88.5993 64.7007 88.5993C63.9892 88.4601 63.2698 88.4032 62.5509 88.4293C62.074 87.3002 61.1426 86.8012 60.0695 86.226C59.6559 86.0041 59.2211 85.771 58.7832 85.4863C61.9607 87.2564 63.5207 85.9522 63.5207 85.9522C63.5207 85.9522 62.0724 84.9082 61.7773 83.6416C63.3513 83.6979 65.4462 81.1085 65.4462 81.1085C65.4462 81.1085 59.9648 80.0219 57.0413 76.5451C59.4298 76.6931 62.3816 75.4638 62.3816 73.4149C62.3816 72.2973 62.3483 72.3106 61.9254 72.4808C61.5732 72.6227 60.9506 72.8734 59.8518 72.6705C57.4339 72.2233 56.5347 71.5516 56.5347 71.5516C56.5347 71.5516 58.7551 71.4786 57.997 69.7272C60.6908 70.5774 62.2417 70.0997 63.7309 68.311C60.6676 68.7582 58.9847 67.5663 58.9847 67.5663C58.9847 67.5663 60.8113 67.529 61.5708 66.1501C60.3341 65.8899 59.5466 65.7403 57.8032 65.5533C56.06 65.3664 55.9278 64.7526 55.9278 64.7526C55.9278 64.7526 57.7738 63.9468 57.6802 62.9775C57.6412 62.5749 57.4147 62.4893 57.034 62.3451C56.4981 62.1423 55.6565 61.8239 54.6015 60.3439C56.1575 61.5613 56.9631 60.8658 56.9631 60.8658C56.4335 60.1655 55.9329 59.4277 55.4634 58.6557C55.391 58.5282 55.3173 58.4021 55.2423 58.2774L55.1674 58.1525L55.15 58.1234C54.7492 57.4572 54.3757 56.8362 54.2268 55.9489C54.1426 55.4459 54.176 55.063 54.2042 54.7422C54.2384 54.3508 54.2647 54.0518 54.0588 53.7387C53.8893 53.4809 53.8769 53.0551 53.8656 52.6657C53.8517 52.1945 53.8394 51.7767 53.5522 51.7767C53.247 51.7767 53.2335 51.9954 53.2092 52.3882C53.1916 52.671 53.1686 53.044 53.0274 53.4904C52.9585 53.7089 52.8917 53.9046 52.8296 54.0872C52.5877 54.7968 52.4131 55.3092 52.4284 56.1989C52.4381 56.7593 51.9112 57.8736 51.2935 59.1804C50.6779 60.4827 49.972 61.976 49.6165 63.3022C50.3595 62.948 51.0145 62.3292 51.5098 61.5138C51.5098 61.5138 50.8441 63.6984 50.5633 64.4822C50.4181 64.8869 50.2129 65.1646 50.0083 65.4415C49.8167 65.7008 49.6258 65.959 49.4856 66.3201C49.266 66.8859 49.0618 66.9787 48.7511 67.1201C48.652 67.1652 48.542 67.2154 48.4171 67.2874C47.9015 67.585 47.8181 67.8961 47.7989 68.2191C47.7795 68.5421 47.9399 69.015 48.6326 69.0693C48.1084 69.4258 47.4358 69.8468 46.8174 70.2341L46.8099 70.2389L46.8072 70.2406C46.1583 70.6468 45.5704 71.0149 45.2782 71.2303C44.7061 71.652 45.1011 72.2606 45.6156 72.4476C46.1299 72.6346 46.9278 72.9202 47.8746 72.6176C48.3803 72.4748 48.8689 72.2408 49.3267 71.9221C49.1171 72.2755 48.9496 72.6694 48.8301 73.0902C48.6518 73.7481 43.93 76.7779 42.0173 77.0636C43.5734 77.9579 48.5955 76.8034 49.9167 75.5606C48.3333 79.1697 46.7795 79.8776 45.4739 80.4724L45.4702 80.4739L45.4688 80.4746C45.2846 80.5585 45.1055 80.6402 44.9318 80.7275C44.2104 81.0905 43.6076 81.1706 43.15 81.2312C42.7154 81.2889 42.4117 81.3292 42.261 81.5775C41.952 82.0877 41.8686 84.5954 46.2248 84.6381C45.8569 85.4075 45.2543 85.6008 44.7383 85.7662C44.3547 85.8891 44.0192 85.9968 43.8632 86.3142C43.4977 87.059 43.7799 88.2508 45.0177 88.4378C46.2557 88.625 45.6926 89.4444 45.6926 89.4444C45.6222 89.5873 45.5516 89.7347 45.4814 89.8817C45.1526 90.5689 44.829 91.2452 44.5586 91.398C44.3529 91.5139 43.9724 91.2608 43.6012 91.0139C43.3796 90.8664 43.1613 90.7212 42.9858 90.6584C42.9185 90.6341 42.8401 90.6104 42.7534 90.5842L42.7503 90.5832C42.2325 90.4266 41.4258 90.1828 40.9705 89.2643C42.0853 89.2965 43.0743 88.5077 42.8947 87.8854C42.8037 87.5697 42.4464 87.4186 42.027 87.2411C41.6194 87.0687 41.153 86.8713 40.8155 86.474C40.637 86.2643 40.4596 86.0773 40.2881 85.8964C39.8007 85.3823 39.3602 84.9177 39.0785 84.1228C39.9662 84.4746 40.9809 83.4326 40.6884 82.829C40.5699 82.5846 40.3503 82.5077 40.0559 82.4047C39.623 82.2531 39.0282 82.045 38.3562 81.1645C39.7506 81.5181 40.6127 80.3415 40.4485 79.8536C40.3957 79.6969 40.1649 79.6166 39.8442 79.5051C39.1671 79.2699 38.09 78.8954 37.4442 77.3679C38.1368 77.6977 39.2094 77.4853 39.2183 77.1606C39.2216 77.0403 39.0986 76.9392 38.9103 76.7845C38.5894 76.5209 38.0791 76.1013 37.679 75.1663C37.3508 74.399 37.2806 73.7891 37.2228 73.2867C37.1689 72.8169 37.1257 72.4415 36.8926 72.1195C36.8401 71.94 36.8025 70.8777 36.7628 69.7559C36.7134 68.3598 36.6608 66.8711 36.5719 66.8779C36.4115 66.8897 36.0652 69.241 36.0985 69.9688C36.1062 70.1344 36.1192 70.2964 36.1318 70.4543C36.1746 70.9899 36.2139 71.4827 36.0307 71.941C35.8455 72.4328 35.7664 72.9829 35.8021 73.5306C35.8076 73.8112 35.6767 74.0195 35.5538 74.2149C35.4653 74.3561 35.3809 74.4904 35.3545 74.6408C35.3218 74.8275 35.0803 74.9832 34.8585 75.1263C34.6541 75.2579 34.4667 75.3789 34.4758 75.5029C34.4892 75.6801 34.755 75.8096 34.9752 75.9166C35.0176 75.9374 35.0583 75.9571 35.0953 75.9765C35.1459 76.0027 35.1893 76.0276 35.2198 76.0519C35.3893 76.1862 34.0653 77.2268 33.2341 77.317C32.7138 77.3733 32.6125 77.5304 32.5456 77.6344C32.5055 77.6968 32.4777 77.7402 32.3797 77.7317C32.2822 77.7245 32.187 77.6887 32.1013 77.6267C32.053 77.5944 32.0276 77.5774 32.0078 77.6196C31.9654 77.7096 31.9488 78.3813 32.4554 78.3474C32.7344 78.3285 32.8653 78.48 32.9943 78.6292C33.0994 78.7509 33.2034 78.8712 33.3855 78.8964C33.6613 78.9284 33.9388 78.9248 34.2142 78.8862C34.2142 78.8862 33.8845 79.58 33.5728 79.6921C33.5031 79.7173 33.4223 79.7321 33.3378 79.7439C33.3009 79.7493 33.2632 79.7539 33.2255 79.7585L33.2243 79.7587C32.9635 79.7905 32.7001 79.8228 32.6428 80.0509C32.5582 80.3875 32.9559 80.8788 33.4625 80.9009C33.7786 80.9121 34.0937 80.8476 34.3924 80.7105C34.3924 80.7105 33.5137 81.7647 32.8467 81.8428C32.6631 81.8644 32.4551 81.8767 32.2462 81.8891H32.2444C31.695 81.9214 31.1404 81.9538 31.0123 82.1556C30.8353 82.4345 30.97 82.8358 31.7641 83.1419C32.5582 83.4479 32.5838 83.8133 32.5838 83.8133C32.5838 83.8133 31.7564 83.9154 31.6974 84.1279C31.6383 84.3405 31.8257 84.8437 32.5595 84.8675C33.2201 84.8891 33.5541 84.6444 33.6143 84.5954C33.515 84.6798 32.6935 85.3811 32.195 85.8758C31.8988 86.1697 31.4233 86.2718 31.0077 86.3608H31.0073C30.6777 86.4314 30.386 86.4937 30.2516 86.6375C30.0191 86.8858 29.6166 86.8914 29.3164 86.8958H29.3149C29.2235 86.897 29.1412 86.8979 29.0767 86.9059C28.7995 86.9399 28.375 87.4433 28.9483 88.0265C29.5217 88.6095 30.8841 88.6641 30.8841 88.6641C30.8841 88.6641 30.1399 89.7844 31.0534 90.1942C30.893 91.0563 29.0421 92.1085 28.8046 92.1648C28.7799 92.1704 28.7549 92.1746 28.7298 92.1774C28.7123 92.1796 28.694 92.1813 28.675 92.183C28.626 92.1869 28.5722 92.189 28.5159 92.1915H28.5126C28.2695 92.2017 27.9758 92.214 27.7913 92.367C27.5207 92.5913 27.4064 93.3293 28.2056 93.6661C28.4836 93.783 28.7304 93.9782 28.982 94.1773C29.4541 94.5505 29.9425 94.9368 30.6813 94.8425C30.1748 95.4359 28.357 96.4544 28.357 96.4544C28.357 96.4544 26.5484 95.021 25.7029 93.394C24.8576 91.7669 24.0354 90.2588 23.5401 89.6314C25.4643 90.3116 26.9036 90.2808 27.8336 90.1006C28.7637 89.9205 29.3371 89.667 29.3371 89.4478C29.3371 89.3161 28.6322 89.118 28.0058 88.942C27.5876 88.8244 27.2046 88.7167 27.0898 88.6454C27.8248 88.108 27.7067 87.4247 27.7067 87.4247C27.7067 87.4247 26.2865 87.9346 24.8165 86.1256C23.3465 84.3168 21.5839 81.5709 20.9874 79.119C22.3482 81.1326 24.03 82.7188 25.9108 83.7624C26.8484 84.2724 28.8535 84.6635 30.1194 83.8133C28.761 83.2149 27.4882 82.3172 26.3547 81.1577C26.3547 81.1577 28.547 79.9675 28.1671 77.8815C26.6458 77.8643 24.8459 77.0925 23.78 75.8819C22.714 74.6716 22.5641 74.7395 22.5641 74.7395C22.5641 74.7395 24.4393 73.177 23.907 71.5651C23.8601 71.434 23.6416 71.4131 23.3417 71.3845C22.9115 71.3435 22.3141 71.2865 21.8161 70.8648C21.5387 70.6298 21.335 70.4758 21.1738 70.3539C20.8435 70.1043 20.6909 69.9889 20.4461 69.5878C21.199 69.8107 22.5176 69.3295 22.3396 68.3671C22.2441 67.8522 21.8974 67.5801 21.518 67.2826C21.1886 67.0238 20.8342 66.7459 20.5987 66.2726C20.7936 65.8679 20.8015 65.5771 20.6744 65.3307C21.0887 65.0841 21.2915 64.166 21.2248 63.6167C21.158 63.0677 20.6411 61.7466 20.1164 60.917C19.8171 60.4436 19.6337 58.7129 19.4861 57.318C19.375 56.268 19.2839 55.4083 19.1788 55.4185C19.0574 55.4302 19.0563 55.7078 19.0548 56.0585C19.0534 56.4159 19.0515 56.849 18.9221 57.1543C18.6655 57.7596 18.5835 58.6098 18.5374 59.3834C18.4911 60.157 18.3088 61.029 17.9793 61.5223C17.8993 61.642 17.8166 61.7577 17.7369 61.8695C17.4879 62.2185 17.2655 62.5303 17.2277 62.8109C17.2039 62.9862 17.0112 63.106 16.8139 63.2287C16.5945 63.3653 16.3696 63.5052 16.3656 63.729C16.3762 64.1663 16.505 64.5839 16.7285 64.9056C16.9055 65.1299 17.32 65.1401 17.32 65.1401C16.9687 65.7687 16.5037 66.2698 15.9679 66.5973C15.1148 67.0903 14.7506 67.6379 14.7173 67.9863C14.6838 68.3348 14.9367 68.7922 15.4355 68.9265C15.6887 68.9946 15.8242 69.1249 15.946 69.2418C16.0643 69.3555 16.1694 69.4564 16.3566 69.4755C16.5632 69.4969 16.6589 69.3441 16.749 69.2003C16.8243 69.0798 16.8956 68.9656 17.0249 68.9656C17.3083 68.9656 17.5058 68.9995 17.5149 69.122C17.518 69.1651 17.4151 69.2488 17.2756 69.362C17.0191 69.5703 16.6389 69.879 16.5682 70.2205C16.4802 70.6458 16.0171 70.8076 15.615 70.948C15.5189 70.9817 15.4263 71.0139 15.3431 71.0484C15.1671 71.1214 14.9597 71.1422 14.7679 71.1616C14.4909 71.1898 14.2465 71.2145 14.1759 71.3884C14.1269 71.5094 13.9382 71.7012 13.7312 71.9117C13.4348 72.2131 13.1004 72.5531 13.0854 72.7774C13.0712 72.9908 13.3644 73.0813 13.6648 73.1741C13.9007 73.2471 14.1411 73.3213 14.2401 73.4576C14.4644 73.767 15.8536 74.2753 16.091 74.2855C16.327 74.2957 16.327 74.3847 16.327 74.4412V74.4419C16.327 74.4553 16.2859 74.4526 16.2182 74.448C16.0034 74.4337 15.5216 74.4014 15.2457 74.8125C15.1501 74.9548 15.083 75.093 15.0234 75.2165C14.8561 75.5615 14.7449 75.791 14.2194 75.6746C13.8614 75.5953 13.6456 75.796 13.3838 76.0398C13.1238 76.2818 12.8185 76.5657 12.2837 76.6606C11.21 76.8512 6.86389 76.3019 5.64287 74.1546C5.97199 75.0584 6.38265 75.7599 6.70701 76.3145C6.94342 76.7188 7.13413 77.0447 7.21421 77.3136C7.31898 77.6652 7.60915 77.7722 7.93753 77.8934C8.20448 77.9919 8.49702 78.0996 8.73563 78.3559C8.85216 78.4827 8.96724 78.6119 9.08084 78.7434C9.6129 79.3513 10.3009 80.1378 10.6496 80.0015C10.3455 80.4385 8.27889 80.9775 7.22701 80.2719C7.55978 80.9055 8.26737 81.2496 8.802 81.5096C9.06072 81.6354 9.27922 81.7417 9.39496 81.8513C9.75022 82.1881 11.0625 82.506 11.7141 82.2373C12.3659 81.9686 13.6294 81.9517 13.6294 81.9517C13.6603 82.0027 13.6971 82.0468 13.7385 82.0824C13.7948 82.1308 13.8585 82.1622 13.925 82.1743C13.9915 82.1864 14.0592 82.1788 14.1232 82.1522C14.0526 82.3644 13.7332 82.637 13.3511 82.9629C12.9766 83.2823 12.542 83.6528 12.2222 84.0685C11.5757 84.9082 7.61957 87.5299 6.3779 87.3446C6.73316 88.1352 8.0891 88.9582 9.12801 89.0753C10.1671 89.1927 11.8926 88.9752 11.8926 88.9752C11.8926 88.9752 11.9297 90.0155 10.5867 90.4355C11.6384 91.2857 14.0091 90.9576 14.0091 90.9576C14.0091 90.9576 13.2227 91.2263 12.2222 92.7376C11.628 93.6351 10.5507 94.0876 9.66026 94.4618C9.05085 94.7178 8.52902 94.9371 8.30961 95.237C7.76968 95.975 6.09175 96.8164 5.48764 96.8164C5.30151 96.8164 5.00915 96.8513 4.68241 96.8904H4.6815C3.94648 96.9784 3.03812 97.0868 2.77447 96.8657C2.39342 96.546 1.74818 97.1683 2.72437 98.6136C3.70074 100.059 4.15729 100.261 5.10788 100.261C6.05847 100.261 8.26354 100.091 8.26354 100.091C8.26354 100.091 5.23477 102.459 5.145 102.811C5.05541 103.163 5.36057 104.088 6.60352 103.971C7.84666 103.854 10.4827 102.963 11.3576 101.837C11.2691 102.811 11.7425 103.063 12.0798 103.08C12.4171 103.097 13.424 102.643 14.4631 101.349C13.9309 102.539 11.6913 106.166 9.57835 107.64C8.51604 108.381 7.39797 108.836 6.52709 109.19C5.66591 109.54 5.04645 109.792 4.96033 110.126C4.78718 110.797 4.87567 111.805 6.46383 111.94C8.0518 112.074 9.18579 112.186 9.18579 112.186C9.18579 112.186 6.54849 116.018 4.8424 117.317C3.13631 118.616 1.17351 118.863 0.565562 118.661C-0.0425671 118.458 -0.279895 119.468 0.464268 120.021C0.889922 120.337 1.24335 120.504 1.5125 120.631C1.71362 120.726 1.86721 120.798 1.96887 120.895C2.08003 121 2.37971 121.001 2.73991 121.004H2.74064C3.14947 121.006 3.63601 121.009 4.01358 121.163C4.72428 121.454 7.12316 120.492 7.12316 120.492C7.05747 120.649 7.03183 120.829 7.05009 121.007C7.06835 121.185 7.12952 121.35 7.22445 121.478C6.41154 122.132 6.00874 122.897 5.69224 123.498C5.45638 123.946 5.26805 124.303 4.99379 124.456C4.87458 124.523 4.68442 124.616 4.44947 124.73C3.41605 125.235 1.51853 126.161 1.01882 127.116V291H389.208V127.116C389.208 127.116 387.729 124.754 383.718 124.564C382.573 124.51 379.485 124.146 376.089 120.292C379.648 122.558 386.054 123.042 388.413 120.698C386.725 121.237 384.67 120.184 384.67 120.184C385.556 119.934 386.425 119.592 387.27 119.161C388.63 118.453 390 115.964 390 115.964ZM228.188 100.289C228.542 100.022 229.122 99.5865 229.614 99.2958C230.643 100.543 232.764 102.441 236.768 103.74C236.195 104.025 235.609 104.265 235.015 104.46C234.814 104.44 234.556 104.451 234.274 104.462C233.497 104.493 232.526 104.531 231.965 103.994C231.128 103.192 230.63 103.195 230.241 103.197H230.239C230.184 103.198 230.128 103.197 230.073 103.195C229.654 103.177 229.195 103.066 228.612 102.274C228.241 101.77 227.736 101.795 227.348 101.814C227.127 101.825 226.944 101.834 226.847 101.74C226.668 101.532 226.534 101.264 226.458 100.965C226.458 100.965 227.597 100.731 228.07 100.376L228.188 100.289ZM230.294 110.899C230.542 110.912 230.762 110.82 230.912 110.651C231.815 111.519 232.753 112.542 232.753 112.542C232.753 112.542 231.672 112.647 230.129 112.48C228.242 111.94 226.458 110.762 226.542 110.512C226.606 110.323 227.917 110.537 229.003 110.715C229.559 110.805 230.054 110.886 230.294 110.899ZM237.896 119.056L237.882 119.044C238.732 119.031 239.624 118.974 240.557 118.866C239.809 120.257 237.798 121.516 235.11 122.229C235.015 122.065 234.918 121.878 234.81 121.671C234.719 121.494 234.618 121.304 234.506 121.1C235.247 120.015 234.525 119.082 234.525 119.082C235.64 119.359 236.784 119.351 237.896 119.056ZM257.78 76.1186C257.78 76.1186 255.157 78.2715 252.942 78.084C253.68 77.4814 254.391 76.8253 255.074 76.1186C256.296 76.6327 257.78 76.1186 257.78 76.1186ZM257.579 83.1799C256.694 82.7202 255.885 82.0331 255.2 81.1582C256.808 81.724 258.373 80.6196 258.881 79.9457C258.879 80.429 258.609 80.8146 258.314 81.2341C257.95 81.7499 257.554 82.3164 257.576 83.1775L257.579 83.1799ZM259.384 70.5328C259.384 70.5328 259.536 69.8441 259.649 69.3696C260.148 69.4532 260.494 69.4901 260.494 69.4901L259.384 70.5328ZM269.572 64.6102L271.709 65.176C271.709 65.176 269.371 65.5276 267.884 66.1598C268.5 65.7546 269.069 65.2326 269.572 64.6102ZM274.17 72.8031C274.355 73.3689 272.177 78.3003 272.177 78.3003C272.177 78.3003 272.806 73.381 272.3 72.749C271.791 72.1168 269.797 71.7259 269.797 71.7259C271.468 71.1847 272.581 68.007 272.581 68.007C272.581 68.007 273.415 68.8407 273.881 68.8407C273.19 69.704 273.759 70.673 274.267 70.9977C273.784 71.5363 273.987 72.2374 274.172 72.8031H274.17ZM289.05 57.8915C290.244 58.4338 292.156 57.7897 292.908 57.4924C292.474 57.6818 291.701 58.0383 291.333 58.3581C290.515 59.0084 289.554 59.2687 288.609 59.096C288.807 58.7311 288.956 58.3236 289.05 57.8915ZM291.46 65.572C291.813 66.0024 290.132 68.2776 287.039 69.8124C289.266 67.8716 290.381 64.6743 289.697 64.1701C289.322 63.8932 288.975 64.11 288.62 64.3306C288.331 64.512 288.035 64.6958 287.719 64.6102C287.439 64.5351 287.243 64.4558 287.082 64.3898C286.837 64.2899 286.666 64.2206 286.389 64.2414C286.177 64.2574 285.998 64.0898 285.81 63.9123C285.589 63.7055 285.355 63.4848 285.033 63.5231C284.698 63.5699 284.36 63.5459 284.031 63.4518C284.031 63.4518 286.037 61.7989 286.55 61.9073C286.733 61.9457 286.861 62.0924 287.02 62.2735C287.307 62.6036 287.697 63.0483 288.695 63.1642C289.361 63.2413 289.884 63.3587 290.355 63.4642L290.357 63.4644C290.982 63.6044 291.516 63.7237 292.164 63.7028C291.105 64.1701 291.105 65.1391 291.458 65.572H291.46ZM310.801 54.7204C310.872 54.6913 310.978 54.6838 311.108 54.6745C311.459 54.6496 311.976 54.6129 312.408 54.1005C312.998 53.3997 313.627 52.2411 313.647 51.7837C313.668 51.3263 314.075 50.9476 314.521 51.0458C314.587 51.0603 314.68 51.0838 314.792 51.1125C315.441 51.2788 316.748 51.6139 317.39 51.314C316.006 50.7751 315.662 49.9145 315.662 49.9145L319.1 50.3449C317.167 52.502 312.55 55.6254 311.92 55.6009C311.289 55.5764 310.535 54.8288 310.799 54.7204H310.801ZM317.898 57.1997C317.451 57.667 315.688 58.7985 315.688 58.7985C315.688 58.7985 316.394 56.8308 315.946 56.0929C315.946 56.0929 317.385 55.7338 319.173 55.2493C318.531 55.5604 318.368 56.0679 318.226 56.5175C318.14 56.7821 318.061 57.0265 317.897 57.1997H317.898ZM324.569 75.9806V75.9932L322.789 73.5583C322.978 73.2479 323.209 72.9868 323.47 72.7883C323.826 72.5596 324.203 72.7883 324.479 73.1254C324.746 73.4535 324.585 75.7374 324.569 75.9806ZM328.454 58.6557C328.373 57.0103 328.454 56.3905 328.454 56.3905C329.288 58.1416 330.712 59.3812 330.712 59.3812C330.712 59.3812 328.737 58.9239 328.452 58.6557H328.454ZM340.757 86.734C340.626 86.6979 340.509 86.6625 340.403 86.6307C339.79 86.4452 339.561 86.3756 339.086 86.9506C338.53 87.6245 340.183 90.2391 340.183 90.2391C340.183 90.2391 338.212 88.9451 337.499 88.5173C337.128 88.2938 336.738 88.5094 336.4 88.6975C336.089 88.8699 335.821 89.0193 335.643 88.7877C334.872 87.7646 334.585 87.0367 334.647 86.766C334.707 86.4954 335.643 85.9323 336.945 85.9864C337.742 86.0196 338.19 85.8799 338.552 85.7669C338.781 85.6954 338.976 85.6348 339.203 85.6348C339.494 85.6348 339.905 85.7206 340.306 85.8043L340.307 85.8045C340.717 85.8899 341.114 85.973 341.359 85.9595C341.843 85.9323 342.273 85.8511 342.273 85.8511L342.578 86.6579C341.98 86.8443 341.361 86.8703 340.755 86.734H340.757ZM346.818 81.8838C345.354 82.693 341.651 83.0694 340.757 82.7471C340.07 82.4995 337.477 79.8599 336.172 78.531C335.778 78.1316 335.502 77.8505 335.429 77.7887C335.429 77.7887 336.771 77.6437 337.367 78.0026L337.514 78.0908C337.96 78.3634 337.989 78.3811 339.049 78.5782C339.616 78.6835 340.086 78.5421 340.498 78.4187C340.933 78.2882 341.302 78.1774 341.648 78.3986C342.322 78.829 343.736 78.8659 344.279 78.507C344.507 78.3547 344.869 78.4199 345.268 78.4914C345.809 78.5889 346.418 78.6985 346.855 78.2904C347.614 77.5821 349.131 77.7984 349.131 77.7984C349.131 77.7984 348.274 81.0745 346.817 81.8838H346.818ZM351.007 104.681C351.007 104.681 349.422 102.365 348.323 102.222C349.632 101.578 350.887 100.753 352.066 99.7626L351.007 104.681ZM367.141 94.4964C366.382 95.286 366.843 96.0412 366.843 96.0412C365.332 95.6882 363.903 94.8767 362.667 93.67C365.026 92.9864 367.139 94.4964 367.139 94.4964H367.141ZM363.59 115.085L364.645 112.532L366.302 112.39L363.59 115.085ZM363.881 109.586V106.268C363.881 106.268 367.116 107.291 370.226 106.617C367.534 108.751 363.974 109.565 363.881 109.586ZM370.045 91.4244C369.357 91.2241 368.326 90.3764 367.607 89.7842C367.355 89.5766 367.141 89.4005 366.993 89.2946C366.415 88.8517 365.817 88.4558 365.203 88.109L365.115 88.0668C364.627 87.834 364.113 87.5891 364.94 87.1252C365.816 86.6334 368.355 86.3579 368.355 86.3579C368.355 86.3579 369.412 87.8927 370.211 87.8927C370.211 87.8927 368.714 88.6747 367.202 88.3255C371.533 91.0457 372.771 89.0215 372.771 89.0215L372.912 91.1541C372.219 91.9361 370.977 91.6926 370.043 91.4244H370.045ZM110.699 91.6812C110.715 91.7196 110.733 91.7593 110.75 91.8008C110.809 91.9412 110.835 92.0634 110.835 92.1641C111.141 91.9977 111.202 91.7797 110.948 91.7205C110.895 91.7091 110.841 91.7 110.787 91.6931C110.758 91.6888 110.728 91.6848 110.699 91.6812ZM109.588 92.9648L109.56 92.9808C109.063 93.2546 108.238 92.8312 108.238 92.8312C108.238 92.8312 109.238 94.4719 109.649 95.1417C109.915 95.5743 110.697 95.8319 111.551 95.8326C111.902 95.7528 112.3 95.6376 112.72 95.3675C113.431 94.9104 113.874 94.1618 114.249 93.5289C114.397 93.2779 114.535 93.0453 114.675 92.8562C114.201 93.128 113.652 93.0594 113.58 92.87C113.507 92.6804 113.078 92.6132 112.791 92.911C112.601 93.1093 112.473 93.0499 112.34 92.9878C112.272 92.9568 112.204 92.9248 112.125 92.9248C112.028 92.9248 111.93 92.9861 111.825 93.0521C111.677 93.145 111.515 93.2468 111.317 93.1995C111.139 93.1566 111.026 93.2122 110.896 93.2762C110.78 93.3336 110.65 93.3977 110.447 93.404C110.176 93.4127 109.808 93.1831 109.588 92.9648ZM110.618 97.3819C111.207 98.2993 110.252 99.4522 108.114 99.5877C108.388 100.18 108.693 100.745 109.028 101.279C109.146 101.277 109.28 101.273 109.432 101.268C109.73 101.259 110.101 101.247 110.584 101.242C111.783 101.23 112.706 100.481 113.3 99.9995L113.303 99.9973C113.378 99.9367 113.447 99.8802 113.511 99.8302C113.789 99.6139 114.066 99.2797 114.361 98.9235L114.362 98.923C114.678 98.5421 115.015 98.1356 115.396 97.8214C115.98 97.3388 116.217 96.7575 116.474 96.1265C116.541 95.9623 116.609 95.7945 116.686 95.6243C116.192 95.8013 116.037 95.546 115.944 95.391C115.919 95.3498 115.898 95.3158 115.876 95.2989C115.789 95.2295 115.574 95.5069 115.161 96.0392L115.161 96.0399L114.935 96.3302C114.372 97.0497 113.112 97.8228 113.112 97.8228C113.36 97.199 113.666 96.6199 114.024 96.0996C113.174 97.2132 111.771 97.3752 111.198 97.4026C111.008 97.4115 110.805 97.4043 110.618 97.3819ZM112.598 106.955C112.797 107.108 113.108 107.307 113.529 107.459C114.429 106.721 115.137 105.637 115.56 104.351C115.56 104.351 113.546 106.486 112.938 106.78C112.824 106.835 112.709 106.894 112.598 106.955ZM112.205 108.502C111.618 108.447 111.019 108.275 110.464 107.934C110.409 108.641 109.734 108.901 109.734 108.901C109.734 108.901 109.764 109.467 110.119 110.253C110.72 109.736 111.46 109.107 112.205 108.502ZM110.86 111.462C110.949 111.576 111.041 111.684 111.136 111.789L111.162 111.762C111.712 111.2 112.303 110.596 112.949 109.982C112.505 110.377 111.706 110.923 110.86 111.462ZM111.848 118.694L111.824 118.688L111.841 118.705L111.848 118.694ZM199.014 105.658C199.014 105.658 198.768 106.354 198.407 106.987L198.295 106.936L198.294 106.936C198.014 106.808 197.761 106.693 197.51 106.752C197.284 106.806 197.217 106.572 197.154 106.353C197.11 106.201 197.068 106.057 196.978 106.02C196.756 105.931 196.896 105.295 197.081 105.059C197.117 105.005 197.156 104.954 197.197 104.908C197.241 105.032 197.336 105.207 197.54 105.4C197.929 105.769 199.014 105.658 199.014 105.658ZM198.013 99.6767L197.954 99.7182L197.939 99.7291C197.721 99.652 197.515 99.6224 197.302 99.6573C196.865 99.7286 196.332 99.4046 196.128 99.1328C196.009 98.9834 195.924 98.7933 195.883 98.5835C195.883 98.5835 197.955 98.1495 198.407 97.0456C197.848 97.154 196.92 97.4794 196.92 97.4794C196.92 97.4794 197.741 96.5075 198.252 95.3685C199.125 95.2758 200.249 94.7739 200.249 94.7739C200.249 94.7739 198.824 96.3819 199.123 96.782C199.422 97.1824 200.645 96.9503 200.645 96.9503C200.645 96.9503 200.181 98.1293 198.013 99.6767ZM196.971 95.3204C197.193 95.3556 197.404 95.3687 197.599 95.375C197.467 95.5436 197.339 95.716 197.213 95.892C197.213 95.892 197.151 95.4941 196.971 95.3204ZM195.687 94.827C195.996 95.0302 196.324 95.1752 196.663 95.2579C196.428 95.3156 196.343 95.498 196.343 95.498C196.343 95.498 195.841 95.1905 195.712 94.8747L195.7 94.8527L195.696 94.8439L195.687 94.827ZM196.456 92.4155C196.456 92.4155 196.262 92.5642 195.972 92.7541C195.977 92.6557 195.974 92.5569 195.964 92.4592C195.959 92.4064 195.952 92.3539 195.943 92.3018C196.258 92.3886 196.456 92.4155 196.456 92.4155ZM121.469 108.175L120.547 106.003L123.229 107.523L121.469 108.175ZM24.016 102.498C24.116 103.098 24.345 103.647 24.6753 104.078C25.1577 103.874 25.7402 103.707 25.7402 103.707L24.016 102.498ZM28.5545 101.222L27.1346 101.087L27.9208 102.13L28.5545 101.222ZM28.3005 108.414C28.7961 109.28 29.4512 109.962 30.203 110.396L31.7743 108.753C31.7743 108.753 29.6962 109.119 28.3005 108.414ZM62.8074 97.3929L63.1115 98.4674L64.5572 97.6273L63.568 96.2824L62.8074 97.3929ZM80.9099 98.5675L81.8234 99.7781L82.4314 98.5675H80.9099ZM81.8234 95.577L83.1664 96.4849L84.0541 95.577H81.8234ZM81.8234 92.2514L83.573 93.1915V93.1966C83.573 93.1966 84.8904 92.3144 85.3215 91.6461C84.5172 92.1835 81.8234 92.2514 81.8234 92.2514ZM101.01 97.2769C101.176 97.2221 101.303 97.1799 101.37 97.1462V97.1428C101.709 96.9627 102.137 96.1161 102.137 96.1161C102.137 96.1161 101.867 96.2502 100.329 96.5189C98.7907 96.7876 98.5534 96.2502 99.1628 95.6228C99.772 94.9955 100.735 93.9431 100.735 93.9431C100.735 93.9431 99.096 94.3682 97.8273 93.9431C98.2672 94.4157 98.7817 96.6991 98.1659 96.1161C97.5503 95.5329 95.4721 95.577 95.4721 95.577L97.1859 98.2666L95.8673 97.6615L98.1314 100.484H97.5977L100.035 103.015C100.035 103.015 100.243 101.694 100.628 100.933C100.628 100.933 98.2956 99.9022 98.7176 98.804C99.056 97.9232 100.341 97.4983 101.01 97.2769Z" fill="#3D4833"/>
</svg>
