<svg width="38" height="38" viewBox="0 0 38 38" fill="none" xmlns="http://www.w3.org/2000/svg">
<path d="M18.9999 29.0283C18.5471 29.0283 18.2371 29.3303 18.2371 29.7913V34.3525C18.2371 34.8054 18.539 35.1154 18.9999 35.1154C19.4609 35.1154 19.7629 34.8133 19.7629 34.3525V29.7912C19.7548 29.3303 19.4529 29.0283 18.9999 29.0283Z" fill="#D5B36B"/>
<path d="M9.11458 19.0002C9.11458 18.5473 8.81261 18.2373 8.35172 18.2373H3.79045C3.3375 18.2373 3.02759 18.6903 3.02759 19.0002C3.02759 19.4531 3.32955 19.7631 3.63947 19.7631H8.20074C8.66163 19.7551 9.11458 19.4531 9.11458 19.0002Z" fill="#D5B36B"/>
<path d="M18.9999 9.11482C19.4529 9.11482 19.7629 8.81286 19.7629 8.35196V3.79069C19.7629 3.33774 19.4609 3.02783 18.9999 3.02783C18.539 3.02783 18.2371 3.3298 18.2371 3.79069V8.35196C18.2371 8.81286 18.539 9.11482 18.9999 9.11482Z" fill="#D5B36B"/>
<path d="M19 0C8.51067 0 0 8.51067 0 19C0 29.4893 8.51067 38 19 38C29.4893 38 38 29.4893 38 19C38 8.51067 29.4814 0 19 0ZM19 36.4743C9.27353 36.4743 1.52572 28.7265 1.52572 19C1.52572 9.27353 9.27353 1.52572 19 1.52572C28.7265 1.52572 36.4743 9.27353 36.4743 19C36.4743 28.7265 28.7265 36.4743 19 36.4743Z" fill="#D5B36B"/>
<path d="M16.2586 16.2583C13.525 18.9919 8.81274 29.1793 8.81274 29.1793C8.81274 29.1793 19.0001 24.3161 21.7337 21.7335C24.4673 19.1509 29.1795 8.8125 29.1795 8.8125C29.1795 8.8125 19.0001 13.6757 16.2586 16.2583ZM12.1582 25.9848C12.1582 25.9848 15.8056 19.1429 17.4744 17.4741L20.6689 20.6686C19.0001 22.3374 12.1582 25.9848 12.1582 25.9848Z" fill="#D5B36B"/>
<path d="M34.3446 18.2373H29.7834C29.3304 18.2373 29.0205 18.5393 29.0205 19.0002C29.0205 19.4611 29.3225 19.7631 29.7834 19.7631H34.3446C34.7976 19.7631 35.1075 19.4611 35.1075 19.0002C34.9565 18.6903 34.6466 18.2373 34.3446 18.2373Z" fill="#D5B36B"/>
</svg>
