<svg width="963" height="400" viewBox="0 0 963 400" fill="none" xmlns="http://www.w3.org/2000/svg">
<path d="M555.811 209.904C555.751 208.985 554.97 208.343 554.04 208.56C550.58 209.35 547.504 210.447 544.291 211.909C543.49 212.274 544.083 213.44 544.864 213.262C546.763 212.857 548.671 212.472 550.57 212.087C548.028 214.349 545.645 216.858 543.094 219.051C541.653 220.284 540.196 221.5 538.724 222.697C529.686 213.44 515.427 210.506 502.809 211.622C502.799 211.622 502.799 211.622 502.799 211.632C501.731 211.336 500.436 212.423 501.178 213.628C505.983 221.452 510.809 229.256 515.773 236.971C513.044 237.742 510.314 238.651 507.496 238.908C504.877 239.153 502.239 239.127 499.625 238.829C497.875 238.621 496.224 238.147 494.523 238.177C494.27 237.599 493.993 237.032 493.692 236.477C493.584 235.114 492.931 233.978 492.476 232.664C492.684 232.388 492.862 232.081 493 231.745C493.326 230.886 493.287 230.046 493.02 229.246C492.872 227.478 491.734 225.818 490.123 224.85C490.083 224.801 490.044 224.741 490.004 224.692C489.823 224.484 489.591 224.327 489.331 224.237C489.071 224.147 488.792 224.126 488.521 224.178C488.194 224.093 487.859 224.036 487.522 224.01C485.001 223.842 482.706 225.561 482.776 228.199C482.786 228.891 482.964 229.523 483.24 230.096C483.31 230.274 483.389 230.441 483.488 230.609C483.498 230.817 483.527 231.024 483.567 231.222C484.14 234.008 486.78 234.956 489.134 234.363C489.371 234.353 489.608 234.314 489.856 234.265C489.935 234.255 490.004 234.225 490.083 234.205C490.212 234.61 490.36 235.045 490.439 235.628C490.844 238.394 488.264 241.17 486.78 243.225C484.16 246.83 480.58 250.169 478.257 253.933C474.123 260.621 488.56 257.894 491.072 257.005C491.863 256.729 491.804 255.415 490.864 255.454C488.679 255.533 483.577 256.66 481.184 255.375C482.242 253.39 485.178 250.782 486.256 249.399C487.825 247.41 489.338 245.377 490.795 243.304C491.131 242.82 491.477 242.326 491.814 241.832C492.812 244.835 494.108 247.818 494.82 250.643C496.382 256.877 495.759 262.962 494.048 269.087C492.99 272.851 483.774 292.292 493.811 292.006C494.464 291.986 494.948 291.255 494.582 290.662C493.089 288.311 492.179 286.484 492.881 283.579C493.485 281.119 494.503 278.729 495.334 276.348C496.955 271.685 498.478 266.963 499.121 262.063C500.782 264.266 502.879 266.242 504.431 267.773C506.339 269.65 510.512 272.258 511.264 274.906C512.134 278.017 510.275 281.297 511.452 284.419C511.709 285.101 512.698 285.367 513.093 284.636C514.448 282.196 514.428 278.778 514.339 276.022C514.25 273.365 513.044 271.053 511.254 269.136C509.019 266.726 506.478 264.612 504.263 262.182C502.364 260.097 501.099 257.361 499.25 255.247C498.983 252.303 498.33 249.409 497.43 246.524C496.955 245.013 496.471 243.343 495.907 241.664C499.477 243.076 504.312 242.958 507.526 242.592C509.998 242.316 512.826 241.753 515.545 240.903C512.44 243.481 509.454 246.178 506.685 249.093C506.112 249.695 506.893 250.841 507.615 250.298C511.382 247.453 515.1 244.548 518.809 241.624C524.712 250.693 530.348 259.979 536.469 268.89C537.052 269.739 538.387 269.887 538.941 268.89C545.556 256.966 550.481 239.214 542.214 226.944C541.66 226.122 541.066 225.328 540.434 224.564C541.611 223.605 542.788 222.647 543.954 221.669C546.931 219.17 550.283 216.611 553.022 213.697C553.022 215.278 553.101 216.848 553.566 218.221C553.902 219.199 555.099 219.101 555.454 218.221C556.453 215.781 555.979 212.492 555.811 209.904ZM504.322 213.322C516.109 213.924 528.578 215.525 536.993 224.109C534.902 225.789 532.796 227.448 530.674 229.088C527.787 231.331 524.85 233.534 521.943 235.786C521.014 235.825 520.094 235.954 519.174 236.132C514.329 228.456 509.345 220.879 504.322 213.322ZM539.96 227.646C544.172 233.622 544.815 240.37 543.658 247.443C542.679 253.508 541.285 260.344 537.804 265.6C532.524 256.828 526.798 248.282 521.38 239.599C524.9 236.813 528.42 234.027 531.98 231.271C534.231 229.526 536.469 227.764 538.694 225.986C539.109 226.51 539.544 227.063 539.96 227.646ZM752.647 163.671C749.898 162.09 746.853 161.29 743.777 160.569C743.54 160.51 743.293 160.46 743.055 160.401C747.93 153.841 751.698 143.844 747.653 136.119C747.297 135.427 746.18 135.754 746.2 136.514C746.279 140.505 746.259 144.417 745.073 148.27C744.677 149.564 744.163 150.799 743.609 152.004C744.242 144.555 741.75 136.139 734.522 135.635C733.602 135.576 733.493 136.761 734.097 137.206C738.26 140.268 740.366 143.637 740.336 148.951C740.316 151.678 739.476 154.276 738.912 156.884C738.457 155.402 738.319 153.585 737.973 152.142C737.696 150.977 735.669 151.184 735.817 152.429C735.847 152.705 735.877 153.022 735.896 153.338C735.717 153.539 735.618 153.8 735.619 154.069C735.57 158.099 735.165 162.041 734.551 166.012C734.265 167.85 733.998 169.677 733.592 171.495C733.286 172.848 733.029 175.812 732.119 176.869C730.141 179.18 722.577 178.943 719.63 178.696C717.405 178.499 716.555 178.123 715.111 176.543C714.389 175.743 713.747 175.18 712.748 174.745C711.284 174.113 709.099 175.18 709.752 177.047C710.068 177.946 710.266 178.805 710.355 179.655C709.149 180.05 707.952 180.741 706.924 181.117C704.748 181.917 702.355 182.648 700.279 183.774C696.234 184.426 692.23 185.473 688.245 186.599C686.109 187.202 686.593 190.324 688.759 190.403C694.632 190.61 700.457 190.422 706.261 189.761C702.444 193.109 698.786 196.616 695.344 200.351C693.97 201.842 695.809 204.608 697.629 203.304C703.225 199.264 708.773 194.344 714.755 190.906C717.118 189.553 720.293 190.551 722.913 190.847C725.82 191.183 729.251 191.272 732.159 192.122C732.544 195.006 731.249 198.977 730.804 201.595L729.202 210.931C728.797 213.321 732.178 214.359 732.9 211.948C734.087 207.987 735.273 204.016 736.45 200.044C737.043 198.059 737.696 196.083 738.23 194.097C738.556 193.208 738.784 192.299 738.892 191.351C740.168 191.173 741.256 191.638 742.136 192.774C743.955 195.174 744.282 199.274 745.27 202.079C746.141 204.559 747.278 206.742 748.939 208.787C749.908 209.992 752.331 209.034 752.133 207.463C751.263 200.351 747.653 193.92 746.091 186.935C745.165 182.803 744.635 178.592 744.509 174.36C744.43 171.584 744.608 170.25 747.189 168.837C748.692 168.008 750.61 167.573 752.222 166.98C753.616 166.457 754.091 164.491 752.647 163.671ZM741.612 167.464C739.446 170.092 740.801 176.434 741.107 179.487C741.416 182.445 741.908 185.382 742.581 188.279C741.819 187.893 740.929 187.666 739.921 187.607C737.271 187.479 736.223 188.526 735.501 190.264C734.057 187.538 729.815 187.874 726.344 187.419C722.745 186.945 718.295 185.671 714.666 186.748C714.647 186.379 714.523 186.024 714.307 185.724C714.091 185.424 713.794 185.193 713.45 185.058C713.875 183.942 714.152 182.826 714.29 181.709C714.3 181.719 714.31 181.729 714.32 181.729C715.912 182.826 717.761 182.806 719.63 182.826C722.618 182.841 725.604 182.662 728.569 182.292C730.329 182.085 732.613 182.124 734.126 181.067C737.389 178.795 737.854 172.068 738.408 168.521C738.724 166.447 738.843 164.352 738.833 162.258C740.247 163.009 742.136 163.207 743.609 163.621C744.756 163.938 745.834 164.303 746.882 164.728C744.786 165.35 742.699 166.131 741.612 167.464ZM654.664 131.249C661.131 128.957 667.37 126.122 673.451 122.971C676.032 130.399 679.543 137.344 684.141 143.765C684.724 144.585 685.96 143.923 685.584 143.024C685.673 142.837 685.703 142.619 685.673 142.372C685.021 138.49 683.181 134.568 681.807 130.874C680.806 128.202 679.784 125.538 678.742 122.882C685.149 125.104 691.517 127.406 697.945 129.589C700.14 130.34 700.97 126.991 698.884 126.171C692.117 123.495 685.493 120.472 679.038 117.112C680.502 113.398 682.331 109.298 682.618 105.327C682.736 105.268 682.855 105.179 682.954 105.06C685.535 101.781 690.608 101 694.503 100.161C695.621 99.924 696.096 98.264 695.206 97.513C693.485 96.061 691.814 95.943 689.589 95.923C688.363 95.913 687.107 95.992 685.871 95.972C689.282 92.347 689.045 84.799 688.017 80.442C686.87 75.552 683.369 68.865 678.01 67.798C677.308 67.659 676.734 68.341 677.08 69.003C679.374 73.241 682.944 75.958 684.22 80.877C684.902 83.515 685.001 86.261 684.506 88.938C683.785 85.589 682.173 82.231 680.818 80.364C677.328 75.533 670.445 71.285 664.295 72.717C663.435 72.915 663.573 74.061 664.295 74.317C669.901 76.343 674.875 77.795 678.138 83.287C679.572 85.698 680.383 88.484 680.512 91.289C680.561 92.179 680.462 92.989 680.393 93.769C679.988 93.246 679.602 92.633 679.187 91.892C678.188 90.163 675.914 91.102 675.726 92.831C675.389 95.824 677.614 97.819 675.389 100.368C673.728 102.275 671.77 103.944 670.178 105.89C670.129 105.89 670.089 105.88 670.06 105.89C666.273 106.274 662.556 107.174 659.014 108.567C651.351 108.972 643.401 117.251 639.93 123.455C639.881 123.534 639.861 123.613 639.831 123.682C637.587 122.911 635.401 122.338 633.305 120.936C631.832 119.958 630.042 122.23 631.397 123.405C633.76 125.45 636.301 126.794 639.277 127.446C637.646 135.438 636.074 143.429 634.66 151.461C634.412 152.874 636.469 153.496 636.845 152.063C638.321 146.473 639.987 140.934 641.839 135.457C644.864 140.851 647.999 146.195 651.47 151.303C652.37 152.627 654.456 151.461 653.645 150.028C651.668 146.561 650.006 142.936 648.79 139.122C648.256 137.453 646.931 134.677 648.582 133.225C649.749 132.227 653.23 131.763 654.664 131.249ZM646.644 131.368C644.924 132.681 644.943 134.42 645.369 136.238C644.469 134.707 643.559 133.156 642.689 131.605C642.59 131.422 642.444 131.269 642.267 131.159C642.09 131.05 641.888 130.989 641.68 130.982C641.997 129.54 642.313 128.088 642.62 126.655C642.681 126.331 642.654 125.997 642.541 125.687C642.699 125.569 642.837 125.421 642.966 125.233C644.026 123.72 645.172 122.269 646.397 120.886C648.314 118.832 650.461 117.006 652.795 115.443C654.832 114.258 657.027 113.349 658.975 112.094C662.302 110.661 665.814 109.7 669.407 109.239C669.605 109.279 669.812 109.259 670.02 109.16C670.04 109.16 670.06 109.15 670.079 109.15C670.633 109.091 671.039 108.804 671.296 108.429C674.331 106.562 677.763 103.608 679.602 100.921C680.215 100.032 680.452 99.261 680.492 98.551C680.848 98.738 681.214 98.896 681.609 99.015C683.231 99.499 685.06 99.331 686.89 99.173C684.398 100.032 682.143 101.257 681.065 103.5C680.98 103.57 680.907 103.654 680.848 103.747C678.405 107.728 677.555 113.013 676.042 117.429C675.953 117.705 675.983 118.021 676.092 118.298C675.36 118.11 674.539 118.545 674.153 119.197C673.956 119.217 673.748 119.276 673.55 119.385C668.646 122.004 663.628 124.403 658.51 126.576C656.315 127.505 654.13 128.414 651.915 129.283C650.303 129.905 648.019 130.31 646.644 131.368ZM626.729 22.08C620.638 27.829 613.014 33.292 604.174 31.03C594.641 28.6 590.933 18.276 596.154 10.086C601.108 2.31202 613.014 -0.117978 619.402 7.34002C623.248 11.835 621.33 17.18 617.365 20.825C614.2 23.739 609.602 25.171 605.667 22.86C600.643 19.916 601.632 11.341 607.318 9.72002C610.057 8.94002 613.35 10.264 613.884 13.238C614.101 14.453 613.864 15.984 612.954 16.913C612.47 17.407 611.926 17.703 611.244 17.792C610.275 18.276 609.741 17.812 609.632 16.419C608.198 14.957 608.564 14.265 610.72 14.334C611.639 14.522 612.213 13.317 611.372 12.794C606.537 9.78002 603.521 17.851 608.455 20.183C614.062 22.83 618.314 15.836 616.178 11.064C613.587 5.30502 605.637 5.74002 602.048 10.156C597.934 15.233 599.318 22.948 605.419 25.646C611.343 28.263 617.651 25.181 621.34 20.321C625.898 14.305 624.672 7.27102 618.531 2.92402C606.171 -5.81798 588.214 6.52002 591.734 21.151C593.534 28.658 600.149 33.212 607.654 33.637C615.763 34.092 623.357 29.468 627.985 23.077C628.558 22.297 627.371 21.478 626.729 22.08ZM419.382 229.799C417.474 227.319 414.389 225.946 411.827 224.217C408.736 222.135 405.716 219.951 402.77 217.668C402.76 217.539 402.75 217.411 402.75 217.292C402.613 214.929 402.491 212.565 402.384 210.2C404.027 211.51 405.716 212.762 407.447 213.953C409.682 215.485 412.688 218.241 415.506 218.073C416.149 218.033 416.534 217.401 416.228 216.818C415.051 214.586 411.857 213.45 409.8 212.067C407.17 210.308 404.658 208.392 402.226 206.367C402.216 206.189 402.206 206.011 402.206 205.833C402.137 203.749 402.364 201.348 402.137 199.116C402.305 199.303 402.483 199.511 402.71 199.738C405.014 202.148 409.128 206.811 412.658 206.89C413.37 206.91 413.677 206.149 413.41 205.576C412.292 203.156 408.97 201.674 407.022 199.886C405.44 198.444 403.709 195.52 401.554 194.927C399.606 194.384 398.122 196.429 396.857 197.555C394.533 199.639 391.507 201.783 390.053 204.579C389.717 205.221 390.37 205.774 390.983 205.507C393.129 204.579 394.79 202.751 396.55 201.249C397.262 200.647 398.004 199.847 398.795 199.234C398.656 201.437 398.963 203.788 399.022 205.833C399.032 205.962 399.032 206.08 399.032 206.209C395.749 209.508 392.496 212.778 389.648 216.473C389.332 216.887 389.866 217.549 390.34 217.372C393.771 216.087 396.59 213.094 399.19 210.279C399.299 212.808 399.418 215.346 399.586 217.875C399.596 217.974 399.606 218.073 399.606 218.172C396.095 222.825 392.021 226.875 388.283 231.33C387.848 231.844 388.392 232.684 389.035 232.298C393.208 229.799 396.787 226.203 399.932 222.41C400.12 224.711 400.318 227.013 400.545 229.305C400.891 232.822 400.832 236.773 402.532 239.964C402.849 240.547 403.778 240.409 403.937 239.776C404.807 236.388 403.937 232.733 403.63 229.305C403.404 226.732 403.203 224.157 403.027 221.58C404.973 223.087 406.968 224.531 409.009 225.907C411.818 227.794 415.051 230.51 418.492 230.965C419.066 231.034 419.857 230.421 419.382 229.799ZM290.755 121.686C288.847 119.207 285.762 117.833 283.201 116.105C280.11 114.022 277.089 111.838 274.143 109.555C274.132 109.43 274.125 109.305 274.123 109.18C273.986 106.816 273.864 104.452 273.757 102.087C275.4 103.397 277.089 104.649 278.82 105.841C281.055 107.372 284.061 110.128 286.879 109.96C287.522 109.921 287.907 109.288 287.601 108.706C286.424 106.473 283.23 105.337 281.173 103.954C278.543 102.195 276.032 100.279 273.599 98.254C273.589 98.076 273.579 97.898 273.579 97.72C273.51 95.636 273.737 93.235 273.51 91.003C273.678 91.191 273.856 91.398 274.084 91.625C276.387 94.035 280.501 98.698 284.031 98.777C284.743 98.797 285.05 98.037 284.783 97.463C283.665 95.043 280.343 93.561 278.395 91.773C276.813 90.331 275.082 87.407 272.927 86.814C270.979 86.271 269.495 88.316 268.23 89.442C265.906 91.526 262.88 93.67 261.427 96.466C261.09 97.108 261.743 97.661 262.356 97.394C264.502 96.466 266.163 94.638 267.923 93.137C268.635 92.534 269.377 91.734 270.168 91.121C270.029 93.324 270.336 95.676 270.395 97.721C270.405 97.849 270.405 97.967 270.405 98.096C267.122 101.395 263.869 104.665 261.021 108.36C260.705 108.775 261.239 109.437 261.713 109.259C265.145 107.974 267.963 104.981 270.563 102.166C270.672 104.695 270.791 107.234 270.959 109.763C270.969 109.861 270.979 109.96 270.979 110.059C267.468 114.712 263.394 118.762 259.657 123.217C259.221 123.731 259.765 124.571 260.408 124.185C264.581 121.686 268.16 118.09 271.305 114.297C271.493 116.599 271.691 118.9 271.918 121.192C272.264 124.709 272.205 128.661 273.906 131.851C274.222 132.434 275.151 132.296 275.31 131.664C276.18 128.275 275.31 124.62 275.003 121.192C274.777 118.619 274.576 116.044 274.4 113.467C276.346 114.975 278.341 116.418 280.382 117.794C283.191 119.681 286.424 122.397 289.865 122.852C290.439 122.921 291.24 122.309 290.755 121.686ZM438.664 121.351C436.231 119.483 433.542 118.071 431.179 116.056C429.211 114.376 427.431 112.509 425.789 110.514C425.718 108.502 425.593 106.492 425.414 104.487C427.896 107.016 430.763 109.131 433.72 111.126C435.282 112.183 436.647 109.713 435.183 108.627C431.633 106.019 428.173 103.49 425.384 100.042C424.87 99.41 423.851 99.548 423.317 100.042C420.648 102.492 417.019 104.774 415.08 107.846C414.705 108.439 415.328 109.289 416.01 109.051C418.69 108.143 421.073 106.019 423.288 103.994C423.136 105.929 423.073 107.871 423.1 109.812C422.989 109.905 422.889 110.011 422.803 110.128C421.073 112.667 419.204 115.107 417.088 117.34C415.328 119.187 413.103 120.689 411.699 122.832C411.382 123.306 411.896 123.909 412.42 123.771C415.14 123.02 417.355 120.787 419.362 118.891C420.752 117.569 422.053 116.156 423.258 114.663C423.357 116.628 423.485 118.584 423.604 120.521C423.634 121.044 423.683 121.568 423.713 122.101C423.606 122.192 423.513 122.299 423.436 122.417C421.102 125.994 418.166 129.293 415.189 132.355C414.675 132.879 415.338 133.788 415.98 133.383C419.174 131.427 421.696 129.105 424.01 126.359C424.415 131.387 424.939 136.396 425.592 141.404C425.869 143.479 428.756 143.123 428.449 141.019C427.782 136.367 427.229 131.7 426.788 127.021C429.567 129.382 432.593 131.506 435.856 133.057C437.556 133.867 439.01 131.506 437.349 130.498C433.483 128.127 429.804 125.737 426.412 122.724C426.343 121.795 426.254 120.866 426.195 119.948C426.099 118.451 426.023 116.952 425.967 115.453C429.25 118.999 433.235 122.328 437.566 123.879C439.208 124.492 439.801 122.23 438.664 121.351ZM874.955 95.942C872.523 94.075 869.833 92.662 867.47 90.647C865.502 88.967 863.722 87.101 862.08 85.105C862.001 83.1 861.893 81.085 861.705 79.079C864.187 81.609 867.054 83.722 870.011 85.718C871.573 86.775 872.938 84.305 871.474 83.218C867.924 80.61 864.463 78.082 861.675 74.634C861.161 74.002 860.142 74.14 859.608 74.634C856.939 77.084 853.31 79.366 851.371 82.438C850.996 83.031 851.619 83.88 852.301 83.643C854.981 82.734 857.364 80.611 859.579 78.585C859.427 80.5208 859.364 82.4625 859.391 84.404C859.28 84.497 859.18 84.6031 859.094 84.72C857.364 87.259 855.495 89.699 853.379 91.932C851.619 93.779 849.394 95.28 847.99 97.424C847.673 97.898 848.187 98.501 848.711 98.363C851.431 97.612 853.646 95.379 855.653 93.483C857.043 92.1605 858.345 90.7478 859.549 89.254C859.648 91.22 859.776 93.176 859.895 95.112C859.925 95.636 859.974 96.16 860.004 96.693C859.897 96.7842 859.803 96.8907 859.727 97.009C857.393 100.585 854.457 103.885 851.48 106.947C850.966 107.471 851.629 108.38 852.271 107.975C855.465 106.019 857.987 103.697 860.301 100.951C860.706 105.979 861.23 110.988 861.883 115.996C862.16 118.071 865.047 117.715 864.74 115.611C864.073 110.959 863.52 106.292 863.079 101.613C865.858 103.974 868.884 106.098 872.147 107.649C873.848 108.459 875.301 106.098 873.64 105.09C869.774 102.719 866.095 100.328 862.703 97.315C862.634 96.387 862.545 95.458 862.486 94.54C862.39 93.0428 862.314 91.5443 862.258 90.045C865.541 93.591 869.526 96.92 873.857 98.471C875.509 99.084 876.102 96.821 874.955 95.942ZM847.287 235.746C844.854 233.879 842.165 232.466 839.802 230.451C837.834 228.772 836.054 226.905 834.412 224.909C834.341 222.897 834.216 220.888 834.037 218.883C836.519 221.412 839.386 223.526 842.343 225.521C843.905 226.579 845.27 224.109 843.806 223.022C840.256 220.414 836.796 217.885 834.007 214.438C833.493 213.805 832.474 213.944 831.94 214.438C829.271 216.887 825.642 219.169 823.703 222.242C823.328 222.834 823.951 223.684 824.633 223.447C827.313 222.538 829.696 220.414 831.911 218.389C831.759 220.325 831.697 222.266 831.723 224.208C831.611 224.301 831.511 224.407 831.426 224.524C829.696 227.063 827.827 229.503 825.711 231.735C823.951 233.583 821.726 235.084 820.322 237.228C820.005 237.702 820.519 238.305 821.044 238.166C823.763 237.416 825.978 235.183 827.985 233.286C829.375 231.964 830.677 230.551 831.881 229.058C831.98 231.024 832.108 232.98 832.227 234.916C832.257 235.44 832.306 235.963 832.336 236.497C832.229 236.588 832.135 236.695 832.059 236.813C829.725 240.389 826.789 243.689 823.812 246.751C823.298 247.274 823.961 248.183 824.603 247.778C827.797 245.822 830.319 243.501 832.633 240.755C833.038 245.783 833.562 250.791 834.215 255.8C834.492 257.874 837.379 257.519 837.072 255.415C836.405 250.763 835.852 246.095 835.411 241.416C838.19 243.777 841.216 245.901 844.479 247.452C846.18 248.262 847.633 245.901 845.972 244.894C842.106 242.523 838.427 240.132 835.035 237.119C834.966 236.191 834.877 235.262 834.818 234.343C834.722 232.846 834.646 231.347 834.59 229.848C837.873 233.395 841.858 236.724 846.189 238.275C847.841 238.887 848.434 236.625 847.287 235.746ZM140.335 236.27C137.902 234.403 135.213 232.99 132.849 230.975C130.882 229.296 129.102 227.428 127.46 225.433C127.389 223.421 127.264 221.412 127.085 219.407C129.567 221.936 132.434 224.05 135.391 226.045C136.953 227.102 138.318 224.633 136.854 223.546C133.304 220.938 129.843 218.409 127.055 214.961C126.541 214.329 125.522 214.468 124.988 214.961C122.318 217.411 118.689 219.693 116.751 222.766C116.376 223.358 116.999 224.208 117.681 223.971C120.361 223.062 122.744 220.938 124.959 218.913C124.807 220.849 124.744 222.79 124.771 224.732C124.659 224.825 124.559 224.931 124.474 225.048C122.744 227.587 120.875 230.027 118.759 232.259C116.999 234.106 114.774 235.608 113.37 237.752C113.053 238.226 113.567 238.829 114.091 238.69C116.811 237.939 119.026 235.707 121.033 233.81C122.423 232.488 123.725 231.075 124.929 229.582C125.028 231.548 125.156 233.504 125.275 235.44C125.305 235.964 125.354 236.487 125.384 237.021C125.277 237.112 125.183 237.219 125.107 237.337C122.773 240.913 119.836 244.212 116.86 247.275C116.346 247.798 117.008 248.707 117.651 248.302C120.845 246.346 123.367 244.025 125.68 241.278C126.086 246.307 126.61 251.315 127.263 256.324C127.539 258.398 130.427 258.043 130.12 255.938C129.453 251.286 128.899 246.619 128.459 241.94C131.238 244.301 134.263 246.425 137.527 247.976C139.227 248.786 140.681 246.425 139.02 245.418C135.153 243.047 131.475 240.656 128.083 237.643C128.014 236.714 127.925 235.786 127.866 234.867C127.77 233.37 127.694 231.871 127.638 230.372C130.921 233.919 134.906 237.248 139.237 238.799C140.889 239.411 141.482 237.149 140.335 236.27ZM704.54 287.817C700.14 284.251 694.523 281.702 689.441 279.035C689.421 278.591 689.391 278.136 689.372 277.692C689.263 275.755 689.233 273.75 689.204 271.725C692.724 274.767 696.6 277.879 700.674 279.529C701.88 280.013 702.81 278.215 701.92 277.395C699.982 275.617 697.599 274.333 695.473 272.792C693.295 271.198 691.175 269.527 689.115 267.783C689.045 265.867 688.917 263.97 688.65 262.113C690.588 263.543 692.519 264.982 694.444 266.43C695.562 267.279 696.926 268.929 698.291 267.714C698.904 267.161 698.874 266.074 698.291 265.521C695.097 262.449 690.993 259.999 687.394 257.411C686.85 257.015 686.01 257.213 685.545 257.648C683.824 259.317 682.094 260.987 680.373 262.666C679.009 263.99 677.486 265.007 677.16 266.924C677.1 267.269 677.318 267.744 677.743 267.704C679.642 267.497 680.571 266.331 681.965 265.047L686.01 261.332C685.822 263.239 685.802 265.175 685.851 267.141C681.946 270.52 677.209 273.868 674.381 278.205C673.985 278.808 674.737 279.381 675.291 279.114C679.226 277.257 682.697 273.938 686.01 270.895C686.148 273.394 686.326 275.864 686.356 278.255C686.356 278.353 686.366 278.442 686.366 278.531L686.356 278.541C682.598 282.325 678.277 285.683 674.895 289.813C674.46 290.346 674.994 291.087 675.637 290.771C679.721 288.766 683.191 285.614 686.474 282.433C686.544 284.419 686.643 286.414 686.761 288.4C686.919 291.048 686.593 294.189 688.304 296.352C688.66 296.797 689.48 296.649 689.728 296.165C690.964 293.725 690.054 290.485 689.886 287.837C689.778 286.066 689.686 284.294 689.609 282.522C694.049 285.199 698.558 288.153 703.294 289.951C704.461 290.396 705.519 288.608 704.54 287.817ZM516.129 151.421C512.658 148.606 508.218 146.591 504.203 144.486L504.144 143.429C504.055 141.898 504.035 140.318 504.015 138.717C506.804 141.128 509.859 143.578 513.073 144.882C514.022 145.267 514.764 143.844 514.062 143.192C512.529 141.79 510.641 140.772 508.969 139.557C507.247 138.298 505.572 136.977 503.946 135.596C503.887 134.084 503.788 132.583 503.58 131.111C505.113 132.247 506.636 133.373 508.159 134.519C509.049 135.191 510.116 136.495 511.204 135.536C511.689 135.102 511.659 134.242 511.204 133.808C508.683 131.377 505.439 129.441 502.591 127.406C502.156 127.1 501.494 127.248 501.138 127.594C499.783 128.918 498.419 130.231 497.054 131.555C495.976 132.602 494.77 133.403 494.523 134.924C494.473 135.2 494.641 135.576 494.987 135.536C496.49 135.368 497.222 134.46 498.32 133.442C499.388 132.464 500.446 131.486 501.514 130.508C501.365 132.01 501.346 133.551 501.385 135.102C498.3 137.769 494.562 140.416 492.327 143.844C492.011 144.319 492.604 144.773 493.049 144.565C496.164 143.103 498.903 140.476 501.514 138.075C501.622 140.051 501.761 142.007 501.791 143.894V144.111H501.781C498.804 147.104 495.393 149.752 492.733 153.022C492.387 153.446 492.812 154.029 493.316 153.782C496.54 152.202 499.279 149.712 501.88 147.193C501.939 148.764 502.008 150.335 502.107 151.905C502.226 154 501.969 156.479 503.323 158.188C503.6 158.544 504.253 158.425 504.45 158.04C505.429 156.114 504.708 153.555 504.579 151.461C504.492 150.062 504.419 148.662 504.361 147.262C507.872 149.376 511.432 151.708 515.169 153.13C516.069 153.456 516.9 152.044 516.129 151.421ZM302.7 254.407C299.229 251.592 294.789 249.576 290.775 247.472L290.715 246.415C290.626 244.884 290.606 243.303 290.587 241.703C293.375 244.114 296.431 246.563 299.644 247.867C300.594 248.253 301.335 246.83 300.633 246.178C299.101 244.775 297.212 243.758 295.541 242.543C293.819 241.284 292.143 239.962 290.517 238.581C290.458 237.07 290.359 235.568 290.152 234.096C291.684 235.233 293.207 236.359 294.73 237.505C295.62 238.176 296.688 239.48 297.776 238.522C298.26 238.087 298.23 237.228 297.776 236.793C295.254 234.363 292.011 232.427 289.163 230.392C288.728 230.086 288.065 230.234 287.709 230.58C286.355 231.903 284.99 233.217 283.625 234.541C282.548 235.588 281.341 236.388 281.094 237.91C281.045 238.186 281.213 238.562 281.559 238.522C283.062 238.354 283.793 237.445 284.891 236.428C285.959 235.45 287.017 234.472 288.085 233.494C287.937 234.995 287.917 236.537 287.956 238.087C284.871 240.755 281.134 243.402 278.899 246.83C278.582 247.304 279.176 247.759 279.621 247.551C282.735 246.089 285.474 243.462 288.085 241.061C288.194 243.037 288.332 244.993 288.362 246.88V247.097H288.352C285.376 250.09 281.964 252.738 279.304 256.008C278.958 256.432 279.383 257.015 279.888 256.768C283.111 255.188 285.85 252.698 288.451 250.179C288.51 251.75 288.579 253.32 288.678 254.891C288.797 256.986 288.54 259.465 289.895 261.174C290.171 261.53 290.824 261.411 291.022 261.026C292.001 259.1 291.279 256.541 291.15 254.447C291.063 253.048 290.99 251.648 290.933 250.248C294.443 252.362 298.003 254.694 301.741 256.116C302.65 256.442 303.481 255.03 302.7 254.407ZM962.693 265.807C959.222 262.992 954.782 260.976 950.768 258.872L950.708 257.815C950.619 256.284 950.6 254.703 950.58 253.103C953.368 255.513 956.424 257.963 959.638 259.267C960.587 259.653 961.328 258.23 960.626 257.578C959.094 256.175 957.205 255.158 955.534 253.943C953.812 252.684 952.136 251.363 950.511 249.981C950.451 248.47 950.352 246.968 950.145 245.496C951.677 246.632 953.2 247.759 954.723 248.905C955.613 249.576 956.681 250.88 957.769 249.922C958.253 249.487 958.224 248.628 957.769 248.193C955.247 245.763 952.004 243.827 949.156 241.792C948.721 241.486 948.058 241.634 947.702 241.98C946.348 243.303 944.983 244.617 943.619 245.941C942.541 246.988 941.334 247.788 941.087 249.31C941.038 249.586 941.206 249.962 941.552 249.922C943.055 249.754 943.787 248.845 944.884 247.828C945.952 246.85 947.01 245.872 948.078 244.894C947.93 246.395 947.91 247.936 947.95 249.487C944.864 252.155 941.127 254.802 938.892 258.23C938.575 258.704 939.169 259.159 939.614 258.951C942.729 257.489 945.468 254.861 948.078 252.461C948.187 254.437 948.325 256.393 948.355 258.279V258.497H948.345C945.369 261.49 941.957 264.138 939.297 267.407C938.951 267.832 939.376 268.415 939.881 268.168C943.104 266.587 945.843 264.098 948.444 261.579C948.503 263.15 948.573 264.72 948.671 266.291C948.79 268.385 948.533 270.865 949.888 272.574C950.165 272.93 950.817 272.811 951.015 272.426C951.994 270.499 951.272 267.941 951.144 265.847C951.056 264.448 950.984 263.048 950.926 261.648C954.436 263.762 957.996 266.094 961.734 267.516C962.634 267.852 963.464 266.439 962.693 265.807ZM314.813 393.045C311.342 390.23 306.903 388.215 302.888 386.11L302.829 385.053C302.74 383.522 302.72 381.942 302.7 380.341C305.488 382.752 308.544 385.202 311.758 386.506C312.707 386.891 313.449 385.468 312.746 384.816C311.214 383.414 309.325 382.396 307.654 381.181C305.932 379.922 304.256 378.601 302.631 377.22C302.571 375.708 302.473 374.207 302.265 372.735C303.798 373.871 305.32 374.997 306.843 376.143C307.733 376.815 308.801 378.119 309.889 377.16C310.373 376.726 310.344 375.866 309.889 375.432C307.367 373.001 304.124 371.065 301.276 369.03C300.841 368.724 300.178 368.872 299.822 369.218C298.468 370.542 297.103 371.855 295.739 373.179C294.661 374.226 293.454 375.027 293.207 376.548C293.158 376.824 293.326 377.2 293.672 377.16C295.175 376.992 295.907 376.084 297.004 375.066C298.072 374.088 299.13 373.11 300.198 372.132C300.05 373.634 300.03 375.175 300.07 376.726C296.985 379.393 293.247 382.04 291.012 385.468C290.696 385.943 291.289 386.397 291.734 386.189C294.849 384.727 297.588 382.1 300.198 379.699C300.307 381.675 300.445 383.631 300.475 385.518V385.735H300.465C297.489 388.728 294.077 391.376 291.417 394.646C291.071 395.07 291.497 395.653 292.001 395.406C295.224 393.826 297.963 391.336 300.564 388.817C300.623 390.388 300.693 391.959 300.792 393.529C300.91 395.624 300.653 398.103 302.008 399.812C302.285 400.168 302.937 400.049 303.135 399.664C304.114 397.738 303.392 395.179 303.264 393.085C303.176 391.686 303.104 390.286 303.046 388.886C306.556 391 310.116 393.332 313.854 394.754C314.754 395.08 315.584 393.678 314.813 393.045ZM23.9 340.48C20.43 337.665 15.99 335.65 11.975 333.546L11.915 332.489C11.826 330.957 11.807 329.377 11.787 327.776C14.575 330.187 17.631 332.637 20.845 333.941C21.794 334.326 22.535 332.903 21.833 332.251C20.301 330.849 18.412 329.831 16.741 328.616C15.0191 327.357 13.3436 326.036 11.718 324.655C11.658 323.143 11.559 321.642 11.352 320.17C12.884 321.306 14.407 322.432 15.93 323.578C16.82 324.25 17.888 325.554 18.976 324.595C19.46 324.161 19.43 323.301 18.976 322.867C16.454 320.436 13.211 318.5 10.363 316.465C9.92802 316.159 9.26502 316.307 8.90902 316.653C7.55502 317.977 6.19002 319.29 4.82602 320.614C3.74802 321.661 2.54102 322.462 2.29402 323.983C2.24402 324.259 2.41302 324.635 2.75902 324.595C4.26202 324.427 4.99402 323.519 6.09102 322.501C7.15902 321.523 8.21702 320.545 9.28502 319.567C9.13702 321.069 9.11702 322.61 9.15702 324.161C6.07102 326.828 2.33402 329.475 0.0990161 332.903C-0.216984 333.378 0.376016 333.832 0.821016 333.625C3.93602 332.162 6.67502 329.535 9.28502 327.134C9.39402 329.11 9.53202 331.066 9.56202 332.953V333.17H9.55202C6.57602 336.163 3.16402 338.811 0.504016 342.081C0.158016 342.506 0.584016 343.088 1.08802 342.841C4.31102 341.261 7.05002 338.771 9.65102 336.252C9.7077 337.824 9.78337 339.394 9.87802 340.964C9.99802 343.059 9.74002 345.538 11.095 347.247C11.372 347.603 12.025 347.484 12.222 347.099C13.201 345.173 12.479 342.614 12.351 340.52C12.2635 339.121 12.1909 337.721 12.133 336.321C15.643 338.436 19.203 340.767 22.941 342.189C23.851 342.515 24.671 341.103 23.9 340.48ZM641.947 214.487C640.672 214.201 639.604 214.23 638.328 214.556C636.677 214.991 634.284 216.522 632.643 215.238C631.594 214.418 629.567 215.534 630.576 216.828C631.683 218.261 632.563 220.819 632.287 222.884C629.874 223.279 627.609 224.05 625.286 224.889C622.379 225.937 619.343 226.51 616.436 227.517C616.396 227.527 616.376 227.547 616.337 227.557C614.972 227.28 613.677 226.727 612.649 225.749C610.523 223.734 610.513 218.202 614.517 220.276C615.368 220.721 616.317 219.822 615.842 218.952C614.478 216.502 611.047 217.036 609.504 219.061C607.477 221.728 608.575 225.462 610.75 227.646C612.117 229.033 613.859 229.991 615.763 230.402C616.188 230.935 616.673 231.39 617.276 231.805C619.046 233.01 618.957 234.729 619.214 236.764C619.402 238.255 621.607 238.364 621.617 236.764C621.627 235.638 621.627 234.501 621.627 233.375C621.647 233.405 621.667 233.435 621.686 233.454C622.033 233.928 622.21 234.531 622.566 235.015C623.061 235.687 623.565 236.122 624.307 236.487C625.572 237.119 626.779 235.608 625.82 234.531C624.623 233.197 623.318 231.459 625.286 230.313C626.008 229.888 626.957 229.671 627.837 229.424C628.786 229.236 629.745 229.078 630.744 229.009C632.168 228.91 632.178 228.88 632.573 230.234C632.87 231.251 633.147 232.269 633.434 233.296C633.879 234.857 636.163 234.195 635.846 232.634C635.584 231.317 635.461 229.976 635.481 228.633C636.568 229.878 637.725 231.054 639.03 232.101C640.266 233.089 641.938 231.528 640.8 230.333C639.08 228.535 637.794 226.46 637.082 224.07C636.934 223.566 636.202 221.323 636.46 220.997C636.707 220.681 637.913 220.859 638.941 221.086C639.436 221.205 639.93 221.323 640.415 221.442C642.017 221.817 642.699 219.367 641.097 218.982C640.385 218.814 639.673 218.636 638.961 218.468C640.075 217.973 641.171 217.436 642.244 216.858C643.223 216.344 643.045 214.734 641.947 214.487Z" fill="#3D4833"/>
</svg>
