<svg width="725" height="683" viewBox="0 0 725 683" fill="none" xmlns="http://www.w3.org/2000/svg">
<path d="M518.53 243.617C511.446 241.556 504.372 239.486 497.289 237.426C491.439 235.724 482.763 234.131 482.355 226.487C482.337 226.172 482.257 225.863 482.118 225.58C481.98 225.296 481.786 225.043 481.549 224.835C481.231 223.541 480.923 222.237 480.743 220.904C480.721 220.468 480.584 220.045 480.346 219.679C480.216 218.684 480.107 217.689 480.007 216.693C479.858 215.23 479.251 212.573 479.908 211.189C480.684 209.557 482.902 209.766 484.345 209.517C486.235 209.199 489.658 208.91 490.762 206.999C491.727 205.327 490.692 203.376 489.349 202.331C488.941 202.013 488.444 201.754 487.927 201.654C485.658 200.609 483.251 199.664 480.793 199.385C481.29 198.306 481.758 197.214 482.196 196.11C482.584 196.27 483.022 196.319 483.47 196.24C484.713 196.031 486.305 195.961 487.399 195.314C488.673 194.558 488.305 192.766 487.011 192.308C486.006 191.96 484.703 192.129 483.539 192.348C483.83 191.41 484.095 190.464 484.335 189.511C484.484 189.561 484.653 189.601 484.813 189.601C486.265 189.671 487.996 188.785 489.15 187.979C489.787 187.531 490.523 187.033 490.971 186.396C491.369 185.839 491.319 185.212 491.468 184.734C491.648 184.167 491.071 183.639 490.523 183.788C490.096 183.908 489.578 183.798 489.111 183.967C488.444 184.216 487.847 184.644 487.19 184.923C486.524 185.202 485.798 185.361 485.111 185.58C485.151 185.301 485.201 185.022 485.24 184.744C485.39 183.639 485.549 182.524 485.698 181.4C485.897 181.33 486.096 181.21 486.285 181.041C488.394 179.14 492.513 174.84 490.891 171.685C490.702 171.317 490.255 171.277 489.916 171.426C488.543 172.034 487.937 173.576 487.161 174.761C486.811 175.292 486.432 175.804 486.026 176.294C486.016 175.856 485.997 175.418 485.967 174.98C485.778 172.691 485.648 169.615 483.788 168.092C483.43 167.794 482.932 167.813 482.664 168.241C481.4 170.262 482.395 172.73 482.524 174.99C482.713 178.175 482.156 181.469 481.689 184.614C481.271 187.461 480.724 190.318 479.769 193.035C478.963 195.314 477.371 197.354 476.615 199.634C476.403 199.684 476.194 199.744 475.988 199.813C475.529 199.965 475.083 200.155 474.655 200.38C474.464 200.065 474.206 199.797 473.899 199.594C469.272 196.498 465.949 191.97 463.641 186.943C462.328 184.097 461.333 181.091 460.438 178.085C459.771 175.836 460 173.158 458.776 171.188C458.508 170.76 457.911 170.551 457.463 170.839C455.324 172.233 455.752 174.432 456.279 176.731C456.846 179.22 457.652 181.678 458.587 184.077C457.025 183.52 455.503 182.873 454.09 181.987C452.628 181.071 451.255 178.911 449.394 179.08C448.907 179.13 448.638 179.429 448.569 179.907C448.3 182.017 450.877 183.818 452.399 184.893C454.598 186.456 457.194 187.411 459.701 188.367C459.98 188.476 460.249 188.506 460.487 188.476C460.985 189.516 461.52 190.539 462.089 191.542C460.179 191.562 458.229 191.97 456.329 192.039C454.399 192.119 452.469 191.85 450.718 192.776C450.24 193.025 450.19 193.702 450.548 194.07C452.061 195.623 454.259 195.642 456.319 195.642C458.756 195.642 461.572 195.633 463.87 194.787C463.93 194.767 463.989 194.737 464.049 194.707C464.618 195.539 465.219 196.349 465.85 197.135C464.686 197.723 463.522 198.31 462.398 198.967C461.582 199.445 460.388 200.131 460.557 201.236C460.557 201.256 460.567 201.276 460.567 201.286C460.627 201.694 461.035 202.003 461.393 202.122C462.587 202.5 463.552 202.102 464.656 201.634C465.79 201.157 466.895 200.609 468.009 200.092C468.118 200.039 468.221 199.975 468.317 199.902C469.302 200.898 470.357 201.833 471.481 202.709C471.571 202.779 471.67 202.849 471.77 202.908C470.665 204.441 469.959 206.332 469.451 208.283C468.158 213.24 467.651 218.744 464.159 222.775C460.826 226.627 455.811 228.498 450.996 229.633C441.137 231.962 431.078 232.877 422.443 238.789C421.249 239.606 420.214 240.561 419.388 241.636C417.508 243.149 415.906 244.99 414.553 247.14C413.916 248.145 414.384 249.37 415.289 249.927C406.788 258.957 399.789 269.289 394.556 280.533C393.441 282.932 396.725 284.972 398.147 282.643C403.142 274.451 409.478 267.156 416.891 261.065C412.325 268.5 408.275 276.213 405.848 284.683C405.201 286.953 408.484 288.376 409.658 286.296C414.543 277.647 421.09 269.754 427.795 262.458C431.347 258.596 435.297 255.431 440.261 253.61C444.887 251.918 449.902 250.912 454.747 250.126C475.53 246.752 494.374 256.257 513.903 261.682C516.918 262.518 517.863 258.258 515.157 257.123C506.48 253.485 498.095 249.186 490.076 244.264C499.219 244.821 508.292 246.115 517.216 248.235C520.251 248.962 521.494 244.483 518.53 243.617ZM452.309 245.846C447.285 246.822 442.132 247.966 437.416 249.977C432.62 252.017 428.73 255.252 425.198 259.044C422.812 261.601 420.496 264.223 418.254 266.907C420.781 262.528 423.557 258.278 426.343 254.058C427.487 252.316 425.228 250.126 423.507 251.211C419.773 253.567 416.215 256.192 412.862 259.064C415.498 255.791 418.315 252.668 421.298 249.708C422.472 248.544 421.756 246.583 420.264 246.244C421.776 244.453 423.557 242.93 425.586 241.636C426.104 241.308 426.333 240.87 426.363 240.432C428.691 239.098 431.357 238.113 433.486 237.316C441.316 234.41 449.882 234.42 457.632 231.335C463.731 228.906 468.347 224.765 470.596 218.485C471.909 214.802 472.158 210.811 473.491 207.148C475.49 201.664 480.594 202.729 484.982 204.152C485.012 204.371 485.081 204.59 485.191 204.809C481.44 205.914 476.814 205.138 475.59 209.995C474.695 213.558 475.212 217.858 476.077 221.929C476.167 222.576 476.276 223.213 476.396 223.85C476.077 226.258 477.082 228.946 477.898 231.384C477.926 231.375 477.953 231.361 477.978 231.344C479.241 234.957 482.594 237.585 486.315 239.317C484.713 239.247 483.121 239.207 481.51 239.188C479.032 239.158 478.435 242.363 480.316 243.627C483.01 245.453 485.754 247.205 488.543 248.882C476.814 245.528 464.955 243.398 452.309 245.846ZM250.157 430.706C249.699 427.8 246.028 425.928 243.819 424.694C240.874 423.052 237.711 422.027 234.457 421.39C230.925 420.703 227.344 420.375 223.812 419.668C220.171 418.941 216.768 417.598 213.206 416.592C213.116 416.565 213.022 416.552 212.928 416.553L212.57 415.07C212.002 412.77 211.575 410.103 210.56 407.873C210.57 407.863 210.58 407.863 210.59 407.854C210.57 407.774 210.56 407.694 210.54 407.615C210.47 407.306 210.431 406.998 210.48 406.679C210.57 406.082 210.998 405.624 211.366 405.206C211.386 405.186 211.396 405.166 211.415 405.146C211.465 404.967 211.525 404.798 211.595 404.629C211.983 403.663 212.55 402.797 212.639 401.712C212.712 400.808 212.645 399.898 212.44 399.015C211.764 396.019 209.645 392.944 206.71 392.327C204.123 391.779 201.765 393.63 201.049 396.248C200.113 399.632 201.138 405.176 204.302 406.928C204.979 407.226 205.665 407.455 206.401 407.485C207.038 407.505 207.287 408.162 207.147 408.67C207.167 408.719 207.187 408.759 207.197 408.809H207.247C207.257 408.899 207.277 408.988 207.287 409.078C207.396 409.416 207.476 409.765 207.486 410.143C207.486 410.183 207.476 410.202 207.476 410.232C207.695 411.377 208.003 412.522 208.242 413.636C208.61 415.378 208.978 417.12 209.316 418.872C207.794 418.573 206.202 418.474 204.72 418.255C202.451 417.916 200.183 417.558 197.915 417.239C193.348 416.592 188.254 416.383 184.076 414.084C179.907 411.785 178.276 407.386 177.231 402.748C176.316 398.687 175.42 394.895 173.58 391.222C174.773 390.246 175.957 389.271 177.151 388.306C182.733 383.787 188.314 379.268 193.816 374.64C196.74 372.184 199.649 369.709 202.541 367.215C204.411 365.592 206.451 364.06 208.142 362.198C207.834 363.632 207.665 365.065 207.923 366.389C208.053 367.036 208.789 367.125 209.187 366.747C211.276 364.806 211.585 360.845 212.062 358.088C212.261 356.943 211.425 355.898 210.311 356.197C205.914 357.381 201.277 358.814 197.567 361.721C196.98 362.178 197.328 363.104 198.054 362.975C200.173 362.577 202.252 361.95 204.322 361.283C203.417 362.069 202.531 362.905 201.626 363.701C198.756 366.217 195.867 368.712 192.96 371.186C186.951 376.291 180.912 381.361 174.843 386.395C163.312 395.969 151.294 405.116 140.479 415.647C139.982 416.125 140.629 417.03 141.196 416.642C152 409.257 162.118 400.657 172.306 392.277C174.644 400.886 173.51 411.476 181.718 416.702C185.648 419.2 190.304 419.678 194.731 420.225C197.576 420.584 200.432 420.912 203.287 421.231C205.376 421.469 207.714 422.027 209.913 421.997L210.033 422.684C211.008 428.576 211.545 434.568 211.316 440.56C211.087 446.512 210.092 452.384 208.759 458.157C207.724 462.616 205.864 467.284 205.187 471.932C203.924 475.784 203.337 479.556 205.585 483.706C205.953 484.383 207.038 484.125 206.998 483.288C206.829 479.735 206.57 476.709 207.734 473.375C208.481 471.812 209.097 470.12 209.605 468.379C210.224 466.696 210.808 465 211.356 463.293C212.396 459.977 213.312 456.624 214.102 453.24C214.291 452.454 214.529 451.637 214.748 450.791C215.465 452.454 216.45 454.016 217.315 455.569C218.887 458.425 220.449 461.272 222.051 464.109C223.493 466.677 224.996 469.225 226.349 471.842C227.423 473.913 227.831 476.69 229.652 478.083C230.09 479.367 230.836 480.521 231.91 481.079C232.467 481.368 233.134 480.89 232.975 480.193C232.716 479.138 232.199 478.421 231.711 477.486C231.512 477.098 231.313 476.699 231.114 476.311C231.114 474.55 230.03 472.758 229.274 471.235C229.045 470.767 228.796 470.31 228.558 469.852C227.622 465.084 224.926 461.003 222.628 456.823C221.066 453.986 219.683 451.07 218.628 447.975C217.723 445.327 217.176 442.58 216.091 440.022C215.972 438.738 215.813 437.464 215.713 436.23C215.425 432.647 215.206 429.044 214.728 425.471C214.473 423.627 214.148 421.794 213.753 419.976C219.305 422.763 225.642 423.361 231.612 424.376C235.104 424.973 238.596 425.769 241.8 427.441C244.267 428.715 246.605 431.701 249.351 431.87C249.928 431.94 250.246 431.273 250.157 430.706ZM137.763 541.126C136.569 537.374 131.525 534.467 128.451 532.168C126.59 530.775 124.67 529.471 122.72 528.207C121.616 527.5 120.482 526.604 119.258 526.127C118.283 525.748 117.258 525.908 116.233 525.549C115.985 525.46 115.766 525.53 115.587 525.669C115.547 524.813 115.507 523.957 115.497 523.091C115.477 521.817 115.487 520.543 115.537 519.269C121.477 518.134 122.531 508.858 116.781 506.479C110.791 504.001 106.981 512.859 110.095 517.099C110.503 517.646 111.013 518.109 111.597 518.463C111.597 518.463 111.607 518.463 111.607 518.473C111.458 521.071 111.518 523.668 111.657 526.266C109.737 526.654 108.045 527.809 106.245 528.625C103.509 529.879 100.693 530.904 97.7579 531.621C92.714 532.845 87.6199 532.268 82.6059 533.024C86.1479 529.302 89.5999 525.49 93.0519 521.727C97.3199 517.079 101.529 512.391 105.638 507.614C107.696 505.225 109.739 502.823 111.766 500.408C112.851 499.114 114.065 497.88 114.99 496.486C115.398 498.517 115.965 500.497 117.159 501.921C117.577 502.428 118.561 502.279 118.85 501.712C120.521 498.338 118.581 493.58 117.527 490.216C117.139 489.001 115.885 488.613 114.771 489.111C110.563 491.022 106.155 492.634 102.613 495.64C101.887 496.257 102.703 497.143 103.449 497.044C106.225 496.665 108.841 495.71 111.418 494.615C110.184 495.909 109.13 497.432 108.016 498.746C106.138 500.965 104.244 503.171 102.335 505.364C98.0469 510.311 93.7289 515.228 89.3219 520.085C80.9639 529.312 71.9109 538.011 64.2399 547.775C63.6039 548.581 64.8869 549.298 65.563 548.78C70.9559 544.63 75.91 539.932 80.6659 535.035C80.7059 535.065 80.7259 535.095 80.7659 535.114C86.0679 538.12 93.1619 536.916 98.8429 535.453C102.723 534.448 108.752 532.646 111.846 529.332L111.995 531.551C112.284 536.02 112.363 540.37 111.846 544.62C111.773 544.689 111.712 544.769 111.667 544.859C111.12 545.814 110.931 546.551 111.279 547.645C111.299 547.695 111.319 547.755 111.339 547.805C110.747 550.869 109.76 553.843 108.404 556.653C106.653 560.266 104.444 563.65 102.096 566.905C99.9469 569.881 97.4989 572.777 96.2559 576.251C95.9769 577.017 96.9819 577.734 97.6589 577.306C102.116 574.469 105.29 569.532 108.095 565.213C110.821 561.013 113.159 556.504 114.622 551.726C114.851 551.846 115.089 551.945 115.328 552.045C117.218 555.24 119.487 558.236 121.516 561.331C123.078 563.71 124.66 566.178 125.566 568.885C126.451 571.543 126.162 574.051 126.441 576.768C126.531 577.664 127.754 578.47 128.481 577.604C131.973 573.424 129.585 567.542 127.247 563.312C124.232 557.857 120.203 551.836 115.656 547.377C116.472 542.629 116.383 537.792 116.084 532.974C115.955 530.994 115.806 529.013 115.676 527.032C116.343 527.709 116.711 528.565 117.437 529.182C118.114 529.75 118.94 530.188 119.676 530.675C121.845 532.123 123.971 533.633 126.053 535.204C129.117 537.533 132.371 541.763 136.141 542.699C137.086 542.957 138.071 542.102 137.763 541.126ZM411.409 374.52C409.708 374.938 407.986 375.296 406.305 375.764C405.569 375.963 404.872 376.202 404.166 376.481C403.271 376.829 402.853 377.287 401.987 377.715C401.36 378.034 401.679 378.999 402.335 379.009C403.39 379.009 404.176 379.238 405.26 379.108L405.479 379.079C399.51 381.736 393.68 384.742 387.76 387.519C387.75 387.489 387.74 387.469 387.73 387.439C385.164 381.219 376.14 371.594 368.529 375.326C368.061 375.555 368.041 376.371 368.529 376.6L368.589 376.63C370.24 382.293 372.409 387.788 374.488 393.322C372.708 394.058 370.937 394.795 369.146 395.511C364.709 397.273 359.953 398.617 355.685 400.776C355.267 397.512 354.66 394.207 353.456 391.281C355.655 389.44 355.874 385.857 355.496 383.219C355.108 380.482 353.416 377.914 350.581 377.287C347.964 376.71 345.597 378.322 344.771 380.791C343.875 383.458 344.89 386.006 346.393 388.196C347.298 390.565 348.75 392.476 350.71 392.446C351.029 394.944 351.665 397.412 352.044 399.891C352.063 400.02 352.073 400.149 352.093 400.279C350.621 401.294 349.646 403.096 348.293 404.29C346.502 405.882 344.552 407.236 343.089 409.167C341.219 411.635 340.284 415.199 341.945 418.035C344.204 421.907 348.83 421.817 353.426 420.424C353.536 425.42 353.566 430.417 353.685 435.403C353.854 442.46 353.257 450.035 354.441 457.012C355.207 461.531 358.222 466.109 363.336 465.263C364.221 465.114 364.112 463.8 363.336 463.581C356.093 461.55 357.376 452.463 357.326 446.641C357.267 439.813 357.247 432.985 357.127 426.157L357.098 424.067C357.267 424.266 357.436 424.475 357.605 424.664C360.421 428.048 363.554 431.193 366.609 434.358C369.663 437.524 372.737 440.649 375.553 444.033C378.299 447.337 380.308 451.348 383.393 454.314C384.179 455.071 385.293 454.295 385.114 453.309C383.91 446.571 377.065 440.241 372.518 435.453C369.862 432.656 367.096 429.959 364.38 427.212C363.092 425.905 361.822 424.581 360.57 423.241C359.704 422.315 357.973 420.952 357.018 419.548C357.018 419.399 357.008 419.259 357.008 419.11C359.834 417.906 362.38 416.453 364.032 415.457C364.828 414.97 364.311 413.735 363.405 413.954C361.234 414.482 359.072 415.043 356.919 415.637C356.809 412.531 356.64 409.426 356.312 406.34C356.212 405.405 356.113 404.439 356.013 403.464C361.008 402.558 365.922 400.289 370.648 398.467C372.332 397.815 374.01 397.148 375.682 396.467C377.632 401.851 379.045 407.823 381.323 413.148C381.163 413.657 381.086 414.188 381.094 414.721C381.114 415.507 381.841 415.935 382.517 415.736C382.537 415.786 382.567 415.836 382.587 415.885C383.263 417.179 384.994 416.214 384.786 414.96C384.734 414.677 384.677 414.395 384.616 414.114C387.114 411.158 388.377 405.604 388.964 402.419C389.67 398.597 389.72 394.615 388.825 390.833C395.511 387.867 402.226 384.732 408.384 380.82C408.046 381.975 407.797 383.139 407.758 384.334C407.728 385.18 408.971 385.797 409.539 385.07C411.489 382.612 412.364 379.437 413.419 376.521C413.846 375.296 412.523 374.251 411.409 374.52ZM353.009 416.741C349.875 417.667 343.328 418.921 344.681 413.317C345.418 410.252 350.263 407.704 352.621 404.758C352.839 407.037 352.989 409.316 353.118 411.605C353.208 413.288 353.277 414.97 353.327 416.652C353.208 416.682 353.108 416.711 353.009 416.741ZM370.718 377.436C373.185 378.252 375.692 378.78 377.941 380.373C380.915 382.483 383.253 385.568 384.616 388.962L384.019 389.231C381.667 390.273 379.306 391.295 376.936 392.296C375.045 387.26 373.125 382.234 370.718 377.436ZM385.114 403.723C384.617 405.617 383.958 407.465 383.144 409.247C382.617 407.803 382.05 406.38 381.552 404.977C380.425 401.797 379.274 398.625 378.1 395.462C380.266 394.564 382.422 393.642 384.567 392.695C384.905 392.545 385.253 392.396 385.591 392.247C386.377 396.019 386.079 400.02 385.114 403.723ZM317.62 294.238C316.028 293.85 314.695 293.89 313.113 294.338C311.054 294.925 308.069 296.995 306.04 295.273C304.736 294.158 302.209 295.671 303.463 297.433C304.846 299.374 305.94 302.848 305.592 305.634C302.577 306.172 299.762 307.217 296.867 308.352C293.235 309.775 289.465 310.541 285.833 311.915L285.714 311.975C284.013 311.606 282.401 310.85 281.118 309.526C278.471 306.799 278.461 299.294 283.446 302.121C284.5 302.718 285.694 301.504 285.097 300.329C283.396 297.015 279.108 297.732 277.198 300.469C274.671 304.082 276.034 309.138 278.75 312.104C280.6 314.125 282.729 315.289 284.998 315.846C285.527 316.573 286.164 317.214 286.888 317.747C289.097 319.39 288.987 321.709 289.306 324.466C289.544 326.486 292.29 326.626 292.31 324.466C292.32 322.933 292.32 321.4 292.32 319.867C292.35 319.907 292.37 319.947 292.39 319.977C292.818 320.624 293.046 321.43 293.484 322.087C294.091 323.003 294.728 323.58 295.653 324.088C297.225 324.944 298.737 322.893 297.533 321.44C296.041 319.639 294.419 317.28 296.867 315.737C297.772 315.17 298.946 314.861 300.05 314.543C301.234 314.294 302.438 314.075 303.672 313.985C305.443 313.856 305.453 313.806 305.95 315.647C306.318 317.021 306.667 318.404 307.025 319.788C307.572 321.908 310.427 321.012 310.039 318.882C309.704 317.094 309.554 315.276 309.591 313.458C310.954 315.14 312.387 316.732 314.009 318.156C315.541 319.499 317.64 317.379 316.217 315.757C314.078 313.318 312.467 310.512 311.581 307.267C311.392 306.58 310.487 303.544 310.815 303.106C311.124 302.678 312.626 302.927 313.909 303.226C314.526 303.385 315.143 303.544 315.75 303.704C317.74 304.211 318.585 300.897 316.596 300.369C315.71 300.14 314.825 299.901 313.939 299.673C315.333 299.005 316.697 298.278 318.028 297.493C319.202 296.746 318.983 294.567 317.62 294.238ZM671.077 261.642C665.545 258.019 659.605 255.401 653.397 253.191C651.994 252.694 650.224 252.266 648.552 251.688C653.855 251.559 659.178 251.231 664.48 251.3C666.53 251.33 667.147 248.583 665.495 247.548C659.088 243.507 650.552 245.08 643.508 243.039C643.717 242.203 643.886 241.357 643.757 240.461C643.896 240.193 644.025 239.934 644.165 239.665C644.811 238.421 645.488 237.177 646.314 236.042C647.418 234.539 648.075 234.509 649.885 234.221C651.935 233.902 654.054 233.554 655.885 232.529C656.501 232.18 656.969 231.424 656.929 230.707C656.77 227.831 654.402 226.915 651.955 226.019C651.268 225.77 647.527 224.765 647.886 225.173C647.587 224.835 647.796 222.904 647.776 222.416C647.72 221.036 647.614 219.658 647.458 218.286C647.179 215.807 643.249 215.817 643.568 218.286C643.538 219.012 643.478 219.799 643.418 220.615C643.289 221.948 643.13 223.342 643.21 223.362C643.004 223.316 642.793 223.299 642.583 223.312C642.434 221.779 642.324 220.246 642.125 218.714C641.926 217.211 639.956 216.793 639.409 218.345C638.534 220.844 639.081 222.994 639.061 225.561C639.041 227.731 637.051 231.095 635.668 232.867C634.037 234.957 631.151 235.982 628.813 237.157C626.247 238.441 623.65 239.675 620.994 240.76C616.089 242.78 611.214 243.895 605.951 244.512C601.921 244.98 598.22 245.707 594.967 248.245C594.032 248.971 594.4 250.604 595.335 251.111C596.26 251.619 597.514 251.768 598.37 252.296C598.917 252.634 599.275 253.072 599.494 253.56C591.624 260.069 582.302 264.727 576.522 273.476C575.507 275.019 577.616 277.328 579.168 276.123C583.337 272.929 587.718 270.023 592.281 267.424C590.532 269.694 588.968 272.1 587.605 274.621C587.495 274.83 587.426 275.029 587.396 275.228C586.451 276.093 585.535 276.989 584.65 277.915C583.138 279.517 585.386 281.657 587.028 280.294C595.634 273.177 604.558 267.176 615.193 263.533C620.409 261.744 625.798 260.503 631.271 259.83C633.897 259.512 636.534 259.303 639.17 259.104C643.06 259.402 646.93 259.78 650.811 260.497C657.168 261.681 663.197 263.831 669.435 265.424C671.803 266.041 673.037 262.926 671.077 261.642ZM646.164 247.508C645.199 247.588 644.244 247.687 643.289 247.817H643.269C643.119 247.48 643.013 247.125 642.951 246.762C643.976 247.15 645.06 247.359 646.164 247.508ZM603.125 255.202C603.842 254.555 603.812 253.749 603.424 253.142C603.334 252.236 603.066 251.36 602.439 250.584C601.892 249.907 601.195 249.509 600.449 249.21C604.438 247.677 609.353 248.006 613.393 247.06C618.596 245.846 623.521 243.766 628.326 241.457C632.345 239.526 636.852 237.963 639.3 234.032C640.404 232.26 642.493 229.413 642.881 227.293C643.418 227.333 643.876 227.263 644.284 227.094C644.782 227.91 645.528 228.557 646.642 228.936C647.687 229.294 649.189 229.811 650.253 229.911C650.253 229.911 650.263 229.911 650.263 229.921C648.562 230.07 646.562 230.369 645.309 231.195C642.692 232.907 640.603 236.599 639.19 239.934C639.18 239.954 639.17 239.964 639.16 239.974C637.041 243.806 637.141 248.185 640.205 251.509C641.548 252.962 643.11 253.988 644.801 254.744C640.215 254.097 635.569 253.729 630.982 253.988C630.614 254.008 630.286 254.097 630.007 254.227C628.117 254.296 626.207 254.436 624.287 254.664C617.302 255.501 610.647 257.382 604.568 260.985C603.782 261.453 603.016 261.94 602.25 262.438C602.399 262.308 602.548 262.169 602.697 262.04C604.478 260.507 602.21 258.188 600.369 259.014C598.55 259.834 596.752 260.7 594.977 261.612C597.793 259.571 600.588 257.511 603.125 255.202ZM324.097 540.636C321.928 537.82 318.446 536.267 315.541 534.306C312.043 531.947 308.625 529.47 305.294 526.881L305.264 526.453C305.104 523.773 304.965 521.093 304.846 518.411C306.707 519.896 308.618 521.317 310.577 522.671C313.104 524.403 316.516 527.528 319.7 527.339C320.426 527.299 320.864 526.573 320.516 525.916C319.173 523.388 315.571 522.094 313.233 520.531C310.266 518.526 307.407 516.366 304.667 514.061C304.655 513.859 304.648 513.656 304.647 513.454C304.567 511.085 304.816 508.368 304.567 505.84C304.757 506.049 304.965 506.288 305.214 506.547C307.821 509.284 312.477 514.569 316.476 514.659C317.282 514.679 317.63 513.823 317.332 513.176C316.059 510.439 312.308 508.746 310.099 506.726C308.308 505.084 306.348 501.779 303.911 501.102C301.712 500.485 300.021 502.804 298.598 504.088C295.972 506.447 292.539 508.886 290.908 512.051C290.529 512.778 291.266 513.395 291.952 513.096C294.38 512.041 296.26 509.971 298.26 508.269C299.066 507.582 299.901 506.676 300.797 505.979C300.638 508.478 300.986 511.145 301.055 513.464C301.055 513.604 301.065 513.743 301.075 513.882C297.354 517.625 293.673 521.327 290.45 525.518C290.092 525.985 290.689 526.742 291.236 526.533C295.126 525.07 298.31 521.676 301.254 518.481C301.374 521.357 301.513 524.224 301.712 527.09L301.742 527.419C297.772 532.694 293.146 537.292 288.918 542.338C288.43 542.926 289.047 543.881 289.773 543.443C294.509 540.607 298.548 536.536 302.1 532.226C302.309 534.834 302.538 537.441 302.797 540.049C303.195 544.04 303.125 548.519 305.055 552.132C305.413 552.799 306.468 552.64 306.647 551.923C307.632 548.081 306.647 543.941 306.299 540.049C306.045 537.128 305.816 534.205 305.612 531.28C307.818 532.987 310.077 534.623 312.387 536.187C315.571 538.327 319.232 541.403 323.122 541.93C323.739 542.03 324.635 541.333 324.097 540.636ZM47.4759 262.458C45.3069 259.641 41.8259 258.088 38.9199 256.127C35.4215 253.768 32.0039 251.292 28.6729 248.702L28.6429 248.274C28.4829 245.597 28.3439 242.92 28.2249 240.232C30.0849 241.715 31.9949 243.139 33.9549 244.492C36.4829 246.224 39.8949 249.349 43.0789 249.16C43.8049 249.12 44.2429 248.394 43.8949 247.737C42.5509 245.209 38.9499 243.915 36.6119 242.352C33.6369 240.352 30.7919 238.182 28.0459 235.883C28.0341 235.681 28.0275 235.478 28.0259 235.276C27.9459 232.907 28.1959 230.19 27.9459 227.661C28.1359 227.87 28.3439 228.109 28.5929 228.368C31.1999 231.105 35.8559 236.39 39.8549 236.48C40.6609 236.5 41.0089 235.644 40.7109 234.997C39.4369 232.26 35.6869 230.568 33.4779 228.547C31.6879 226.905 29.7279 223.601 27.2899 222.924C25.0909 222.307 23.3999 224.626 21.9769 225.91C19.3499 228.269 15.9179 230.707 14.2869 233.872C13.9079 234.599 14.6449 235.216 15.3309 234.917C17.7589 233.862 19.6389 231.792 21.6389 230.09C22.4449 229.403 23.2799 228.498 24.1759 227.801C24.0159 230.299 24.3649 232.966 24.4339 235.286C24.4339 235.425 24.4439 235.564 24.4539 235.704C20.7339 239.446 17.0519 243.149 13.8289 247.339C13.4709 247.807 14.0679 248.563 14.6149 248.354C18.5049 246.891 21.6889 243.497 24.6329 240.302C24.7529 243.178 24.8919 246.045 25.0909 248.911L25.1209 249.24C21.1509 254.515 16.5249 259.113 12.2969 264.16C11.8089 264.747 12.4259 265.702 13.1519 265.264C17.8879 262.428 21.9269 258.357 25.4789 254.047C25.6879 256.655 25.9169 259.263 26.1759 261.87C26.5729 265.862 26.5039 270.341 28.4339 273.954C28.7919 274.62 29.8469 274.461 30.0259 273.745C31.0109 269.903 30.0259 265.762 29.6769 261.87C29.4231 258.949 29.1945 256.026 28.9909 253.102C31.1969 254.809 33.4563 256.445 35.7659 258.009C38.9499 260.149 42.6109 263.224 46.5009 263.752C47.1179 263.861 48.0129 263.164 47.4759 262.458ZM520.052 365.503C517.883 362.686 514.401 361.133 511.496 359.172C507.997 356.813 504.579 354.336 501.248 351.747C501.238 351.604 501.228 351.462 501.219 351.319C501.059 348.642 500.92 345.965 500.801 343.277C502.661 344.76 504.571 346.184 506.531 347.537C509.058 349.269 512.471 352.394 515.654 352.205C516.381 352.165 516.818 351.439 516.47 350.782C515.127 348.254 511.526 346.96 509.188 345.397C506.213 343.397 503.367 341.227 500.622 338.928C500.61 338.726 500.603 338.523 500.602 338.321C500.522 335.952 500.771 333.234 500.522 330.706C500.711 330.915 500.92 331.154 501.169 331.413C503.775 334.15 508.431 339.435 512.431 339.525C513.237 339.545 513.585 338.689 513.287 338.042C512.013 335.305 508.262 333.613 506.054 331.592C504.263 329.95 502.303 326.645 499.865 325.969C497.667 325.352 495.975 327.671 494.553 328.955C491.926 331.314 488.494 333.752 486.862 336.917C486.484 337.644 487.22 338.261 487.907 337.962C490.334 336.907 492.215 334.837 494.214 333.135C495.02 332.448 495.856 331.542 496.751 330.846C496.592 333.344 496.94 336.011 497.01 338.33C497.01 338.47 497.02 338.609 497.03 338.749C493.309 342.491 489.628 346.193 486.404 350.384C486.046 350.852 486.643 351.608 487.19 351.399C491.081 349.936 494.264 346.542 497.209 343.347C497.328 346.223 497.468 349.09 497.667 351.956L497.697 352.285C493.727 357.56 489.101 362.158 484.872 367.205C484.385 367.792 485.002 368.747 485.728 368.309C490.464 365.473 494.503 361.402 498.055 357.092C498.264 359.7 498.492 362.308 498.751 364.915C499.149 368.907 499.079 373.385 501.01 376.998C501.368 377.665 502.422 377.506 502.601 376.789C503.586 372.948 502.601 368.807 502.253 364.915C501.999 361.994 501.77 359.071 501.567 356.147C503.773 357.854 506.032 359.49 508.342 361.054C511.526 363.193 515.187 366.269 519.077 366.796C519.694 366.906 520.599 366.209 520.052 365.503ZM352.945 127.236C350.348 125.235 347.463 123.723 344.946 121.573C342.847 119.771 340.947 117.771 339.186 115.641C339.096 113.491 338.977 111.341 338.778 109.201C341.424 111.908 344.488 114.168 347.652 116.308C349.324 117.442 350.786 114.795 349.214 113.64C345.424 110.853 341.723 108.136 338.738 104.453C338.191 103.777 337.096 103.926 336.529 104.453C333.674 107.081 329.794 109.519 327.724 112.814C327.326 113.441 327.993 114.357 328.719 114.108C331.575 113.142 334.141 110.863 336.499 108.693C336.338 110.766 336.272 112.845 336.3 114.924C336.181 115.024 336.072 115.143 335.982 115.262C334.131 117.98 332.132 120.597 329.873 122.976C327.993 124.957 325.615 126.559 324.103 128.858C323.765 129.366 324.322 130.013 324.879 129.864C327.784 129.058 330.162 126.669 332.301 124.638C333.787 123.221 335.18 121.708 336.469 120.11C336.579 122.21 336.718 124.3 336.848 126.39C336.877 126.947 336.927 127.515 336.967 128.072C336.857 128.172 336.758 128.281 336.678 128.411C334.181 132.242 331.047 135.766 327.864 139.05C327.316 139.618 328.023 140.583 328.719 140.155C332.132 138.065 334.828 135.577 337.305 132.641C337.734 138.022 338.298 143.392 338.997 148.745C339.285 150.964 342.379 150.586 342.051 148.327C341.338 143.345 340.744 138.347 340.27 133.337C343.245 135.865 346.478 138.135 349.96 139.797C351.781 140.663 353.323 138.135 351.562 137.06C347.423 134.522 343.493 131.964 339.872 128.739C339.792 127.744 339.703 126.758 339.643 125.763C339.539 124.162 339.459 122.559 339.404 120.956C342.916 124.758 347.175 128.321 351.801 129.983C353.542 130.6 354.169 128.182 352.945 127.236ZM274.945 178.236C272.348 176.235 269.463 174.723 266.946 172.573C264.847 170.771 262.947 168.771 261.186 166.641C261.096 164.491 260.977 162.341 260.778 160.201C263.424 162.908 266.488 165.168 269.652 167.308C271.324 168.442 272.786 165.795 271.214 164.64C267.424 161.853 263.723 159.136 260.738 155.453C260.191 154.777 259.096 154.926 258.529 155.453C255.674 158.081 251.794 160.519 249.724 163.814C249.326 164.441 249.993 165.357 250.719 165.108C253.575 164.142 256.141 161.863 258.499 159.693C258.338 161.766 258.272 163.845 258.3 165.924C258.181 166.024 258.072 166.143 257.982 166.262C256.131 168.98 254.132 171.597 251.873 173.976C249.993 175.957 247.615 177.559 246.103 179.858C245.765 180.366 246.322 181.013 246.879 180.864C249.784 180.058 252.162 177.669 254.301 175.638C255.787 174.221 257.18 172.708 258.469 171.11C258.579 173.21 258.718 175.3 258.848 177.39C258.877 177.947 258.927 178.515 258.967 179.072C258.857 179.172 258.758 179.281 258.678 179.411C256.181 183.242 253.047 186.766 249.864 190.05C249.316 190.618 250.023 191.583 250.719 191.155C254.132 189.065 256.828 186.577 259.305 183.641C259.734 189.022 260.298 194.392 260.997 199.745C261.285 201.964 264.379 201.586 264.051 199.327C263.338 194.345 262.744 189.347 262.27 184.337C265.245 186.865 268.478 189.135 271.96 190.797C273.781 191.663 275.323 189.135 273.562 188.06C269.423 185.522 265.493 182.964 261.872 179.739C261.792 178.744 261.703 177.758 261.643 176.763C261.539 175.162 261.459 173.559 261.404 171.956C264.916 175.758 269.175 179.321 273.801 180.983C275.542 181.6 276.169 179.182 274.945 178.236ZM117.411 672.868C112.556 668.917 106.358 666.1 100.737 663.154C100.707 662.656 100.687 662.169 100.657 661.671C100.528 659.531 100.508 657.312 100.478 655.072C104.368 658.436 108.636 661.87 113.143 663.701C114.476 664.239 115.501 662.248 114.516 661.343C112.387 659.382 109.741 657.958 107.393 656.256C104.975 654.505 102.657 652.643 100.379 650.713C100.299 648.602 100.16 646.492 99.8609 644.442C102 646.025 104.139 647.607 106.258 649.21C107.492 650.145 109.004 651.977 110.507 650.633C111.193 650.026 111.143 648.821 110.507 648.204C106.975 644.8 102.448 642.093 98.4679 639.237C97.8619 638.799 96.936 639.018 96.438 639.495C94.5379 641.347 92.6379 643.188 90.7279 645.039C89.2259 646.502 87.5339 647.627 87.1859 649.757C87.1259 650.145 87.3559 650.663 87.8329 650.613C89.9229 650.384 90.9569 649.1 92.4989 647.677C93.9909 646.313 95.474 644.94 96.966 643.576C96.757 645.676 96.7369 647.836 96.7869 649.996C92.479 653.738 87.2459 657.441 84.1219 662.238C83.6839 662.905 84.5199 663.532 85.1269 663.244C89.4839 661.193 93.2949 657.52 96.9569 654.156C97.1149 656.913 97.3039 659.66 97.3439 662.298C97.3439 662.398 97.3539 662.507 97.3539 662.607L97.3439 662.616C93.1949 666.797 88.42 670.519 84.6889 675.078C84.212 675.665 84.7989 676.491 85.5049 676.143C90.0119 673.933 93.8419 670.44 97.4639 666.926C97.5439 669.126 97.6529 671.326 97.7719 673.515C97.9419 676.451 97.5819 679.915 99.4729 682.304C99.8609 682.802 100.777 682.632 101.045 682.105C102.408 679.407 101.403 675.824 101.224 672.898C101.106 670.941 101.004 668.984 100.916 667.026C105.821 669.982 110.795 673.246 116.018 675.237C117.322 675.715 118.486 673.744 117.411 672.868ZM724.572 327.83C719.717 323.879 713.519 321.062 707.898 318.116C707.868 317.618 707.848 317.131 707.818 316.633C707.689 314.493 707.669 312.273 707.639 310.034C711.529 313.398 715.797 316.832 720.304 318.663C721.637 319.201 722.662 317.21 721.677 316.304C719.548 314.334 716.902 312.92 714.554 311.218C712.136 309.467 709.818 307.605 707.54 305.674C707.46 303.564 707.321 301.454 707.022 299.404C709.161 300.987 711.3 302.569 713.42 304.172C714.653 305.107 716.165 306.939 717.668 305.595C718.354 304.988 718.304 303.783 717.668 303.166C714.136 299.762 709.609 297.055 705.629 294.198C705.023 293.761 704.097 293.979 703.6 294.457C701.7 296.309 699.799 298.15 697.889 300.001C696.387 301.464 694.696 302.589 694.347 304.719C694.288 305.107 694.516 305.625 694.994 305.575C697.083 305.346 698.118 304.062 699.66 302.639C701.152 301.275 702.635 299.902 704.127 298.538C703.918 300.638 703.898 302.798 703.948 304.958C699.64 308.7 694.407 312.403 691.283 317.2C690.845 317.867 691.681 318.494 692.288 318.205C696.646 316.155 700.456 312.482 704.117 309.118C704.276 311.875 704.465 314.622 704.505 317.26C704.505 317.359 704.515 317.469 704.515 317.568L704.505 317.578C700.357 321.759 695.581 325.481 691.85 330.04C691.373 330.627 691.96 331.453 692.666 331.105C697.173 328.895 701.003 325.402 704.625 321.888C704.704 324.088 704.814 326.287 704.933 328.477C705.102 331.413 704.744 334.877 706.634 337.266C707.022 337.763 707.938 337.594 708.206 337.067C709.569 334.369 708.564 330.786 708.385 327.86C708.267 325.903 708.165 323.946 708.077 321.988C712.982 324.944 717.956 328.208 723.179 330.199C724.493 330.687 725.647 328.716 724.572 327.83ZM125.411 349.868C120.556 345.917 114.358 343.1 108.737 340.154C108.707 339.656 108.687 339.169 108.657 338.671C108.528 336.531 108.508 334.311 108.478 332.072C112.368 335.436 116.636 338.87 121.143 340.701C122.476 341.239 123.501 339.248 122.516 338.343C120.387 336.372 117.741 334.958 115.393 333.256C112.975 331.505 110.657 329.643 108.379 327.713C108.299 325.602 108.16 323.492 107.861 321.442C110 323.025 112.139 324.607 114.258 326.21C115.492 327.145 117.004 328.977 118.507 327.633C119.193 327.026 119.143 325.821 118.507 325.204C114.975 321.8 110.448 319.093 106.468 316.237C105.861 315.799 104.936 316.018 104.439 316.495C102.539 318.347 100.638 320.188 98.7289 322.039C97.2259 323.502 95.5339 324.627 95.1859 326.757C95.1259 327.145 95.3559 327.663 95.8329 327.613C97.9229 327.384 98.9569 326.1 100.499 324.677C101.991 323.313 103.474 321.94 104.966 320.576C104.757 322.676 104.737 324.836 104.787 326.996C100.479 330.738 95.2459 334.441 92.1219 339.238C91.6839 339.905 92.5199 340.532 93.1269 340.244C97.4839 338.193 101.295 334.52 104.956 331.156C105.115 333.913 105.304 336.66 105.344 339.298C105.344 339.398 105.354 339.507 105.354 339.607L105.344 339.617C101.195 343.797 96.42 347.519 92.6889 352.078C92.212 352.665 92.7989 353.491 93.5049 353.143C98.0119 350.933 101.842 347.44 105.464 343.926C105.543 346.126 105.653 348.326 105.772 350.515C105.941 353.451 105.583 356.915 107.473 359.304C107.861 359.802 108.777 359.632 109.045 359.105C110.408 356.407 109.403 352.824 109.224 349.898C109.106 347.941 109.004 345.984 108.916 344.026C113.821 346.982 118.795 350.246 124.018 352.237C125.322 352.725 126.486 350.754 125.411 349.868ZM64.1299 455.629C59.2759 451.677 53.0779 448.86 47.4559 445.914C47.4259 445.417 47.4059 444.929 47.3759 444.431C47.2479 442.291 47.2279 440.072 47.1979 437.832C51.0879 441.196 55.3559 444.63 59.8629 446.462C61.1959 446.999 62.2209 445.009 61.2359 444.103C59.1059 442.132 56.4599 440.719 54.1119 439.017C51.6949 437.265 49.3769 435.404 47.0979 433.473C47.0179 431.363 46.8789 429.253 46.5809 427.202C48.7199 428.785 50.8589 430.367 52.9779 431.97C54.2119 432.905 55.7239 434.737 57.2259 433.393C57.9129 432.786 57.8629 431.582 57.2259 430.965C53.6939 427.561 49.1679 424.853 45.1879 421.997C44.5809 421.559 43.6559 421.778 43.1579 422.256C41.2579 424.107 39.3579 425.948 37.4479 427.8C35.9459 429.263 34.2539 430.387 33.9059 432.517C33.8459 432.905 34.0759 433.423 34.5529 433.373C36.6419 433.144 37.6769 431.86 39.2189 430.437C40.7109 429.073 42.1929 427.7 43.6859 426.336C43.4759 428.437 43.4569 430.596 43.5059 432.756C39.1989 436.499 33.9659 440.201 30.8419 444.999C30.4039 445.665 31.2399 446.292 31.8469 446.004C36.2039 443.953 40.0149 440.281 43.6759 436.917C43.8349 439.674 44.0239 442.421 44.0639 445.058C44.0639 445.158 44.0739 445.267 44.0739 445.367L44.0639 445.377C39.9149 449.557 35.1399 453.28 31.4089 457.838C30.9309 458.425 31.5189 459.251 32.2249 458.903C36.7309 456.694 40.5619 453.2 44.1829 449.686C44.2629 451.886 44.3729 454.086 44.4919 456.275C44.6609 459.212 44.3019 462.675 46.1919 465.064C46.5809 465.562 47.4959 465.393 47.7649 464.865C49.1279 462.168 48.1229 458.585 47.9439 455.658C47.826 453.701 47.723 451.744 47.6349 449.786C52.5399 452.742 57.5149 456.007 62.7379 457.997C64.0509 458.485 65.2039 456.504 64.1299 455.629ZM165.71 235.037C160.855 231.085 154.657 228.269 149.036 225.322C149.006 224.825 148.986 224.337 148.956 223.839C148.827 221.699 148.807 219.48 148.777 217.24C152.667 220.605 156.935 224.038 161.442 225.87C162.775 226.407 163.8 224.417 162.815 223.511C160.686 221.54 158.039 220.127 155.691 218.425C153.274 216.673 150.956 214.812 148.677 212.881C148.598 210.771 148.458 208.661 148.16 206.611C150.301 208.189 152.433 209.778 154.557 211.378C155.791 212.314 157.303 214.145 158.805 212.801C159.492 212.194 159.442 210.99 158.805 210.373C155.274 206.969 150.747 204.262 146.767 201.405C146.16 200.967 145.235 201.186 144.738 201.664C142.837 203.515 140.937 205.356 139.027 207.208C137.525 208.671 135.833 209.796 135.485 211.925C135.425 212.314 135.654 212.831 136.132 212.781C138.221 212.553 139.256 211.269 140.798 209.845C142.29 208.482 143.773 207.108 145.265 205.745C145.056 207.845 145.036 210.005 145.086 212.164C140.778 215.907 135.545 219.609 132.421 224.407C131.983 225.074 132.819 225.701 133.426 225.412C137.783 223.362 141.594 219.689 145.255 216.325C145.414 219.082 145.603 221.829 145.643 224.466C145.643 224.566 145.653 224.675 145.653 224.775L145.643 224.785C141.494 228.965 136.719 232.688 132.988 237.246C132.51 237.834 133.097 238.66 133.804 238.311C138.311 236.102 142.141 232.608 145.762 229.095C145.842 231.294 145.951 233.494 146.071 235.684C146.24 238.62 145.882 242.084 147.772 244.472C148.16 244.97 149.075 244.801 149.344 244.273C150.707 241.576 149.702 237.993 149.523 235.067C149.405 233.11 149.303 231.152 149.215 229.194C154.119 232.15 159.094 235.415 164.317 237.406C165.63 237.893 166.784 235.913 165.71 235.037ZM194.411 103.868C189.556 99.9169 183.358 97.0999 177.737 94.1539C177.707 93.6559 177.687 93.1689 177.657 92.6709C177.528 90.5309 177.508 88.3109 177.478 86.0719C181.368 89.4359 185.636 92.8699 190.143 94.7019C191.476 95.2389 192.501 93.2479 191.516 92.3419C189.387 90.3719 186.741 88.9579 184.393 87.2559C181.975 85.5049 179.657 83.6429 177.379 81.7129C177.299 79.6029 177.16 77.4929 176.861 75.4419C179 77.0249 181.139 78.6069 183.258 80.2099C184.492 81.1449 186.004 82.9769 187.507 81.6329C188.193 81.0259 188.143 79.8209 187.507 79.2039C183.975 75.7999 179.448 73.0939 175.468 70.2369C174.861 69.7989 173.936 70.0169 173.439 70.4949C171.538 72.3469 169.638 74.1879 167.728 76.0389C166.226 77.5019 164.534 78.6269 164.186 80.7569C164.127 81.1449 164.355 81.6629 164.833 81.6129C166.922 81.3839 167.957 80.0999 169.499 78.6769C170.991 77.3129 172.474 75.9399 173.966 74.5769C173.757 76.6769 173.737 78.8369 173.787 80.9959C169.479 84.7379 164.246 88.4409 161.122 93.2379C160.684 93.9049 161.52 94.5319 162.127 94.2429C166.484 92.1929 170.295 88.5209 173.956 85.1559C174.115 87.9129 174.304 90.6599 174.344 93.2979C174.344 93.3979 174.354 93.5069 174.354 93.6059L174.344 93.6159C170.195 97.7969 165.42 101.519 161.689 106.078C161.211 106.665 161.798 107.491 162.505 107.143C167.012 104.933 170.842 101.44 174.463 97.9259C174.543 100.126 174.653 102.326 174.772 104.515C174.941 107.451 174.583 110.915 176.473 113.304C176.861 113.802 177.776 113.632 178.045 113.105C179.408 110.407 178.403 106.824 178.224 103.898C178.106 101.941 178.004 99.984 177.916 98.0259C182.821 100.982 187.795 104.246 193.018 106.237C194.332 106.725 195.486 104.744 194.411 103.868ZM33.4089 125.86C28.5539 121.909 22.3549 119.092 16.7339 116.146C16.7039 115.648 16.6839 115.161 16.6539 114.663C16.5249 112.523 16.5049 110.304 16.4759 108.064C20.3659 111.428 24.6339 114.862 29.1409 116.694C30.4739 117.231 31.4989 115.24 30.5139 114.335C28.3839 112.364 25.7379 110.951 23.3899 109.249C20.9719 107.497 18.6539 105.636 16.3759 103.705C16.2959 101.595 16.1569 99.4849 15.8589 97.4339C17.9979 99.0169 20.1369 100.599 22.2559 102.202C23.4899 103.137 25.0019 104.969 26.5039 103.625C27.1909 103.018 27.1409 101.814 26.5039 101.197C22.9719 97.7929 18.4449 95.0849 14.4659 92.2289C13.8689 91.8009 12.9339 92.0089 12.4359 92.4979C10.5359 94.3479 8.63595 96.1899 6.72595 98.0409C5.22295 99.5039 3.53195 100.629 3.18395 102.759C3.12395 103.147 3.35295 103.665 3.82995 103.615C5.91995 103.386 6.95395 102.102 8.49695 100.679C9.98895 99.3149 11.4709 97.9419 12.9639 96.5779C12.7539 98.6779 12.7339 100.838 12.7839 102.998C8.47695 106.74 3.24395 110.443 0.119946 115.24C-0.318054 115.907 0.516946 116.534 1.12395 116.246C5.48195 114.195 9.29195 110.523 12.9539 107.158C13.1129 109.915 13.3019 112.663 13.3419 115.3C13.3419 115.4 13.3519 115.509 13.3519 115.609L13.3419 115.619C9.19295 119.799 4.41695 123.521 0.686946 128.08C0.208946 128.667 0.795946 129.493 1.50195 129.145C6.00895 126.935 9.83995 123.442 13.4619 119.928C13.5409 122.128 13.6499 124.328 13.7699 126.517C13.9389 129.454 13.5799 132.917 15.4699 135.306C15.8589 135.804 16.7739 135.634 17.0429 135.107C18.4059 132.41 17.4009 128.826 17.2219 125.9C17.1041 123.943 17.0011 121.986 16.9129 120.028C21.8179 122.984 26.7929 126.249 32.0159 128.239C33.3289 128.717 34.4829 126.746 33.4089 125.86ZM575.846 445.019C570.991 441.067 564.792 438.251 559.171 435.304C559.141 434.807 559.122 434.319 559.092 433.821C558.962 431.681 558.942 429.462 558.913 427.222C562.803 430.587 567.071 434.02 571.578 435.852C572.911 436.389 573.936 434.399 572.951 433.493C570.821 431.522 568.175 430.109 565.827 428.407C563.409 426.655 561.091 424.794 558.813 422.863C558.733 420.753 558.594 418.643 558.296 416.592C560.436 418.17 562.569 419.76 564.693 421.36C565.927 422.296 567.439 424.127 568.941 422.783C569.628 422.176 569.578 420.972 568.941 420.355C565.409 416.951 560.882 414.243 556.903 411.387C556.296 410.949 555.371 411.168 554.873 411.646C552.973 413.497 551.073 415.338 549.163 417.19C547.66 418.653 545.969 419.777 545.621 421.907C545.561 422.296 545.79 422.813 546.267 422.763C548.357 422.534 549.391 421.25 550.934 419.827C552.426 418.464 553.908 417.09 555.401 415.727C555.192 417.827 555.172 419.986 555.222 422.146C550.914 425.889 545.681 429.591 542.557 434.389C542.119 435.056 542.954 435.683 543.561 435.394C547.919 433.344 551.729 429.671 555.391 426.307C555.55 429.064 555.739 431.811 555.779 434.448C555.779 434.548 555.789 434.657 555.789 434.757L555.779 434.767C551.63 438.947 546.854 442.67 543.124 447.228C542.646 447.815 543.233 448.642 543.939 448.293C548.446 446.084 552.277 442.59 555.898 439.077C555.978 441.276 556.087 443.476 556.206 445.666C556.376 448.602 556.017 452.065 557.908 454.454C558.296 454.952 559.211 454.783 559.48 454.255C560.843 451.558 559.838 447.975 559.659 445.048C559.541 443.091 559.438 441.134 559.35 439.176C564.255 442.132 569.23 445.397 574.453 447.387C575.766 447.875 576.93 445.895 575.846 445.019ZM124.043 32.1499C115.62 40.5169 105.063 48.4769 92.8259 45.1919C79.6319 41.6479 74.4949 26.6269 81.7289 14.6919C88.5959 3.36187 105.063 -0.169127 113.915 10.6819C119.249 17.2269 116.588 25.0019 111.095 30.3179C106.718 34.5619 100.354 36.6409 94.91 33.2829C87.9579 29.0009 89.3309 16.5129 97.1899 14.1509C100.98 13.0199 105.541 14.9389 106.277 19.2809C106.571 21.0529 106.252 23.2809 105.001 24.6339C104.339 25.3469 103.579 25.7899 102.635 25.9129C101.298 26.6139 100.55 25.9499 100.403 23.9199C98.4169 21.7909 98.9319 20.7829 101.912 20.8809C103.187 21.1509 103.971 19.3919 102.807 18.6419C96.1119 14.2619 91.9429 26.0119 98.7729 29.3949C106.534 33.2579 112.42 23.0589 109.452 16.1079C105.872 7.71687 94.8619 8.34387 89.8949 14.7779C84.1939 22.1729 86.1189 33.4059 94.5669 37.3419C102.77 41.1559 111.5 36.6659 116.601 29.5919C122.915 20.8319 121.223 10.5839 112.714 4.24787C95.6089 -8.48613 70.743 9.47587 75.6229 30.7849C78.1239 41.7099 87.2699 48.3539 97.6689 48.9559C108.888 49.6079 119.409 42.8789 125.809 33.5779C126.557 32.4579 124.926 31.2639 124.043 32.1499Z" fill="#3D4833"/>
</svg>
