<svg width="80" height="54" viewBox="0 0 80 54" fill="none" xmlns="http://www.w3.org/2000/svg">
<g clip-path="url(#clip0_1_5)">
<path fill-rule="evenodd" clip-rule="evenodd" d="M7.25034 11.4031C7.72674 11.4031 8.1582 11.3401 8.54472 11.2105C8.90545 11.0938 9.24798 10.9268 9.56225 10.7146C9.85618 10.5121 10.107 10.279 10.3146 10.0144C10.5231 9.75157 10.6939 9.47797 10.8288 9.19627V9.01267H7.43371V6.43777H13.8571V7.54117C13.8635 8.40683 13.6922 9.26457 13.3537 10.0612C13.0313 10.8246 12.5636 11.5179 11.9766 12.1024C11.3826 12.6877 10.6816 13.1531 9.91191 13.4731C9.09826 13.8139 8.224 13.986 7.34202 13.9789C6.41931 13.9827 5.5062 13.7913 4.66247 13.4173C3.83441 13.0544 3.0814 12.5398 2.44225 11.8999C1.80332 11.2589 1.28964 10.5041 0.92764 9.67417C0.55471 8.8283 0.364195 7.91318 0.368539 6.98857C0.368539 6.04537 0.555506 5.14987 0.928539 4.30387C1.29036 3.4746 1.80339 2.72011 2.44135 2.07907C3.08064 1.43908 3.8336 0.924167 4.66157 0.560773C5.50592 0.186802 6.41967 -0.00427312 7.34292 7.24929e-05C8.1627 7.24929e-05 8.91236 0.122472 9.59011 0.367272C10.2697 0.612972 10.8638 0.934273 11.3717 1.33297C11.869 1.72029 12.2999 2.18633 12.6472 2.71267C12.9897 3.23467 13.2404 3.77017 13.3996 4.32187L10.5546 4.68997C10.4136 4.40965 10.2446 4.1443 10.0503 3.89797C9.63442 3.36239 9.06915 2.96241 8.42607 2.74867C8.04663 2.62654 7.64975 2.56755 7.25124 2.57407C6.72539 2.57407 6.21753 2.68747 5.72764 2.91427C5.23987 3.14041 4.80058 3.45921 4.43416 3.85297C4.06112 4.25077 3.76449 4.71697 3.54427 5.25067C3.32043 5.80209 3.208 6.39247 3.21348 6.98767C3.21348 7.61407 3.32405 8.19367 3.54427 8.72647C3.76449 9.26017 4.06112 9.72547 4.43416 10.1242C4.80719 10.5229 5.23865 10.8352 5.72854 11.062C6.21753 11.2888 6.72449 11.404 7.25124 11.404L7.25034 11.4031ZM19.5245 9.56437V13.4272H16.6796V0.552673H23.0112C23.7708 0.552673 24.4557 0.666072 25.067 0.892873C25.6782 1.11967 26.1996 1.43557 26.6274 1.83967C27.0553 2.24467 27.3861 2.72257 27.618 3.27427C27.8517 3.82597 27.9667 4.42087 27.9667 5.05807C27.9724 5.71059 27.8378 6.3567 27.5721 6.95257C27.4645 7.19508 27.3326 7.42606 27.1784 7.64197C27.0432 7.83149 26.8896 8.00723 26.72 8.16667C26.361 8.51641 25.9451 8.80248 25.4903 9.01267L27.876 13.4263H24.8467C24.4926 12.7648 24.1411 12.1213 23.7924 11.4949C23.4436 10.8694 23.0912 10.2259 22.7371 9.56437H19.5236H19.5245ZM23.0121 6.99037C23.6593 6.99037 24.1744 6.80587 24.5537 6.43777C24.933 6.07057 25.1227 5.60977 25.1227 5.05897C25.1227 4.50637 24.9321 4.04737 24.5537 3.67927C24.1744 3.31117 23.6602 3.12757 23.0112 3.12757H19.5236V6.98857L23.0112 6.98947L23.0121 6.99037ZM33.1739 0.551772H39.6899L42.809 13.4263H39.8742L39.2315 10.7587H33.6342L32.9915 13.4263H30.0548L33.1748 0.552673L33.1739 0.551772ZM34.2751 8.18377H38.5888L37.396 3.12577H35.4697L34.2751 8.18377ZM53.3402 8.64367H53.5236V0.552673H56.3685V13.4272H53.2494L48.2939 5.33437H48.1106V13.4272H45.2656V0.552673H48.3856L53.3411 8.64457L53.3402 8.64367ZM68.0737 8.53387C68.2718 8.04302 68.3717 7.51798 68.3676 6.98857C68.3676 6.43687 68.2688 5.92477 68.0737 5.45317C67.8869 4.99449 67.6093 4.57843 67.2575 4.23007C66.8991 3.88032 66.4751 3.60504 66.0099 3.42007C65.5047 3.22024 64.9656 3.12059 64.4225 3.12667H62.587V10.8505H64.4216C64.9969 10.8505 65.5263 10.7524 66.0099 10.5571C66.4725 10.3769 66.894 10.1047 67.2487 9.75701C67.6034 9.40929 67.884 8.9932 68.0737 8.53387ZM70.6984 4.46947C71.0409 5.25427 71.2126 6.09397 71.2126 6.98947C71.2126 7.88407 71.0445 8.72377 70.7074 9.50857C70.3809 10.2786 69.8999 10.9733 69.2944 11.5498C68.6706 12.1378 67.9418 12.6028 67.1461 12.9205C66.3209 13.258 65.413 13.4263 64.4216 13.4263H59.7411V0.552673H64.4216C65.4121 0.552673 66.3209 0.721873 67.147 1.05847C67.9424 1.37642 68.6711 1.84107 69.2953 2.42827C69.9 3.00365 70.3779 3.69832 70.6984 4.46947ZM7.34202 34.2649C6.41937 34.2689 5.50627 34.0779 4.66247 33.7042C3.83444 33.3413 3.08144 32.8267 2.44225 32.1868C1.80328 31.5459 1.28958 30.791 0.92764 29.9611C0.554525 29.1156 0.363706 28.2007 0.36764 27.2764C0.36764 26.3314 0.554607 25.4368 0.92764 24.5908C1.28971 23.7614 1.80305 23.0069 2.44135 22.366C3.08065 21.726 3.83361 21.2111 4.66157 20.8477C5.50565 20.4739 6.41907 20.2828 7.34202 20.287C8.1618 20.287 8.91146 20.4094 9.58921 20.6551C10.2688 20.9008 10.8629 21.2221 11.3708 21.6208C11.868 22.0078 12.2989 22.4736 12.6463 22.9996C12.9888 23.5216 13.2396 24.0571 13.3987 24.6088L10.5537 24.9778C10.4189 24.7078 10.2517 24.4432 10.0494 24.1858C9.63353 23.6502 9.06825 23.2502 8.42517 23.0365C8.04573 22.9143 7.64885 22.8554 7.25034 22.8619C6.72449 22.8619 6.21663 22.9753 5.72674 23.2012C5.23897 23.4273 4.79968 23.7461 4.43326 24.1399C4.06023 24.5377 3.7636 25.0039 3.54337 25.5376C3.31953 26.089 3.2071 26.6794 3.21258 27.2746C3.21258 27.901 3.32315 28.4806 3.54337 29.0134C3.7636 29.5471 4.06023 30.0124 4.43326 30.4111C4.80629 30.8098 5.23775 31.1221 5.72764 31.3489C6.20404 31.5731 6.72392 31.6896 7.25034 31.69C7.72764 31.69 8.1582 31.6252 8.54472 31.4965C8.93034 31.3678 9.27281 31.1932 9.57213 30.9727C9.87236 30.7513 10.1321 30.4975 10.3524 30.2095C10.5703 29.9245 10.7608 29.6196 10.9213 29.2987L13.7663 29.6677C13.5957 30.2686 13.3325 30.8392 12.9861 31.3588C12.6165 31.9199 12.1581 32.4169 11.6288 32.8303C11.0545 33.2754 10.413 33.626 9.72854 33.8689C9.00674 34.1326 8.21034 34.2649 7.34202 34.2649ZM16.4045 20.8387H19.2494V26.0812H24.6634V20.8387H27.5083V33.7141H24.6634V28.6561H19.2494V33.7141H16.4045V20.8387ZM33.0831 20.8387H39.5991L42.7182 33.7132H39.7816L39.1398 31.0465H33.5416L32.8989 33.7132H29.9622L33.0831 20.8387ZM34.1843 28.4707H38.4971L37.3043 23.4136H35.3771L34.1843 28.4707ZM48.018 31.1383H54.7173V33.7132H45.173V20.8387H48.018V31.1383ZM67.3591 31.1383V33.7132H57.1721V20.8387H67.3591V23.4136H60.0171V25.9885H65.7987V28.5625H60.0171V31.1383H67.3591ZM69.0796 23.4145V20.8396H80V23.4136H75.9622V33.7141H73.1182V23.4145H69.0796ZM3.12 41.1256H9.63685L12.756 53.9992H9.81933L9.17663 51.3334H3.57933L2.93663 53.9992H0L3.12 41.1256ZM4.22202 48.7576H8.53483L7.34202 43.6996H5.41483L4.22202 48.7576ZM18.0557 51.4252H24.7551V53.9992H15.2108V41.1256H18.0557V51.4252ZM23.5389 43.7005V41.1265H34.4602V43.7005H30.4216V54.0001H27.5775V43.6996L23.5389 43.7005ZM38.0153 41.1265H44.5312L47.6512 54.0001H44.7146L44.0728 51.3334H38.4746L37.8319 54.0001H34.8962L38.0153 41.1265ZM39.1173 48.7585H43.4301L42.2373 43.7005H40.3101L39.1173 48.7585ZM55.1533 54.0001H52.3092V49.7701L47.4463 41.1256H50.6571L53.6863 46.6426H53.778L56.8063 41.1256H60.018L55.1551 49.7701L55.1533 54.0001Z" fill="#D5B36B"/>
</g>
<defs>
<clipPath id="clip0_1_5">
<rect width="80" height="54" fill="white"/>
</clipPath>
</defs>
</svg>
