<svg width="72" height="72" viewBox="0 0 72 72" fill="none" xmlns="http://www.w3.org/2000/svg">
<g clip-path="url(#clip0_1_3)">
<path fill-rule="evenodd" clip-rule="evenodd" d="M43.308 20.3004C43.7958 18.5553 43.875 16.875 42.975 15.3594C42.8472 15.147 42.3288 14.3784 42.0327 14.2803C38.6289 17.7291 41.4774 22.3218 42.3531 23.1795C42.4548 23.0274 43.2117 20.6442 43.308 20.3004ZM46.728 13.2678C46.7748 13.2201 48.6396 12.3147 49.059 12.0285C50.2425 14.4252 50.751 17.5212 54.3627 18.1809C54.4329 17.7903 53.1585 14.9841 52.866 14.4477C52.5485 13.8377 52.1404 13.2793 51.6555 12.7917C50.9895 12.0969 50.6277 11.979 49.6755 11.5605C50.5485 10.3365 52.0929 8.7705 52.3098 6.7131C55.0189 8.22622 57.5058 10.1067 59.6997 12.3012C65.7657 18.3645 69.5169 26.7444 69.5169 36C69.5169 45.2547 65.7639 53.6337 59.6997 59.6988C58.439 60.9595 57.0802 62.1181 55.6362 63.1638C55.1565 59.8869 54.5472 53.919 54.9162 47.0871C55.1142 43.4511 57.2805 39.0681 56.6514 31.3821C48.4911 36.9279 32.6538 36.8676 23.6223 27.9144L25.2063 25.9542C37.1502 38.3688 60.1929 33.2892 62.6697 18.1008C59.3775 22.5873 54.0819 24.9786 54.0819 24.9786C55.6911 23.1462 55.9512 20.1888 55.9512 20.1888C52.1784 24.7608 48.8997 25.9038 48.8997 25.9038C49.8852 25.3161 50.3577 23.445 50.3577 23.445C33.9831 31.0581 26.3421 15.1956 26.6976 14.0832C26.2359 15.75 26.6742 18.5391 26.6742 18.5391C24.183 14.1777 24.2388 8.7489 24.2388 8.7489C22.3515 12.0663 23.5683 16.0317 23.5683 16.0317C21.7791 14.4621 21.1167 9.2727 21.1167 9.2727C19.0845 13.2696 20.8692 20.2113 23.6835 24.1605L22.1067 26.2494L22.0932 26.2332L22.2732 23.3667L12.6018 18.5913C11.2473 19.2033 10.3437 21.0483 10.3221 22.2309C20.2248 36.0351 18.5148 56.619 17.4456 63.9144C15.5955 62.6826 13.8719 61.2705 12.3003 59.6988C6.2343 53.6337 2.4831 45.2547 2.4831 36C2.4831 26.7444 6.2352 18.3654 12.3003 12.3003C18.0405 6.561 25.8534 2.8935 34.5186 2.5173C33.9057 5.5917 34.1361 8.4294 36.5796 10.7937C38.7621 12.9042 42.2163 13.9617 45.054 13.5972C45.3762 13.5558 45.9009 13.4127 46.1538 13.4379C45.9954 15.2442 46.3428 18.7047 48.8871 19.4139C48.9483 19.1439 48.5514 16.3449 48.4587 15.9912C48.2247 15.0867 47.5677 13.8519 46.728 13.2678ZM45.5661 8.4627C46.2465 8.9919 47.943 6.9372 47.1861 5.5854C47.0421 5.3298 46.7388 5.04 46.3644 5.2038C45.9144 5.4 45.8604 6.8238 45.8064 7.299C45.7596 7.7022 45.6264 8.0667 45.5661 8.4627ZM41.8491 4.4775C40.9059 3.8727 39.024 5.7123 40.4631 7.5753C40.968 8.2278 42.0471 8.397 42.7797 8.1603C44.379 7.6455 45.0657 5.9076 44.3655 4.5495C44.0946 4.0221 43.4079 3.51 42.5358 3.1203C41.0939 2.83554 39.6349 2.64583 38.1681 2.5524C37.9637 2.59886 37.7636 2.66207 37.5696 2.7414C35.1378 3.7431 35.6184 8.1126 38.5254 10.0692C39.8988 10.9935 41.688 11.6775 43.5906 11.6865C45.1503 11.6937 46.7991 11.241 47.8557 10.4445C50.8527 8.1855 50.8059 5.2425 49.9851 6.0795C49.7565 6.3117 49.4856 6.7014 49.2813 6.9723C47.9448 8.7489 46.3365 10.1097 43.7454 10.1637C40.4928 10.233 36.9441 8.0892 37.2456 4.7862C37.3401 3.7476 37.9296 3.4425 38.7756 3.321C39.5199 3.2139 40.545 3.2652 41.4216 3.5073C42.2019 3.7224 43.2 4.2759 43.5258 4.7223C43.9002 5.2317 43.7841 6.2613 43.2072 6.8247C42.1731 7.8354 40.5927 6.7383 41.2722 5.4243C41.4927 4.9977 41.9031 4.9986 41.8491 4.4775ZM9.8262 43.479L6.1857 47.2167L7.8093 48.8394L9.8253 46.7694V50.4873H12.0402V46.7433L14.0823 48.8403L15.705 47.2167L12.0402 43.4529V41.895L14.0832 43.992L15.7059 42.3684L10.9458 37.5237L6.1866 42.3684L7.8093 43.992L9.8262 41.922V43.4808V43.479ZM60.5268 43.479L56.8872 47.2167L58.5099 48.8394L60.5268 46.7694V50.4873H62.7417V46.7433L64.7838 48.8403L66.4074 47.2167L62.7426 43.4529V41.895L64.7838 43.992L66.4074 42.3684L61.6482 37.5237L56.8872 42.3684L58.5108 43.992L60.5277 41.9211V43.4808L60.5268 43.479ZM35.199 60.5961L31.5594 64.3338L33.1821 65.9574L35.199 63.8865V67.6206H37.413V63.8613L39.456 65.9574L41.0787 64.3338L37.4139 60.5709V58.6341L39.4551 60.7311L41.0787 59.1075L37.4139 55.3437V53.784L39.4551 55.881L41.0787 54.2565L36.3186 49.4118L31.5594 54.2565L33.1821 55.8801L35.199 53.8101V55.3698L31.5594 59.1075L33.1821 60.7302L35.199 58.6602V60.5961ZM36 0C45.9414 0 54.9414 4.0293 61.4556 10.5444C67.9698 17.0595 72 26.0586 72 36C72 45.9405 67.9707 54.9405 61.4556 61.4556C54.9414 67.9698 45.9414 72 36 72C26.0595 72 17.0595 67.9707 10.5444 61.4556C4.0293 54.9405 0 45.9405 0 36C0 26.0586 4.0302 17.0586 10.5444 10.5444C17.0586 4.0293 26.0595 0 36 0ZM52.974 64.9062C51.66 57.0357 48.5235 49.1436 48.5235 49.1436C46.0422 56.9196 46.0683 65.4903 46.1349 67.9554C48.5216 67.1991 50.8164 66.1763 52.974 64.9062ZM43.4916 68.6754C42.5943 57.1221 45.2511 48.2112 45.1206 48.2103C42.1389 46.9341 31.2075 46.4085 28.0818 47.7477C27.9522 47.7477 30.411 57.5505 29.6262 68.9112C31.6899 69.3081 33.8202 69.516 36 69.516C38.5208 69.5177 41.0338 69.2358 43.4916 68.6754ZM26.9541 68.2803C27.0072 65.3571 26.9073 57.2751 24.5556 49.905C24.5556 49.905 21.456 57.7026 20.1294 65.5272C22.2953 66.6945 24.5838 67.6181 26.9532 68.2812L26.9541 68.2803ZM33.4314 8.7138C33.0984 8.5662 29.5236 9.207 28.7154 11.0448C28.7154 11.0448 33.3234 10.2321 33.4314 8.7138ZM56.358 12.0105C56.0088 10.4427 53.9109 8.9136 52.3206 9.3312C52.3215 11.2257 55.4481 12.5586 56.358 12.0105ZM38.187 13.1238C36.7947 13.5126 35.0316 16.4718 36.126 19.1988C36.4293 18.8766 36.837 18.2511 37.1034 17.8776C37.6614 17.0946 38.6442 15.6582 38.6154 14.679C38.5983 14.157 38.5119 13.3713 38.187 13.1238ZM33.336 5.2164C33.3252 5.2056 33.3036 5.2065 33.3 5.1858L32.8959 5.0085C32.6988 4.9608 32.472 4.9257 32.2704 4.8933C30.9672 4.6863 30.3768 4.6071 29.0439 4.8843C27.6651 5.1705 26.8344 5.6754 26.0037 6.5979C26.8533 6.84 29.4345 7.0263 30.3381 6.9057C31.5153 6.7473 32.6772 6.1227 33.336 5.2164ZM35.6922 11.2437C34.6644 11.2077 33.0408 12.0312 32.2353 12.7134C31.3533 13.4586 30.4002 14.5926 30.1473 16.1577C30.4353 16.1739 33.0453 14.8446 33.48 14.5314C34.3305 13.9185 35.568 12.8322 35.6922 11.2437Z" fill="#D5B36B"/>
</g>
<defs>
<clipPath id="clip0_1_3">
<rect width="72" height="72" fill="white"/>
</clipPath>
</defs>
</svg>
