<svg width="26" height="26" viewBox="0 0 26 26" fill="none" xmlns="http://www.w3.org/2000/svg">
<path d="M25.883 20.7229L25.7536 20.3329C25.4471 19.4219 24.4425 18.4718 23.5195 18.2215L20.1037 17.2883C19.1774 17.0363 17.856 17.3752 17.1783 18.0529L15.942 19.2891C11.4492 18.0751 7.92612 14.5519 6.71373 10.06L7.95004 8.82365C8.62778 8.14591 8.9666 6.82628 8.71458 5.89996L7.78314 2.48243C7.53112 1.5578 6.57925 0.553174 5.66998 0.250048L5.28005 0.118947C4.36904 -0.184179 3.0698 0.122379 2.39211 0.800066L0.542844 2.65102C0.212474 2.97965 0.00132693 3.91959 0.00132693 3.92302C-0.0633521 9.79427 2.23883 15.4509 6.39191 19.6041C10.5348 23.747 16.1703 26.0458 22.0245 25.9964C22.0551 25.9964 23.0223 25.7886 23.3526 25.46L25.2019 23.6107C25.8796 22.9331 26.1861 21.6339 25.883 20.7229Z" fill="#D5B36B"/>
</svg>
