<svg width="56" height="56" viewBox="0 0 56 56" fill="none" xmlns="http://www.w3.org/2000/svg">
<path d="M36.152 4.14021C32.6081 5.04084 30.8747 8.54952 32.2999 11.955C32.3481 12.0863 32.2422 12.1333 31.674 12.2646C30.7976 12.4522 29.7576 12.9307 29.0257 13.4748C28.7079 13.7094 27.6678 14.7038 26.724 15.6888C25.7706 16.6739 24.981 17.4807 24.9713 17.4807C24.9521 17.4807 20.5896 15.6795 16.3138 13.897C15.2063 13.4373 14.2625 13.0245 14.2144 12.987C14.1758 12.9495 14.2336 12.7243 14.3396 12.4804C14.5707 11.9738 14.5225 11.6548 14.1758 11.3827C13.6751 11.0075 13.2032 11.1763 12.8469 11.8518C12.712 12.1145 12.5772 12.3209 12.5483 12.3209C12.5194 12.3209 12.0764 12.1426 11.566 11.9362C11.0556 11.7205 10.5163 11.5422 10.3623 11.5422C9.71704 11.5328 9.36072 12.4335 9.84223 12.8556C9.9578 12.9682 10.4489 13.2121 10.9208 13.4091C11.4023 13.5968 11.7972 13.7656 11.8164 13.7844C11.8357 13.7938 11.7201 14.0565 11.5564 14.3754C11.3927 14.685 11.2579 15.0697 11.2579 15.2292C11.2579 15.6044 11.6335 15.9797 12.009 15.9797C12.4135 15.9797 12.712 15.7076 13.0298 15.0509C13.1936 14.7413 13.3573 14.4786 13.4151 14.4786C13.6269 14.488 23.6327 18.6815 23.6327 18.766C23.6327 18.8129 22.4193 20.1075 20.9363 21.6273C18.0472 24.5919 17.7005 25.0422 17.2671 26.3462C16.9493 27.2938 16.9012 28.7291 17.1612 29.6767C17.6524 31.4685 18.8272 32.8851 20.5029 33.7107C21.5622 34.2361 21.9378 34.3018 24.1335 34.358L26.1751 34.4143L24.3357 37.332L22.4867 40.2496L20.7533 39.5085C12.8854 36.1593 11.0653 35.3994 10.7186 35.3431C9.82297 35.2118 8.69623 35.8028 8.25324 36.6471C8.01249 37.1162 7.92582 37.8667 8.07027 38.3639C8.20509 38.8424 8.66734 39.4803 9.06218 39.7149C9.2259 39.8087 10.9882 40.5874 12.9817 41.4317C14.9752 42.2854 21.0229 44.8653 26.4255 47.1732C31.8281 49.481 36.5372 51.4699 36.8936 51.5825C38.55 52.1454 40.2064 52.136 41.988 51.5731C42.9028 51.2823 43.4132 50.9258 43.7407 50.3348C44.2511 49.4154 44.1451 48.3928 43.4614 47.6141C42.768 46.8261 41.8724 46.5915 40.7553 46.9199C39.7634 47.2107 39.436 47.2482 38.8967 47.1357C38.627 47.0794 37.1151 46.479 35.5357 45.8035L32.6659 44.5745L33.0607 43.824C33.4363 43.111 33.4556 43.0266 33.4556 42.2573C33.4556 41.0752 33.08 40.3997 31.9725 39.6211C31.7703 39.4803 31.7895 39.4522 32.8874 37.5102C34.6305 34.4425 34.8423 33.9828 34.9675 32.9977C35.1698 31.4498 34.669 30.005 33.5422 28.8323C32.9067 28.185 32.0496 27.6596 31.2214 27.4157C30.9902 27.3501 30.8073 27.275 30.8073 27.2469C30.8073 27.2187 31.0865 26.8997 31.414 26.5433L32.0207 25.8959L32.2999 26.0366C32.4637 26.1211 34.7557 26.8059 37.404 27.5752C41.7954 28.8417 42.2865 28.9637 42.9895 28.9637C43.6347 28.9731 43.8466 28.9355 44.3377 28.7104C44.6555 28.5697 45.0696 28.2976 45.2622 28.1193L45.6186 27.7816L46.7549 28.2601C48.0839 28.823 48.7015 28.8753 49 28.5C49.26 28.1716 49.26 27.7776 48.9904 27.4962C48.8652 27.3648 48.0743 27.0592 47.4579 26.8059L46.3312 26.3462L46.2927 25.5863C46.2638 25.0141 46.1867 24.7045 45.9941 24.3198C45.686 23.7007 45.06 23.0721 44.4822 22.7813C44.2414 22.6593 42.7391 22.2184 41.1598 21.7962C39.5708 21.374 38.2611 21.0175 38.2514 21.0082C38.2418 20.9988 38.367 20.4922 38.5307 19.873C38.9063 18.447 38.9544 17.0679 38.6559 15.9797C38.55 15.595 38.4633 15.2385 38.4633 15.1916C38.4633 15.1447 38.6944 15.0509 38.9737 14.9852C40.4375 14.6194 41.9206 13.456 42.5947 12.1614C44.5015 8.4557 41.9494 4.17774 37.741 4.00887C37.0669 3.98072 36.6528 4.01825 36.152 4.14021ZM38.3381 5.6694C39.7923 5.96961 40.9864 7.02972 41.4102 8.39004C41.9398 10.0787 41.285 11.8987 39.8212 12.8744C39.2337 13.2684 38.3863 13.5405 37.7699 13.5405C37.3173 13.5405 37.1728 13.4936 36.7876 13.2215C36.3254 12.8932 35.4105 12.4804 34.8808 12.3678C34.2067 12.2271 33.5422 11.0731 33.4363 9.87231C33.2148 7.27364 35.709 5.12527 38.3381 5.6694ZM34.6112 13.9345C35.4009 14.1878 35.9402 14.5162 36.3928 15.0134C37.3077 16.0266 37.4425 17.4713 36.8454 19.7886C36.4313 21.3928 36.4795 21.8244 37.1054 22.284C37.2306 22.3685 38.7137 22.8094 40.399 23.2597C42.0843 23.7007 43.577 24.1228 43.7118 24.1885C44.7711 24.7232 45.0215 26.168 44.174 26.9279C43.9044 27.1812 43.3169 27.4251 42.9991 27.4251C42.8739 27.4251 40.5723 26.7966 37.8855 26.0273C33.7252 24.8358 32.9644 24.5919 32.714 24.3574C32.377 24.0571 32.1555 23.6068 32.1555 23.2316C32.1555 23.0815 32.5503 21.8244 33.0222 20.4359C33.5037 19.0474 33.8889 17.7622 33.8889 17.5839C33.8889 17.1336 33.5711 16.824 33.1185 16.824C32.5985 16.824 32.4348 17.0679 31.9147 18.6065C31.6644 19.357 31.4236 20.0043 31.3851 20.0419C31.3177 20.1169 26.6663 18.2406 26.6663 18.1374C26.6663 18.0155 29.8539 14.8164 30.2776 14.5255C31.4814 13.6906 33.1378 13.4654 34.6112 13.9345ZM28.1204 20.5391C29.5746 21.1395 30.7784 21.6461 30.7976 21.6649C30.8169 21.6836 30.7591 21.9463 30.6724 22.2465C30.4702 22.9689 30.4798 23.5599 30.7013 24.1885L30.8843 24.6951L29.7672 25.9616L28.6405 27.4157C27.5893 27.3232 26.1751 27.32 26.1751 28.0918C26.1751 28.7884 27.5 28.8323 28.6405 28.8323L30.6724 28.8792L31.308 29.1888C32.7815 29.8924 33.5904 31.4404 33.3111 32.979C33.2148 33.5043 32.9644 34.0203 31.7799 36.1499C30.9902 37.5478 30.3065 38.7392 30.2583 38.7861C30.2006 38.8424 29.9983 38.8049 29.7094 38.6735C28.9679 38.3546 28.3997 38.636 28.3997 39.3209C28.3997 39.8087 28.5345 39.9119 29.9598 40.5123C31.308 41.0752 31.7221 41.3848 31.8184 41.9008C31.9147 42.398 31.8184 42.792 31.4332 43.3924L31.0962 43.9178L27.6293 42.4355C25.7225 41.6287 24.1335 40.9345 24.1046 40.9063C24.0661 40.8782 24.9617 39.3959 26.0884 37.6134L28.1301 34.3674H28.8716C29.4879 34.3674 29.6516 34.3299 29.825 34.1798C30.1043 33.9265 30.1813 33.5888 30.0176 33.2792C29.7865 32.7913 29.6805 32.7726 26.0884 32.7726C22.4867 32.7726 22.1497 32.735 21.1578 32.2472C20.5125 31.9282 19.6169 31.0933 19.2606 30.4835C18.4035 29.0294 18.442 27.1155 19.3473 25.7552C19.694 25.2298 25.2602 19.4508 25.4143 19.4508C25.4528 19.4508 26.6759 19.9387 28.1204 20.5391ZM24.278 42.7545C32.5889 46.3007 38.0685 48.5898 38.4826 48.6836C39.2626 48.8619 40.139 48.8149 40.9672 48.5335C41.6702 48.299 41.7954 48.299 42.1035 48.5335C42.6621 48.9651 42.4887 49.7062 41.7568 49.9783C40.1293 50.5787 38.5211 50.5318 36.7491 49.8188C34.1201 48.7587 9.94817 38.3827 9.80371 38.2514C9.60148 38.0731 9.56296 37.5571 9.72667 37.2663C9.85186 37.0318 10.1793 36.8911 10.4875 36.9473C10.6223 36.9661 16.8242 39.5835 24.278 42.7545Z" fill="#D5B36B" stroke="#D5B36B" stroke-width="0.4"/>
</svg>
