<svg width="40" height="40" viewBox="0 0 40 40" fill="none" xmlns="http://www.w3.org/2000/svg">
<g clip-path="url(#clip0_11_100)">
<path fill-rule="evenodd" clip-rule="evenodd" d="M14.2776 32.0295L7.15622 34.2958L4.99997 34.982L8.02915 26.0348C7.52081 25.1004 7.11816 24.1105 6.83128 23.0854C6.48327 21.8416 6.30767 20.5561 6.30767 19.2646C6.30767 15.4641 7.81976 11.8611 10.5153 9.18721C13.2197 6.50461 16.8497 5.01819 20.6581 5.01819C24.4653 5.01819 28.0933 6.5064 30.7953 9.18938C33.4898 11.8649 35 15.4687 35 19.2692C35 23.069 33.4882 26.6716 30.7934 29.3453C28.09 32.0275 24.4612 33.5144 20.6538 33.5144C19.4458 33.5144 18.2424 33.3653 17.072 33.0658C16.1067 32.8189 15.1699 32.471 14.2776 32.0295L14.2776 32.0295Z" fill="black"/>
<path fill-rule="evenodd" clip-rule="evenodd" d="M33.8558 19.2691C33.8558 15.6501 32.3782 12.3734 29.9892 10.0012C27.6004 7.62934 24.3013 6.16229 20.658 6.16229C17.0116 6.16229 13.7109 7.62885 11.321 9.99944C8.93014 12.3711 7.45172 15.6472 7.45172 19.2646C7.45172 20.4789 7.61966 21.6572 7.93302 22.7771C8.2444 23.8898 8.69991 24.9433 9.27731 25.9157L6.99005 32.6715L6.80923 33.2056L7.34648 33.0346L14.3815 30.7958C15.3129 31.297 16.3094 31.6898 17.3555 31.9574C18.4095 32.2271 19.5142 32.3703 20.6538 32.3703C24.2986 32.3703 27.5983 30.9036 29.9875 28.5331C32.3777 26.1616 33.8558 22.8858 33.8558 19.2692L33.8558 19.2691Z" fill="#54CC61"/>
<path fill-rule="evenodd" clip-rule="evenodd" d="M18.5112 15.6913C18.4532 15.5746 18.1187 14.7666 17.8103 14.0219C17.6133 13.5458 17.4253 13.0918 17.3884 13.004C17.0412 12.1761 16.6574 12.201 16.363 12.2201C16.3437 12.2214 16.325 12.2226 16.3002 12.2226C16.1974 12.2226 16.0965 12.2162 15.9919 12.2096C15.8611 12.2013 15.7253 12.1927 15.597 12.1927C15.4264 12.1927 15.1941 12.2281 14.9494 12.3426C14.768 12.4275 14.5808 12.5554 14.4095 12.7436C14.3845 12.7706 14.3657 12.7904 14.3453 12.8118C13.9377 13.2403 13.0492 14.1742 13.0492 15.9679C13.0492 17.8494 14.406 19.6388 14.6054 19.9015L14.6046 19.9021L14.6065 19.9045L14.6087 19.9067C14.6165 19.9168 14.6453 19.9589 14.6879 20.0212C15.189 20.754 17.4926 24.1231 20.9945 25.4909C24.1714 26.7305 24.7463 26.5914 25.2597 26.4672C25.3472 26.446 25.4325 26.4254 25.5248 26.4168C25.9406 26.3778 26.6209 26.0931 27.1933 25.6934C27.6682 25.3618 28.0827 24.9427 28.2414 24.5014C28.383 24.1069 28.4631 23.7404 28.5002 23.4387C28.5541 23.0005 28.5114 22.6557 28.4317 22.5225L28.4306 22.5213C28.3093 22.3216 28.0996 22.2226 27.7851 22.0741C27.7296 22.0479 27.6703 22.0199 27.6133 21.9923L27.6135 21.9919C27.3966 21.8816 26.6461 21.5147 26.0046 21.2115C25.5901 21.0155 25.2218 20.8471 25.0759 20.7948C24.8707 20.7211 24.692 20.6654 24.5003 20.687C24.283 20.7115 24.0935 20.8234 23.9178 21.0896L23.9172 21.0892C23.829 21.2218 23.6735 21.4205 23.5037 21.6287C23.2346 21.9583 22.9135 22.3285 22.7767 22.4839V22.485C22.7183 22.5515 22.6679 22.5878 22.6185 22.5937C22.55 22.602 22.4557 22.5739 22.3252 22.5098C22.2418 22.4681 22.1605 22.433 22.0603 22.3897C21.5529 22.1708 20.5649 21.7445 19.4388 20.7474C19.0359 20.3909 18.6814 20.0012 18.3854 19.6355C17.9062 19.0436 17.5823 18.5162 17.4537 18.2941C17.3521 18.1199 17.465 18.007 17.5692 17.9028L17.5686 17.9022C17.6838 17.7871 17.8142 17.6304 17.9451 17.4731C18.0047 17.4015 18.0643 17.3298 18.1368 17.2463L18.1379 17.2452C18.3144 17.04 18.3875 16.8905 18.4863 16.6889C18.5035 16.6537 18.5215 16.617 18.5396 16.5808L18.5407 16.5797C18.6276 16.4047 18.6498 16.2382 18.6336 16.0823C18.6186 15.9371 18.57 15.8076 18.5107 15.6915L18.5112 15.6913Z" fill="black"/>
</g>
<defs>
<clipPath id="clip0_11_100">
<rect width="40" height="40" fill="white"/>
</clipPath>
</defs>
</svg>
